<?xml version="1.0" encoding="UTF-8"?>
<svg id="_レイヤー_1" data-name="レイヤー_1" xmlns="http://www.w3.org/2000/svg" width="300" height="300" version="1.1" viewBox="0 0 300 300">
  <!-- Generator: Adobe Illustrator 29.1.0, SVG Export Plug-In . SVG Version: 2.1.0 Build 142)  -->
  <g>
    <path d="M49.6,200.4c4.2,0,10.9,10.9,29,10.9s25.9-10.9,30.1-10.9,13.7,10.6,20.8,23.6c7.1,13,13.7,26.9,10.8,31.6s-120.5,2.9-123.4,0,3.4-13,11.7-30.4,16.8-24.8,21-24.8Z" fill="#32d4ae"/>
    <circle cx="78.6" cy="161" r="39.5" fill="#32d4ae"/>
    <g>
      <circle cx="157" cy="85.4" r="10.6" fill="#32d4ae"/>
      <circle cx="203.6" cy="85.4" r="10.6" fill="#32d4ae" opacity=".5"/>
      <circle cx="250.1" cy="85.4" r="10.6" fill="#32d4ae" opacity=".2"/>
    </g>
  </g>
  <path d="M203,28.4c-45.6,0-82.5,25-82.5,55.8s10.7,31.5,27.8,41.7l-10.8,26.8,50-13.8c5,.7,10.2,1,15.6,1,45.6,0,82.5-25,82.5-55.8s-36.9-55.8-82.5-55.8Z" fill="none" stroke="#32d4ae" stroke-miterlimit="10" stroke-width="10"/>
</svg>