<?xml version="1.0" encoding="UTF-8"?>
<svg 
id="bag_svg" 
className="bag_svg"
xmlns="http://www.w3.org/2000/svg" width="50" height="50" version="1.1" viewBox="0 0 50 50">
  <path d="M.8,22.1l19.7,4.2v-2.2h8.4v2l19.8-4.1s1.7-8.4-2.3-8.9c-4.2-.6-39-.4-42.8,0-3.9.5-2.7,9-2.7,9Z" fill="#1a2c5b"/>
  <path d="M48.5,24.4l-9.8,2.2-9.6,1.9v5.7h-8.6v-5.6L1.2,24.4s0,12.1,0,16.2c0,4,2.7,4.8,2.7,4.8,0,0,36.4,0,40.5,0s1.5-.1,1.7-.3c.9-.5,2.4-1.7,2.5-4.5,0-4,0-16.2,0-16.2Z" fill="#1a2c5b"/>
  <path d="M31.4,4.6h-14.1c-1.1,0-2,1-2,2.2v1h0v3.2c0,.3.3.6.6.6h1.9c.3,0,.6-.3.6-.6v-3.1h12v3.1c0,.3.3.6.6.6h1.9c.3,0,.6-.3.6-.6v-3.1h0v-1.1c0-1.2-.9-2.2-2-2.2Z" fill="#1a2c5b"/>
</svg>