<?xml version="1.0" encoding="UTF-8"?>
<svg id="homeAbout_x5F_cahra" xmlns="http://www.w3.org/2000/svg" width="300" height="300" version="1.1" viewBox="0 0 300 300">
  <g>
    <text/>
    <g>
      <rect x="29.5" y="180.1" width="254.8" height="91.6" rx="16" ry="16" fill="#1a2c5b"/>
      <rect x="31.2" y="189.2" width="251.6" height="91.6" rx="15.9" ry="15.9" fill="none" stroke="#1a2c5b" strokeMiterlimit="10" strokeWidth="3.2"/>
    </g>
  </g>
  <g>
    <g>
      <path d="M33.9,65.1c-3.2-2.1-6.8,2.2-4.2,5,1.6,1.4,3.6,2.6,5.1,4.1s.1.1.1.2c0,0-.6.4-.7.5-1,.9-1.5,2.2-1.1,3.5,0,.1.3.7.3.7-1.5.6-2.4,2.3-2,3.8s.2.6.3.8c-.2.1-.4.2-.6.4-1.5,1.1-1.7,3.3-.4,4.6l8.2,6.4c3.8,2.6,9.4,2,12.5-1.5,1.1-1.2,2.7-3.3,3.4-4.7,1.4-2.9,1.1-5.5,0-8.4-1.2-3.3-2.5-6.8-3.8-10.1s-.7-1.5-1.6-2c-2.2-1.2-4.9.5-4.8,3s.6,1.7.8,2.7l-11.4-9ZM30.6,68c0-1.3,1.4-2,2.4-1.3l13.9,10.9c.7.4,1.5-.2,1.3-.9l-1.8-4.8c-.5-1.8,1.9-2.7,2.8-1.2,1.3,3.9,3.1,7.6,4.4,11.5s.6,5-.9,7.1-1.7,2.3-2.5,3.2c-2.6,2.9-7.1,3.4-10.3,1.2l-7.9-6.2c-.9-1.2.5-2.7,1.7-1.9,1.1.7,2.1,1.7,3.1,2.5s1.2.3,1.4-.4,0-.7-.4-1-.8-.7-1.2-1c-.9-.7-2.5-1.7-3.2-2.6-1-1.3.7-3.2,2.3-2.1s2.1,1.8,3.2,2.5,2-.5,1.2-1.3l-4.9-3.9c-1.1-1.5.6-3.2,2.1-2.2,1.3.9,2.5,2.2,3.8,3,.9.6,1.9-.6,1-1.4l-11.2-8.8c-.2-.2-.4-.7-.4-1Z"/>
      <rect x="81.9" y="123" width="32.9" height="10.3" rx="3.4" ry="3.4" transform="translate(96.4 -33.4) rotate(36.8)" fill="#f2f0de" stroke="#000" strokeMiterlimit="10" strokeWidth="1.2"/>
      <rect x="47" y="102" width="43.8" height="6.8" transform="translate(79.9 -20) rotate(38.2)" fill="#f2f0de" stroke="#000" strokeMiterlimit="10" strokeWidth="1.3"/>
    </g>
    <g>
      <g>
        <g>
          <path d="M154.8,118.5h57.1s39.6,79.6-28.6,79c-68.2-.6-28.6-79-28.6-79Z" fill="#ddddd0" stroke="#000" strokeMiterlimit="10" strokeWidth="1.4"/>
          <path d="M157,144.6h54s37.5,53.3-27,52.9c-64.5-.4-27-52.9-27-52.9Z" fill="#ddddd0" stroke="#000" strokeLinecap="round" stroke-linejoin="round" strokeWidth="1.4"/>
          <g>
            <path d="M241,80.5s18.6-41.3-4.8-75.2c0,0-37.1,17.4-39.2,35.1,0,0,22.3,12,22.5,15.5.2,3.5,21.5,24.6,21.5,24.6Z" fill="#f9851c" stroke="#000" strokeMiterlimit="10" strokeWidth="1.4"/>
            <path d="M238.4,56.4c.2-.6,6.8-23.6-3.5-39.8,0,0-25,12-27,25.5,0,0,17.1,2.4,17.9,5.6.8,3.2,12.6,8.7,12.6,8.7Z" fill="#fbfbec" stroke="#000" strokeMiterlimit="10" strokeWidth="1.4"/>
          </g>
          <g>
            <path d="M125.1,80.5s-18.5-41.3,4.9-75.2c0,0,37.1,17.4,39.2,35.1,0,0-22.3,12-22.5,15.5-.3,3.5-21.5,24.6-21.5,24.6Z" fill="#f9851c" stroke="#000" strokeMiterlimit="10" strokeWidth="1.4"/>
            <path d="M127.7,56.4c-.2-.6-6.7-23.6,3.5-39.8,0,0,25,12,27,25.5,0,0-17.1,2.4-17.9,5.6-.8,3.2-12.6,8.6-12.6,8.6Z" fill="#fbfbec" stroke="#000" strokeMiterlimit="10" strokeWidth="1.4"/>
          </g>
          <rect x="123.6" y="40.6" width="120.8" height="83.4" rx="28.5" ry="28.5" fill="#f2f0de" stroke="#000" strokeMiterlimit="10" strokeWidth="1.4"/>
          <rect x="131.2" y="49.7" width="101.6" height="65.1" rx="22.2" ry="22.2" fill="#daf4f7" stroke="#000" strokeMiterlimit="10" strokeWidth="1.4"/>
          <circle cx="208.7" cy="76.1" r="8.6" stroke="#000" strokeMiterlimit="10" strokeWidth="1.4"/>
          <circle cx="204.3" cy="75" r="3.6" fill="#fff" stroke="#000" strokeMiterlimit="10" strokeWidth="1.4"/>
          <circle cx="154.1" cy="75.7" r="8.6" stroke="#000" strokeMiterlimit="10" strokeWidth="1.4"/>
          <circle cx="149.4" cy="75" r="3.6" fill="#fff" stroke="#000" strokeMiterlimit="10" strokeWidth="1.4"/>
          <path d="M194.4,92.6c0,6.1-4.9,11-11,11s-11-4.9-11-11" fill="none" stroke="#000" strokeLinecap="round" strokeMiterlimit="10" strokeWidth="1.4"/>
          <ellipse cx="150.7" cy="97.1" rx="7" ry="4.5" fill="#f9851c" stroke="#000" strokeMiterlimit="10" strokeWidth="1.4"/>
          <ellipse cx="212" cy="98.2" rx="7" ry="4.5" fill="#f9851c" stroke="#000" strokeMiterlimit="10" strokeWidth="1.4"/>
          <circle cx="184" cy="165.7" r="4.5" fill="#f9851c" stroke="#000" strokeMiterlimit="10" strokeWidth="1.4"/>
          <circle cx="160.2" cy="165.3" r="4.5" fill="#f9851c" stroke="#000" strokeMiterlimit="10" strokeWidth="1.4"/>
          <circle cx="207.9" cy="166.5" r="4.5" fill="#f9851c" stroke="#000" strokeMiterlimit="10" strokeWidth="1.4"/>
          <path d="M163.9,124h38.9s-1.7,15-17.5,15.5-21.4-15.5-21.4-15.5Z" fill="#ddddd0" stroke="#000" strokeMiterlimit="10" strokeWidth="1.4"/>
          <polygon points="182 20 175.2 40.6 188.9 40.6 182 20" fill="#f9851c" stroke="#000" strokeMiterlimit="10" strokeWidth="1.4"/>
          <circle cx="181.7" cy="20.8" r="4.2" fill="#f9851c" stroke="#000" strokeMiterlimit="10" strokeWidth="1.4"/>
          <g>
            <path d="M144.5,150.1l4.4-17s-16.9.7-20.7,17.6l9.3,4.6,7-5.2Z" fill="#ddddd0" stroke="#000" strokeMiterlimit="10" strokeWidth="1.4"/>
            <path d="M138.2,153.6s-2.7,9-16.5.7c-13.8-8.3-8.7-14.3-8.7-14.3,0,0,3.6-7.7,16.6-.6,13,7.1,8.6,14.2,8.6,14.2Z" fill="#ddddd0" stroke="#000" strokeMiterlimit="10" strokeWidth="1.4"/>
          </g>
          <path d="M238.7,143.4c3.6-6.3,14.3-16.9,32.1-13.2,0,0-3.4,6.8-3.2,13.2,0,2.6.5,9.6-.3,17.8-1.1,11.9-4.9,25.8-17.8,28-21.8,3.8-33.4.2-31.3-2.7s4.7-15.6,4.7-15.6c0,0,6.2-4.9,10.1-11.7,3.9-6.8,1.9-9.6,5.5-15.9Z" fill="#f9851c" stroke="#000" strokeMiterlimit="10" strokeWidth="1.4"/>
          <path d="M238.8,143.5c3.6-6.3,14.3-16.9,32.1-13.2,0,0-3.4,6.8-3.2,13.2.1,3.5.9,9.3-.4,17.7" fill="#fff" stroke="#000" strokeMiterlimit="10" strokeWidth="1.4"/>
          <g>
            <path d="M223.2,157.6l-3.3-17.9s16.8,1.3,20.2,18.3l-9.4,4.4-7.4-4.8Z" fill="#ddddd0" stroke="#000" strokeMiterlimit="10" strokeWidth="1.4"/>
            <path d="M235.9,156.8s-9.3-1.3-7.5,14.7c1.8,16,9.4,13.9,9.4,13.9,0,0,8.5,0,7.5-14.8-1-14.8-9.3-13.7-9.3-13.7Z" fill="#ddddd0" stroke="#000" strokeMiterlimit="10" strokeWidth="1.4"/>
          </g>
          <path d="M288,156.3" fill="red" stroke="#000" strokeMiterlimit="10" strokeWidth="1.4"/>
          <path d="M239.2,142.9c-.5,1.6,1.2,3.5,4,4.4,1.1.4,1.8.9,2.3.6.5-.3.5.3.4.5-1.3,3.1,2.7,7.4,8.8,9.7,6.1,2.2,10.4,5.4,12.7,2.9" fill="#fff" stroke="#000" strokeMiterlimit="10" strokeWidth="1.4"/>
          <g>
            <path d="M155.5,191.3s4.7,2.3,7.9,3.5c3.2,1.2,10.8,2.1,10.8,2.1l-.6,19.3s-5.8-3.3-9.7-3.4c-3.9,0-9,3.4-9,3.4l.5-25Z" fill="#f2f0de" stroke="#000" strokeMiterlimit="10" strokeWidth="1.4"/>
            <g>
              <path d="M150.5,226.8c0-7.8,6.1-14.1,13.7-14.1s13.7,6.3,13.7,14.1" fill="#f2f0de" stroke="#000" strokeMiterlimit="10" strokeWidth="1.4"/>
              <line x1="150.5" y1="226.8" x2="177.8" y2="226.8" fill="none" stroke="#000" strokeLinecap="round" strokeMiterlimit="10" strokeWidth="1.4"/>
            </g>
          </g>
          <g>
            <path d="M215.6,189.3s-4.9,3.6-8.1,4.9c-3.2,1.2-10.7,2.7-10.7,2.7v18.6s6-3.3,9.8-3.4c3.9,0,9,3.4,9,3.4v-26.1Z" fill="#f2f0de" stroke="#000" strokeMiterlimit="10" strokeWidth="1.4"/>
            <g>
              <path d="M220.2,225.8c0-7.8-6.1-14.1-13.7-14.1-7.6,0-13.7,6.3-13.7,14.1" fill="#f2f0de" stroke="#000" strokeMiterlimit="10" strokeWidth="1.4"/>
              <line x1="220.2" y1="225.8" x2="192.8" y2="225.8" fill="none" stroke="#000" strokeLinecap="round" strokeMiterlimit="10" strokeWidth="1.4"/>
            </g>
          </g>
        </g>
        <path d="M244,196.6l4.4-.3s-1.2-14.3-12.1-14.4c-10.9,0-11.3,14.6-11.3,14.6h4.2s-.4-10.6,7.6-10.7c8-.1,7.2,10.7,7.2,10.7Z" fill="#ddddd0" stroke="#000" strokeMiterlimit="10" strokeWidth="1.4"/>
        <path d="M99.8,133.1l-2.9,2.9s10.7,12.6,17.4,4c6.7-8.6-7.8-17-7.8-17l-2.3,3.4s11.5,5.1,6.7,11.5c-4.8,6.4-11.2-4.9-11.2-4.9Z" fill="#ddddd0" stroke="#000" strokeMiterlimit="10" strokeWidth="1.4"/>
      </g>
      <text transform="translate(165.5 190.8) scale(1.4 1)" font-family="ToppanBunkyuMidashiGothicStdN-ExtraBold-83pv-RKSJ-H, &apos;Toppan Bunkyu Midashi Gothic&apos;" font-size="20.3" font-weight="700"><tspan x="0" y="0">ST</tspan></text>
      <path d="M169.1,211h-9.2c-1.7-.2-3.2-1.7-3.2-3.6v-3.1c0-1.9,1.6-3.4,3.5-3.3h9.2c1.9.2,3.4,1.7,3.3,3.6v3.1c0,1.9-1.6,3.4-3.6,3.3Z" fill="#ddddd0" stroke="#000" strokeLinecap="round" stroke-linejoin="round" strokeWidth="1.4"/>
      <rect x="198.3" y="200.4" width="16" height="9.9" rx="3.4" ry="3.4" fill="#ddddd0" stroke="#000" strokeLinecap="round" stroke-linejoin="round" strokeWidth="1.4"/>
    </g>
  </g>
</svg>