<?xml version="1.0" encoding="UTF-8"?>
<svg 
id="headerMainLogo" 
className="headerMainLogo"
data-name="headerMainLogo" xmlns="http://www.w3.org/2000/svg" width="200" height="60" version="1.1" viewBox="0 0 200 60">
  <g>
    <g>
      <polygon points="73.6 5.8 73.6 2.7 73.8 2.4 78.4 2.4 78.6 2.6 78.6 5.8 73.6 5.8" fill="#fff"/>
      <path d="M78.9,6.5h11c0,0,.2.1.2.1v3.5l-.2.2h-4.5c0-.1-.5-.1-.5-.1-.3,1.2-.7,2.3-1.2,3.4h8.2c0,0,.2.1.2.1v3.6l-.2.2h-4.7c0,0-21.5,0-21.5,0h-4.7c0,0-.2-.2-.2-.2v-3.6l.3-.2h4.7c0,0,3.3,0,3.3,0-.3-1.2-.6-2.3-1.1-3.4h-4.8c0,.1-.2-.2-.2-.2v-3.5l.3-.2h4.5c0,0,6.3,0,6.3,0h5ZM70.3,35.1h-4.7l.2-7.7v-8c-.1,0,.1-.2.1-.2h4.6c0,.1,12.2.1,12.2.1h4.6c0-.1.2.1.2.1v3.9c0,0,0,4.3,0,4.3l.2,7.5h-17.2ZM82.6,22.8h-12.3v2.8h12.3v-2.8ZM70.3,25.7v6.5h12.3l-12.3-6.5ZM73.3,11.4q.4,1.1.7,2.3h4.8c.4-1.1.5-1.1.8-2.3h-6.3Z" fill="#fff"/>
    </g>
    <g>
      <path d="M18.4,18.4l7.1,1.5v-.8h3v.7l7.1-1.5s.6-3-.8-3.2c-1.5-.2-14-.2-15.4,0-1.4.2-1,3.2-1,3.2Z" fill="#fff"/>
      <path d="M35.5,19.2l-3.5.8-3.5.7v2.1h-3.1v-2l-6.9-1.5s0,4.4,0,5.8c0,1.5,1,1.7,1,1.7,0,0,13.1,0,14.6,0s.5,0,.6,0c.3-.2.9-.6.9-1.6,0-1.5,0-5.8,0-5.8Z" fill="#fff"/>
      <path d="M29.4,12.1h-5.1c-.4,0-.7.3-.7.8v.4h0v1.2c0,.1,0,.2.2.2h.7c.1,0,.2,0,.2-.2v-1.1h4.3v1.1c0,.1,0,.2.2.2h.7c.1,0,.2,0,.2-.2v-1.1h0v-.4c0-.4-.3-.8-.7-.8Z" fill="#fff"/>
    </g>
    <g>
      <g>
        <g>
          <path d="M108.6,8.8h4.4s.3.3.3.3c-.2,3.9-.3,6.6-.5,9.8-.1,2.7-.3,6.2-.3,8.7s1.1,3.3,3,3.3c3.6,0,7.7-2.8,10.4-7.7l2.7,3.6c.3.3.3.6,0,1-3.1,4.9-8,7.8-12.8,7.8s-8-2.2-8-7.5.2-7.3.3-10.1c0-2.4.3-5.2.3-8.9l.2-.2Z" fill="#fff"/>
          <path d="M132.7,26.4l3.9-1.3h.3c.5,3.4,2.2,3.9,7.5,3.9s6.7-.3,10.1-.8l.3.2.4,4.7-.2.3c-3.7.4-7.5.5-11,.5-9.4,0-11.1-3.8-11.5-7.3l.2-.2ZM136.4,11.2c1.9.2,3.7.3,5.6.3,3,0,6.4-.3,9.7-.8l.2.2v4.4c.1,0-.1.2-.1.2-3,.5-6.3.8-9.8.8s-3.8,0-5.7-.3l-.3-.2.2-4.5.2-.2Z" fill="#fff"/>
        </g>
        <path d="M102.5,34.5c-1.2,0-2.4.1-4,.1-3.1,0-4.5-1-4.5-3.1s1-2.4,2.3-3.4c-.6-.9-1.3-2.1-1.9-3.2h0c0-.1,1.5-1,1.5-1h.1c.6,1.1,1.2,2.3,1.8,3.2,1.2-.6,2.5-1.2,3.7-1.7h.1c0,0,.8,1.8.8,1.8h0c-1.1.5-2.7,1.2-3.6,1.6-.7.3-1,.5-1.5.9-1,.6-1.4,1.2-1.4,1.8,0,.9,1.1,1.1,2.6,1.1s2.4,0,3.9-.3h.1c0,0,0,2,0,2h0Z" fill="#fff"/>
      </g>
      <text/>
      <path d="M36.5,15.1l1-1.8c2.1-3.2,3.7-6.9,4.7-10.8h.4c0-.1,4.5,1.2,4.5,1.2v.4c-.4,1.5-.9,2.9-1.5,4.3h14c0-.1.3.1.3.1v4.1l-.3.2h-4.8c0-.1-11.2-.1-11.2-.1-.7,1.2-1.5,2.4-2.3,3.5h2.8c0,0,5.5,0,5.5,0l3.2-.2,2.3,2c.2.2.4.5.4.7s-.1.4-.2.5c-1.6,1.3-3.6,2.7-7.3,5.6-3,2.5-4.5,3.8-4.5,4.5s.6,1.1,4.6,1.1,5.8-.3,6.4-.8c.7-.5,1-1.4,1.1-4l4.2,1.8c.4.2.4.3.4.7-.2,3-.6,4.2-1.9,5.1-1.6,1.2-3,1.6-11,1.6s-9.1-1.2-9.1-4.7.7-3.2,2.9-5.3c1.5-1.4,3.1-2.7,5.4-4.6h-6.3c0,.1-.2-.1-.2-.1v-3.5l-3.2-1.9Z" fill="#fff"/>
    </g>
  </g>
  <g>
    <rect x="18.2" y="39.8" width="163.5" height="19.4" fill="#fff"/>
    <g>
      <path d="M27.2,41.9c4.2,0,6.8,2.3,6.8,7.4s-2.9,7.8-7,7.8h-4.9v-15.2h5.1ZM27.2,54.5c1.9,0,3.3-1.4,3.3-5.1s-1.3-5.1-3.6-5.1h-1.2v10.1h1.6Z" fill="#1a2c5d"/>
      <path d="M55.9,57.1h-3.6l-.9-3.6h-4.7l-.9,3.6h-3.3l3.9-15.2h5.6l3.9,15.2ZM49.6,46c-.2-.7-.3-1.4-.4-2.1h0c-.1.7-.3,1.4-.4,2.1l-1.2,4.8h3.3l-1.2-4.8Z" fill="#1a2c5d"/>
      <path d="M75.8,44.7h-4.1v12.4h-3.5v-12.4h-4.1v-2.8h11.7v2.8Z" fill="#1a2c5d"/>
      <path d="M97.3,57.1h-3.6l-.9-3.6h-4.7l-.9,3.6h-3.3l3.9-15.2h5.6l3.9,15.2ZM91,46c-.2-.7-.3-1.4-.4-2.1h0c-.1.7-.3,1.4-.4,2.1l-1.2,4.8h3.3l-1.2-4.8Z" fill="#1a2c5d"/>
      <path d="M113.9,49.2c1.9.1,3.7,1,3.7,3.4s-2.3,4.4-5.6,4.4h-5.4v-15.2h5.1c3.1,0,5.2,1.1,5.2,3.9s-1.2,3-3,3.4h0ZM110,44.4v3.8h1.3c1.1,0,2-.6,2-1.9s-.9-1.9-2-1.9h-1.3ZM111.9,54.5c1.3,0,2.2-.5,2.2-1.9s-.9-1.8-2.1-1.8h-1.9v3.7h1.9Z" fill="#1a2c5d"/>
      <path d="M139.3,57.1h-3.6l-.9-3.6h-4.7l-.9,3.6h-3.3l3.9-15.2h5.6l3.9,15.2ZM132.9,46c-.2-.7-.3-1.4-.4-2.1h0c-.1.7-.3,1.4-.4,2.1l-1.2,4.8h3.3l-1.2-4.8Z" fill="#1a2c5d"/>
      <path d="M151.2,52.1c.3,1.7,1,2.7,2.7,2.7s1.6-.5,1.6-1.4-.7-1.5-3.1-2.4c-2.8-1-4.2-2.3-4.2-4.6s2-4.6,5.1-4.6,5,1.6,5.5,4.5l-3.5.7c-.1-1.8-.9-2.8-2.1-2.8s-1.5.6-1.5,1.6.7,1.6,2.9,2.3c3.2,1,4.6,2.2,4.6,4.7s-2,4.6-5.5,4.6-5.6-1.6-6-4.8l3.6-.4Z" fill="#1a2c5d"/>
      <path d="M178.2,54.5v2.6h-9.3v-15.2h9.2v2.6h-5.6v3.6h5.1v2.5h-5.1v3.8h5.8Z" fill="#1a2c5d"/>
    </g>
  </g>
  <path d="M149.7,6.1s-.1,0-.1,0c-.2,0-.4,0-.6.1s-.2,0-.3-.1-.2-.8-.2-.9,0-.2.1-.2c.2,0,.6,0,.7-.2s0,0,0-.1c0-.2,0-.3,0-.5,0-.2-.3-.3-.4-.3-.2-.1-.4-.2-.3-.5s.4-.6.5-.7.1-.1.2-.1.5.3.6.4,0,0,.1,0c0,0,.2-.1.3-.2s.2-.1.3-.2,0,0,0-.1c0-.2-.1-.5-.1-.7s.2-.2.3-.2.4,0,.5-.1.2,0,.2,0c0,0,.2,0,.2.2,0,.2,0,.4.1.6s.2.1.3.2.4.1.5,0,.3-.4.4-.6.2-.1.3,0,.6.4.7.5.1.1,0,.2-.3.5-.4.6,0,.1,0,.2.2.3.3.4c0,0,.2,0,.3,0,.2,0,.4-.1.6-.1s.2,0,.2.1c0,.3.1.6.2.8s0,.2-.2.2c-.2,0-.4,0-.6.1s-.1,0-.2.2,0,.4,0,.5,0,.1,0,.1c.1.1.4.2.6.4s0,.1,0,.2c-.2.2-.3.6-.5.8s-.1.1-.2,0c-.2,0-.5-.3-.6-.4s-.1,0-.2,0-.5.3-.5.3,0,0,0,.1c0,.2.2.6.1.8s-.2.1-.3.2c-.2,0-.4,0-.6.1s-.3,0-.3-.1,0-.4-.1-.6,0,0,0,0c0,0-.3,0-.4-.1s-.3,0-.3,0-.3.4-.4.5-.2.3-.4.2-.6-.4-.7-.5-.1-.1-.1-.2c0-.1.3-.5.4-.6s0-.1,0-.2-.2-.4-.3-.4ZM151.7,3.9c-.6.2-1,.8-.8,1.4.3,1.1,1.9,1.2,2.3,0s-.5-1.7-1.4-1.5Z" fill="#fff"/>
  <path d="M154.4,11.8s-.1,0-.1,0c-.2,0-.4,0-.6.1s-.2,0-.3-.1-.2-.8-.2-.9,0-.2.1-.2c.2,0,.6,0,.7-.2s0,0,0-.1c0-.2,0-.3,0-.5,0-.2-.3-.3-.4-.3-.2-.1-.4-.2-.3-.5s.4-.6.5-.7.1-.1.2-.1.5.3.6.4,0,0,.1,0c0,0,.2-.1.3-.2s.2-.1.3-.2,0,0,0-.1c0-.2-.1-.5-.1-.7s.2-.2.3-.2.4,0,.5-.1.2,0,.2,0c0,0,.2,0,.2.2,0,.2,0,.4.1.6s.2.1.3.2.4.1.5,0,.3-.4.4-.6.2-.1.3,0,.6.4.7.5.1.1,0,.2-.3.5-.4.6,0,.1,0,.2.2.3.3.4c0,0,.2,0,.3,0,.2,0,.4-.1.6-.1s.2,0,.2.1c0,.3.1.6.2.8s0,.2-.2.2c-.2,0-.4,0-.6.1s-.1,0-.2.2,0,.4,0,.5,0,.1,0,.1c.1.1.4.2.6.4s0,.1,0,.2c-.2.2-.3.6-.5.8s-.1.1-.2,0c-.2,0-.5-.3-.6-.4s-.1,0-.2,0-.5.3-.5.3,0,0,0,.1c0,.2.2.6.1.8s-.2.1-.3.2c-.2,0-.4,0-.6.1s-.3,0-.3-.1,0-.4-.1-.6,0,0,0,0c0,0-.3,0-.4-.1s-.3,0-.3,0-.3.4-.4.5-.2.3-.4.2-.6-.4-.7-.5-.1-.1-.1-.2c0-.1.3-.5.4-.6s0-.1,0-.2-.2-.4-.3-.4ZM156.4,9.6c-.6.2-1,.8-.8,1.4.3,1.1,1.9,1.2,2.3,0s-.5-1.7-1.4-1.5Z" fill="#fff"/>
  <path d="M181.2,34.3c-2.9.2-5.9.3-9.9.3-7.5,0-11.1-2.3-11.1-7.2s2.4-5.6,5.7-7.9c-1.5-2.2-3.2-5-4.6-7.5v-.3c0,0,3.9-2,3.9-2h.3c1.4,2.6,3,5.2,4.5,7.4,2.9-1.4,6.1-2.8,9.2-4h.3c0,.1,1.9,4.2,1.9,4.2v.3c-2.9.9-6.7,2.6-9,3.5-1.8.8-2.6,1.3-3.7,2-2.4,1.4-3.5,2.7-3.5,4.2,0,2.1,2.7,2.6,6.4,2.6s5.8-.2,9.7-.6l.3.2v4.5c.1,0,0,.3,0,.3Z" fill="#fff"/>
</svg>