<svg height="300" viewBox="0 0 300 300" width="300" xmlns="http://www.w3.org/2000/svg"><text fill="#1a2c5b" font-family="ToppanBunkyuMidashiGothicStdN-ExtraBold-83pv-RKSJ-H, &apos;Toppan Bunkyu Midashi Gothic&apos;" font-size="15.6" font-weight="700" transform="matrix(1.6 0 0 1 97.8 277.3)"><tspan x="0" y="0">LOADING</tspan></text><g stroke="#000"><path d="m131.5 168.8h43.9s30.4 61.2-22 60.7-22-60.7-22-60.7z" fill="#ddddd0" stroke-miterlimit="10"/><path d="m133.2 188.9h41.5s28.8 41-20.8 40.7-20.8-40.7-20.8-40.7z" fill="#ddddd0" stroke-linecap="round" stroke-linejoin="round"/><path d="m197.8 139.7s14.3-31.7-3.7-57.8c0 0-28.5 13.4-30.1 26.9 0 0 17.1 9.3 17.3 11.9.2 2.7 16.5 18.9 16.5 18.9z" fill="#f9851c" stroke-miterlimit="10"/><path d="m195.8 121.1c.2-.4 5.2-18.2-2.7-30.6 0 0-19.3 9.2-20.8 19.6 0 0 13.1 1.8 13.7 4.3s9.7 6.6 9.7 6.6z" fill="#fbfbec" stroke-miterlimit="10"/><path d="m108.7 139.7s-14.2-31.7 3.8-57.8c0 0 28.5 13.4 30.1 27 0 0-17.1 9.2-17.3 11.9s-16.6 18.9-16.6 18.9z" fill="#f9851c" stroke-miterlimit="10"/><path d="m110.7 121.1c-.2-.4-5.2-18.2 2.7-30.6 0 0 19.2 9.2 20.8 19.6 0 0-13.1 1.8-13.7 4.3s-9.7 6.6-9.7 6.6z" fill="#fbfbec" stroke-miterlimit="10"/><rect fill="#f2f0de" height="64.1" rx="21.9" stroke-miterlimit="10" width="92.9" x="107.5" y="109"/><rect fill="#a2ecd6" height="50.1" rx="17.1" stroke-miterlimit="10" width="78.1" x="113.4" y="116"/><circle cx="172.9" cy="136.3" r="6.6" stroke-miterlimit="10"/><circle cx="172.9" cy="133.5" fill="#fff" r="2.8" stroke-miterlimit="10"/><circle cx="131" cy="135.9" r="6.6" stroke-miterlimit="10"/><circle cx="131" cy="133.2" fill="#fff" r="2.8" stroke-miterlimit="10"/><path d="m161.9 149c0 4.7-3.8 8.4-8.4 8.4s-8.4-3.8-8.4-8.4" fill="none" stroke-linecap="round" stroke-miterlimit="10"/><ellipse cx="128.3" cy="152.4" fill="#f9851c" rx="5.4" ry="3.4" stroke-miterlimit="10"/><ellipse cx="175.4" cy="153.3" fill="#f9851c" rx="5.4" ry="3.4" stroke-miterlimit="10"/><circle cx="133.7" cy="205.1" fill="#f9851c" r="3.4" stroke-miterlimit="10"/><circle cx="154" cy="205.1" fill="#f9851c" r="3.4" stroke-miterlimit="10"/><circle cx="172.4" cy="205.7" fill="#f9851c" r="3.4" stroke-miterlimit="10"/><path d="m138.5 173.1h29.9s-1.3 11.6-13.4 11.9c-12.1.4-16.5-11.9-16.5-11.9z" fill="#ddddd0" stroke-miterlimit="10"/><path d="m152.4 93.2-5.2 15.8h10.5z" fill="#f9851c" stroke-miterlimit="10"/><circle cx="152.2" cy="93.7" fill="#f9851c" r="3.2" stroke-miterlimit="10"/><path d="m196 188c2.8-4.8 11-13 24.7-10.1 0 0-2.6 5.2-2.5 10.1 0 2 .4 7.4-.2 13.7-.8 9.2-3.7 19.8-13.7 21.5-16.8 2.9-25.7.1-24-2.1s3.6-12 3.6-12 4.8-3.8 7.8-9 1.5-7.4 4.3-12.2z" fill="#f9851c" stroke-miterlimit="10"/><path d="m196.1 188c2.8-4.8 11-13 24.7-10.1 0 0-2.6 5.2-2.5 10.1 0 2.7.7 7.2-.3 13.6" fill="#fff" stroke-miterlimit="10"/><path d="m196.4 187.6c-.4 1.2 1 2.7 3.1 3.4.9.3 1.4.7 1.8.4s.4.2.3.4c-1 2.4 2 5.7 6.7 7.4s8 4.2 9.8 2.2" fill="#fff" stroke-miterlimit="10"/><path d="m132.1 224.8s3.6 1.8 6 2.7c2.5.9 8.3 1.6 8.3 1.6l-.4 14.8s-4.5-2.6-7.4-2.6c-3 0-6.9 2.6-6.9 2.6l.4-19.2z" fill="#f2f0de" stroke-miterlimit="10"/><path d="m128.2 252c0-6 4.7-10.8 10.5-10.8s10.5 4.8 10.5 10.8" fill="#f2f0de" stroke-miterlimit="10"/><path d="m128.2 252h21" fill="none" stroke-linecap="round" stroke-miterlimit="10"/><path d="m178.3 223.2s-3.8 2.8-6.2 3.7c-2.5.9-8.2 2-8.2 2v15.3s1.5-2.6 7.3-3.1 7.3 3.2 7.3 3.2v-21.2z" fill="#f2f0de" stroke-miterlimit="10"/><path d="m181.6 252c0-6-4.7-10.8-10.5-10.8s-10.5 4.9-10.5 10.8" fill="#f2f0de" stroke-miterlimit="10"/><path d="m181.6 252h-21" fill="none" stroke-linecap="round" stroke-miterlimit="10"/></g><text font-family="ToppanBunkyuMidashiGothicStdN-ExtraBold-83pv-RKSJ-H, &apos;Toppan Bunkyu Midashi Gothic&apos;" font-size="9.6" font-weight="700" transform="matrix(1.4 0 0 1 145.1 223.2)"><tspan x="0" y="0">ST</tspan></text><rect fill="#ddddd0" height="7.6" rx="2.6" stroke="#000" stroke-linecap="round" stroke-linejoin="round" width="12.3" x="132.9" y="231.8"/><rect fill="#ddddd0" height="7.6" rx="2.6" stroke="#000" stroke-linecap="round" stroke-linejoin="round" width="12.3" x="164.9" y="231.8"/><path d="m184 195.9-3.2-13.6s12.9.5 16.1 13.4l-7.1 3.7-5.9-3.4z" fill="#ddddd0" stroke="#000" stroke-miterlimit="10"/><path d="m193.7 194.9s-7.2-.7-5.3 11.5 7.6 10.4 7.6 10.4 6.5-.3 5.3-11.6c-1.3-11.3-7.6-10.2-7.6-10.2z" fill="#ddddd0" stroke="#000" stroke-miterlimit="10"/><path d="m201.3 226.9 3.4-.3s-1.4-10.9-9.7-10.6c-8.4.3-8.2 11.6-8.2 11.6h3.2c0-.1-.7-8.3 5.4-8.6 6.1-.4 5.9 8 5.9 8z" fill="#ddddd0" stroke="#000" stroke-miterlimit="10"/><path d="m123.2 196 2.8-13.7s-12.9.8-15.8 13.8l7.1 3.5 5.8-3.6z" fill="#ddddd0" stroke="#000" stroke-miterlimit="10"/><path d="m113.4 195.2s7.2-.9 5.6 11.4c-1.6 12.2-7.4 10.5-7.4 10.5s-6.6-.2-5.6-11.5 7.4-10.4 7.4-10.4z" fill="#ddddd0" stroke="#000" stroke-miterlimit="10"/><path d="m106.6 227.4-3.4-.3s1.1-11 9.5-10.9 8.5 11.4 8.5 11.4h-3.2s.5-8.2-5.7-8.4-5.7 8.1-5.7 8.1z" fill="#ddddd0" stroke="#000" stroke-miterlimit="10"/><path d="m213.1 13.8h-121.3c-4.5 0-8.2 3.7-8.2 8.2v39.5c0 4.5 3.7 8.2 8.2 8.2h54.3l6.3 10.9 6.3-10.9h54.3c4.5 0 8.2-3.7 8.2-8.2v-39.5c0-4.5-3.7-8.2-8.2-8.2z" fill="#1a2c5b"/><circle cx="124.5" cy="42.6" fill="#fff" r="4.6"/><circle cx="153.7" cy="42.6" fill="#fff" r="4.6"/><circle cx="182.9" cy="42.6" fill="#fff" r="4.6"/></svg>