<?xml version="1.0" encoding="UTF-8"?>
<svg 
id="silhouette_chara"
className="silhouette_chara"
xmlns="http://www.w3.org/2000/svg" width="200" height="200" version="1.1" viewBox="0 0 200 200">
  <path d="M168.3,123.9c-.2-5.6,2.8-11.4,2.8-11.4,0,0,0,0-.1,0,0,0,0,0,0,0-15.5-3.3-24.8,6-28,11.4-.6,1.1-1,2-1.4,2.9-5.4-8.9-15.8-9.3-15.8-9.3l.4,1.7c-1.4-4.9-3-9.1-4.3-12.1h1.3c13.7,0,24.8-11.1,24.8-24.8v-21.7c3.5-12.5,7-36.2-7.2-56.8,0,0-32.3,15.1-34.1,30.5,0,0,.1,0,.4.2h-7.4l-4.6-14c1.2-.6,2.1-1.8,2.1-3.3s-1.6-3.6-3.6-3.6-3.6,1.6-3.6,3.6,1.1,3,2.5,3.4l-4.6,13.8h-5.5c.2-.1.3-.2.3-.2-1.9-15.4-34.1-30.5-34.1-30.5-16.6,24.1-9,52.4-5.6,62v16.5c0,13.7,11.1,24.8,24.8,24.8h.2c-1.3,3.2-3.1,7.8-4.6,13l.5-2.6s-14.6.9-17.9,15.6h0c-2,1.3-4.2,4.2-4.8,10.8-.8,8.6,2.4,11.5,4.5,12.5-6.7,2.2-7.7,11.8-7.7,11.8l3.8.3s-.5-9.5,6.5-9.2c6.9.2,6.4,9.5,6.4,9.5h3.6c0,0,0-10.7-7.5-12.6,1.9-1.2,4.1-4.1,5-11.3.5-4.1.2-6.8-.5-8.7l5.2-3.2c-1,7.7-.6,15.7,2.5,22.3,1,3.9,3.3,7.5,7.6,10.3,0,0,0,0,0,0l-.5,21.8s0,0,0,0c-2.5,2.2-4,5.5-4,9.2h23.8c0-3.9-1.7-7.3-4.4-9.5.5.3.8.4.8.4l.5-16.8s-.2,0-.4,0c1.7.2,3.5.3,5.4.4.2,0,.5,0,.7,0,.4,0,.8,0,1.2,0,.4,0,.8,0,1.2,0,.1,0,.2,0,.3,0,0,0,.1,0,.2,0,4.2,0,8-.2,11.2-.7,0,0-.1,0-.1,0v17.3c0,0,.8-1.5,3.6-2.5-4.3,1.9-7.3,6.2-7.3,11.3h23.8c0-3.5-1.4-6.6-3.6-8.8v-23.8c-.1,0-.2,0-.2,0,1.3-1.2,2.4-2.5,3.2-3.9-.3.6-.5,1.1-.8,1.5-1.1,1.4,1.7,3,7.6,3.6-.4,2.1-.4,3.7-.4,3.7l3.6-.2s-.1-1.5.2-3.4c3.4,0,7.5-.1,12.2-.8.5,1.9.4,3.6.4,3.6l3.8-.4s-.2-1.6-.9-3.7c.2,0,.4,0,.6,0,11.2-1.9,14.5-14,15.5-24.4,0,0,0-.1,0-.2,0,0,0,0,0,0h0c1-7.2.4-12.2.3-15.2ZM77.5,168.6s0,0-.1,0c1.3.4,2.6.8,4.1,1.1-1.5-.3-3-.6-4-1ZM116,184.2c-.4,0-.8,0-1.2,0,.4,0,.8,0,1.2,0ZM116.1,184.2s0,0,0,0h0ZM115.9,168s0,0,0,0c.2,0,.4-.2.7-.3-.2,0-.4.2-.6.2ZM129.4,147.8s-.4,2.3-1.1,4.9c0-.5,0-1,0-1.4,1.8-6.5,1.6-13.9.5-20.9l.6,2.4,5.3,3.1c-.6,1.7-.8,4-.5,7.1-2.5,2.9-4.8,4.7-4.8,4.7Z" fill="#fff"/>
</svg>