<?xml version="1.0" encoding="UTF-8"?>
<svg 
id="thanks_chara" 
className="thanks_chara" 
xmlns="http://www.w3.org/2000/svg" width="300" height="300" version="1.1" viewBox="0 0 300 300">
  <g>
    <g>
      <path d="M108.6,151.3h70.8s49.1,98.7-35.4,97.9c-84.5-.8-35.4-97.9-35.4-97.9Z" fill="#ddddd0" stroke="#000" strokeMiterlimit="10" stroke-width="1.2"/>
      <path d="M111.3,183.6h67s46.4,66.1-33.5,65.6c-79.9-.5-33.5-65.6-33.5-65.6Z" fill="#ddddd0" stroke="#000" stroke-linecap="round" stroke-linejoin="round" stroke-width="1.2"/>
      <g>
        <path d="M215.4,104.2s23-51.1-6-93.2c0,0-46,21.6-48.6,43.4,0,0,27.6,14.9,27.9,19.3.3,4.3,26.7,30.5,26.7,30.5Z" fill="#f9851c" stroke="#000" strokeMiterlimit="10" stroke-width="1.2"/>
        <path d="M212.2,74.3c.2-.7,8.4-29.3-4.3-49.3,0,0-31,14.9-33.5,31.6,0,0,21.2,3,22.2,6.9,1,4,15.6,10.7,15.6,10.7Z" fill="#fbfbec" stroke="#000" strokeMiterlimit="10" stroke-width="1.2"/>
      </g>
      <g>
        <path d="M71.8,104.2s-23-51.1,6.1-93.2c0,0,45.9,21.6,48.6,43.5,0,0-27.6,14.9-27.9,19.2-.3,4.3-26.7,30.5-26.7,30.5Z" fill="#f9851c" stroke="#000" strokeMiterlimit="10" stroke-width="1.2"/>
        <path d="M75,74.3c-.2-.7-8.4-29.3,4.3-49.3,0,0,31,14.9,33.5,31.7,0,0-21.2,3-22.2,6.9s-15.6,10.7-15.6,10.7Z" fill="#fbfbec" stroke="#000" strokeMiterlimit="10" stroke-width="1.2"/>
      </g>
      <rect x="69.9" y="54.7" width="149.7" height="103.4" rx="20.3" ry="20.3" fill="#f2f0de" stroke="#000" strokeMiterlimit="10" stroke-width="1.2"/>
      <rect x="81" y="72.1" width="125.9" height="80.7" rx="15.8" ry="15.8" fill="#daf4f7" stroke="#000" strokeMiterlimit="10" stroke-width="1.2"/>
      <path d="M155.9,131.7c0,7.5-6.1,13.6-13.6,13.6s-13.6-6.1-13.6-13.6" fill="none" stroke="#000" stroke-linecap="round" strokeMiterlimit="10" stroke-width="1.2"/>
      <ellipse cx="106" cy="129.5" rx="8.7" ry="5.5" fill="#f9851c" stroke="#000" strokeMiterlimit="10" stroke-width="1.2"/>
      <ellipse cx="181.9" cy="131" rx="8.7" ry="5.5" fill="#f9851c" stroke="#000" strokeMiterlimit="10" stroke-width="1.2"/>
      <circle cx="112.1" cy="209.8" r="5.5" fill="#f9851c" stroke="#000" strokeMiterlimit="10" stroke-width="1.2"/>
      <circle cx="144.7" cy="209.8" r="5.5" fill="#f9851c" stroke="#000" strokeMiterlimit="10" stroke-width="1.2"/>
      <circle cx="174.4" cy="210.7" r="5.5" fill="#f9851c" stroke="#000" strokeMiterlimit="10" stroke-width="1.2"/>
      <path d="M119.9,158.1h48.2s-2.1,18.6-21.7,19.2c-19.5.6-26.5-19.2-26.5-19.2Z" fill="#ddddd0" stroke="#000" strokeMiterlimit="10" stroke-width="1.2"/>
      <polygon points="142.3 29.2 133.8 54.7 150.8 54.7 142.3 29.2" fill="#f9851c" stroke="#000" strokeMiterlimit="10" stroke-width="1.2"/>
      <circle cx="141.9" cy="30.2" r="5.2" fill="#f9851c" stroke="#000" strokeMiterlimit="10" stroke-width="1.2"/>
      <path d="M212.5,182.1c4.5-7.8,17.7-21,39.8-16.3,0,0-4.2,8.4-4,16.3,0,3.2.6,12-.3,22.1-1.3,14.8-6,31.9-22,34.7-27,4.7-41.4.2-38.7-3.4,2.7-3.6,5.8-19.3,5.8-19.3,0,0,7.7-6.1,12.5-14.5,4.8-8.4,2.4-11.9,6.9-19.7Z" fill="#f9851c" stroke="#000" strokeMiterlimit="10" stroke-width="1.2"/>
      <path d="M212.6,182.2c4.5-7.8,17.7-21,39.8-16.3,0,0-4.2,8.4-4,16.3.1,4.4,1.1,11.5-.5,22" fill="#fff" stroke="#000" strokeMiterlimit="10" stroke-width="1.2"/>
      <path d="M273.6,198.1" fill="red" stroke="#000" strokeMiterlimit="10" stroke-width="1.2"/>
      <path d="M213.1,181.5c-.7,1.9,1.5,4.4,5,5.5,1.4.4,2.2,1.1,2.9.7s.7.3.5.7c-1.6,3.9,3.3,9.2,10.9,12,7.6,2.7,12.9,6.7,15.7,3.6" fill="#fff" stroke="#000" strokeMiterlimit="10" stroke-width="1.2"/>
      <g>
        <path d="M109.4,241.5s5.8,2.9,9.7,4.4c4,1.5,13.4,2.7,13.4,2.7l-.7,23.9s-7.2-4.1-12-4.2c-4.8-.1-11.1,4.2-11.1,4.2l.6-31Z" fill="#f2f0de" stroke="#000" strokeMiterlimit="10" stroke-width="1.2"/>
        <g>
          <path d="M103.2,285.4c0-9.6,7.6-17.4,16.9-17.4s16.9,7.8,16.9,17.4" fill="#f2f0de" stroke="#000" strokeMiterlimit="10" stroke-width="1.2"/>
          <line x1="103.2" y1="285.4" x2="137.1" y2="285.4" fill="none" stroke="#000" stroke-linecap="round" strokeMiterlimit="10" stroke-width="1.2"/>
        </g>
      </g>
      <g>
        <path d="M182.9,240.1s-5.1,3.3-9.1,4.9c-4,1.5-13.2,3.3-13.2,3.3v24.4s7.2-4.7,12-4.8c4.8-.1,10.8,4.1,10.8,4.1l-.4-31.9Z" fill="#f2f0de" stroke="#000" strokeMiterlimit="10" stroke-width="1.2"/>
        <g>
          <path d="M189.6,285.3c0-9.6-7.6-17.4-17-17.4-9.4,0-16.9,7.8-16.9,17.5" fill="#f2f0de" stroke="#000" strokeMiterlimit="10" stroke-width="1.2"/>
          <line x1="189.5" y1="285.3" x2="155.7" y2="285.3" fill="none" stroke="#000" stroke-linecap="round" strokeMiterlimit="10" stroke-width="1.2"/>
        </g>
      </g>
    </g>
    <g>
      <path d="M135.2,234.9c.3,1.4,1.2,2.1,3,2.1s1.8-.4,1.8-1.1-.8-1.2-3.5-1.9c-3.2-.8-4.8-1.8-4.8-3.7s2.3-3.6,5.8-3.6,5.8,1.2,6.2,3.6l-4,.6c-.2-1.5-1-2.2-2.5-2.2s-1.8.5-1.8,1.2.8,1.3,3.3,1.8c3.7.8,5.3,1.8,5.3,3.8s-2.3,3.7-6.3,3.7-6.4-1.3-6.9-3.8l4.1-.4Z"/>
      <path d="M158.7,229.1h-4.7v9.8h-4v-9.8h-4.7v-2.2h13.4v2.2Z"/>
    </g>
    <g>
      <path d="M172.7,189.2l14.4-18.7s11.9,16.5-.3,34.1l-12-4.6-2.1-10.8Z" fill="#ddddd0" stroke="#000" strokeMiterlimit="10" stroke-width="1.2"/>
      <path d="M184.3,199.9s-6.8-9.4-19.6,5.8c-12.7,15.3-4.4,20.3-4.4,20.3,0,0,7.4,7.6,19.7-6,12.3-13.6,4.3-20.1,4.3-20.1Z" fill="#ddddd0" stroke="#000" strokeMiterlimit="10" stroke-width="1.2"/>
      <path d="M153.7,243.2l4,3.7s11.8-13.3,2.5-23.1c-9.3-9.8-22.8,2.5-22.8,2.5l3.6,3.7s9.1-9.5,16.1-2.4c7,7-3.4,15.7-3.4,15.7Z" fill="#ddddd0" stroke="#000" strokeMiterlimit="10" stroke-width="1.2"/>
    </g>
    <g>
      <path d="M116.3,189.6l-16-17.6s-10.4,16.8,2.7,33.7l11.7-5.2,1.6-10.9Z" fill="#ddddd0" stroke="#000" strokeMiterlimit="10" stroke-width="1.2"/>
      <path d="M105.2,200.9s6.3-9.8,19.9,4.8c13.5,14.6,5.4,20,5.4,20,0,0-7,7.9-20-5-13-12.9-5.3-19.9-5.3-19.9Z" fill="#ddddd0" stroke="#000" strokeMiterlimit="10" stroke-width="1.2"/>
      <path d="M138.1,242.6l-3.8,3.9s-12.4-12.7-3.7-23c8.8-10.3,22.9,1.3,22.9,1.3l-3.4,3.9s-9.6-9-16.2-1.6c-6.6,7.4,4.2,15.5,4.2,15.5Z" fill="#ddddd0" stroke="#000" strokeMiterlimit="10" stroke-width="1.2"/>
    </g>
    <path d="M115.2,103c0,3.7-4.1,6.8-9.2,6.8s-9.2-3-9.2-6.8" fill="none" stroke="#000" stroke-linecap="round" strokeMiterlimit="10" stroke-width="1.2"/>
    <path d="M191.6,103c0,3.7-4.1,6.8-9.2,6.8s-9.2-3-9.2-6.8" fill="none" stroke="#000" stroke-linecap="round" strokeMiterlimit="10" stroke-width="1.2"/>
    <g>
      <path d="M26.4,234.6" fill="red" stroke="#000" strokeMiterlimit="10" stroke-width="1.1"/>
      <rect x="110" y="253" width="21.5" height="13.3" rx="4.5" ry="4.5" fill="#ddddd0" stroke="#000" stroke-linecap="round" stroke-linejoin="round" stroke-width="1.1"/>
    </g>
  </g>
  <rect x="161.1" y="253.1" width="21.5" height="13.3" rx="4.5" ry="4.5" fill="#ddddd0" stroke="#000" stroke-linecap="round" stroke-linejoin="round" stroke-width="1.1"/>
</svg>