<?xml version="1.0" encoding="UTF-8"?>
<svg id="_レイヤー_1" data-name="レイヤー_1" xmlns="http://www.w3.org/2000/svg" width="400" height="150" version="1.1" viewBox="0 0 400 150">
  <!-- Generator: Adobe Illustrator 29.1.0, SVG Export Plug-In . SVG Version: 2.1.0 Build 142)  -->
  <g>
    <path d="M54.1,54.7l12.5,2.6v-1.4h5.3v1.3l12.5-2.6s1.1-5.3-1.5-5.6c-2.6-.4-24.6-.3-27.1,0-2.5.3-1.7,5.7-1.7,5.7Z" fill="#1a2c5b"/>
    <path d="M84.2,56.2l-6.2,1.4-6.1,1.2v3.6h-5.5v-3.5l-12.2-2.7s0,7.7,0,10.2c0,2.6,1.7,3,1.7,3,0,0,23,0,25.6,0s.9,0,1-.2c.6-.3,1.5-1.1,1.6-2.9,0-2.6,0-10.2,0-10.2Z" fill="#1a2c5b"/>
    <path d="M73.4,43.7h-8.9c-.7,0-1.3.6-1.3,1.4v.6h0v2c0,.2.2.4.4.4h1.2c.2,0,.4-.2.4-.4v-2h7.6v2c0,.2.2.4.4.4h1.2c.2,0,.4-.2.4-.4v-2h0v-.7c0-.8-.6-1.4-1.3-1.4Z" fill="#1a2c5b"/>
  </g>
  <path d="M82.6,46.7l1.8-3.1c3.7-5.6,6.5-12.1,8.2-19l.6-.2,7.8,2.4v.6c-.7,2.6-1.6,5.1-2.5,7.5h16.1l8.4-.2.5.4v7.1l-.5.4-8.4-.2h-19.7c-1.2,2.2-2.5,4.2-4,6.2h4.8c0,.1,9.7.1,9.7.1l5.7-.3,4,3.6c.4.4.7.9.7,1.3s-.2.7-.4.9c-2.8,2.2-6.3,4.7-12.8,9.9-5.2,4.3-7.9,6.7-7.9,7.9s1,2,8,2,10.1-.6,11.2-1.4c1.2-.9,1.7-2.4,1.9-7.1l7.3,3.2c.7.3.7.5.7,1.2-.3,5.3-1.1,7.4-3.3,9-2.8,2-5.3,2.8-19.4,2.8s-16-2.2-16-8.2,1.3-5.7,5-9.3c2.5-2.4,5.5-4.8,9.5-8h-3.9l-7.1.2-.4-.4v-6.1l-5.6-3.3Z" fill="#1a2c5b"/>
  <g>
    <polygon points="151.6 30.3 151.6 24.9 152 24.4 160 24.4 160.4 24.8 160.4 30.3 151.6 30.3" fill="#f9851c"/>
    <path d="M160.9,31.6h19.3c0-.1.4.2.4.2v6.2l-.4.4-8-.2h-.9c-.6,2-1.2,4-2,6h14.3c0-.1.4.2.4.2v6.3l-.4.4-8.3-.2h-37.7l-8.3.2-.4-.5v-6.3l.5-.3h8.2c0,.1,5.7.1,5.7.1-.5-2-1.1-4-1.9-6h-.6l-7.9.2-.4-.5v-6.2l.5-.3h7.8c0,.1,11.1.1,11.1.1h8.8ZM145.7,81.7h-8.3l.3-13.6v-7.3l-.2-6.8.4-.4,8.1.2h21.4l8.1-.2.4.4-.2,6.8v7.6l.3,13.1h-8.5l-21.7.2ZM167.4,60.3h-21.7v5h21.7v-5ZM145.7,65.2v11.4h21.7l-21.7-11.4ZM151,40.2q.7,2,1.3,4h8.4c.8-2,.9-1.9,1.5-4h-11.1Z" fill="#f9851c"/>
  </g>
  <path d="M199.1,81.4c-2.1.2-4.2.3-7.1.3-5.4,0-8-1.7-8-5.5s1.7-4.2,4.1-6c-1.1-1.7-2.3-3.8-3.3-5.7v-.2s2.8-1.5,2.8-1.5h.2c1,2,2.1,4,3.2,5.6,2-1.1,4.3-2.1,6.6-3h.2c0,0,1.3,3.2,1.3,3.2v.2c-2,.7-4.8,2-6.4,2.7-1.3.6-1.8,1-2.7,1.5-1.7,1.1-2.5,2.1-2.5,3.2,0,1.6,1.9,1.9,4.5,1.9s4.2-.2,6.9-.5h.2c0,.1,0,3.5,0,3.5v.2Z" fill="#1a2c5b"/>
  <path d="M207.4,36.8h7.8c0,0,.4.4.4.4-.3,6.8-.6,11.5-.8,17.2-.2,4.8-.6,11-.6,15.3s1.9,5.7,5.2,5.7c6.3,0,13.5-5,18.2-13.5l4.8,6.4c.5.6.6,1,.2,1.8-5.5,8.7-14.1,13.7-22.5,13.7s-14-3.9-14-13.2.4-12.8.6-17.8c.2-4.3.4-9.1.4-15.6l.4-.4Z" fill="#f9851c"/>
  <path d="M250.5,69.9l6.8-2.3.4.2c.9,5.7,3.9,6.6,13.1,6.6s11.8-.5,17.7-1.4l.5.4.8,8.3-.3.5c-6.4.7-13.1.9-19.2.9-16.5,0-19.5-6.7-20.1-12.8l.3-.4ZM256.9,43.2c3.3.3,6.6.5,9.8.5,5.3,0,11.2-.6,17-1.4l.4.3.2,7.8-.4.4c-5.2.9-11.1,1.4-17.2,1.4s-6.7-.2-10-.5l-.4-.4.3-7.8.4-.3Z" fill="#1a2c5b"/>
  <path d="M283.8,27.3s-.2,0-.2,0c-.3,0-.7.2-1,.2s-.4,0-.5-.2-.3-1.4-.3-1.6.1-.3.3-.3c.3,0,1.1-.1,1.3-.3s0-.1.1-.2c0-.3,0-.6.2-.9,0-.3-.5-.5-.7-.6-.3-.2-.8-.4-.5-.8s.6-1,.8-1.2.2-.2.4-.2.9.5,1.1.7.1,0,.2,0c.2,0,.4-.3.5-.3s.4-.2.5-.3,0-.2,0-.2c0-.4-.2-.8-.2-1.2s.3-.3.6-.4.6-.2.9-.2.3,0,.3,0c.2,0,.3.1.3.3.1.3.1.8.2,1.1s.3.2.6.3.6.2.8.1.6-.8.7-1,.3-.3.5-.2,1.1.7,1.3.9.2.2.2.4-.5.8-.7,1.1-.1.3,0,.4.4.5.5.7c.1.2.3.1.5.1.3,0,.7-.2,1-.2s.3.1.3.2c0,.5.2,1,.3,1.5s-.1.4-.3.4c-.3,0-.7.1-1,.2s-.2.2-.3.3-.2.7-.2.8,0,.2.1.2c.3.2.8.4,1,.7s.1.2,0,.4c-.3.4-.6,1-.9,1.4s-.2.2-.3.2c-.3,0-.8-.5-1.1-.7s-.2,0-.4,0-.8.5-.9.6,0,.1,0,.2c0,.3.3,1.1.2,1.3s-.4.2-.6.3c-.3,0-.7.2-1,.2s-.5.1-.6-.3-.1-.8-.2-1.1,0-.1,0-.1c-.1-.1-.5-.2-.7-.2s-.4-.1-.6,0-.5.7-.7.9-.3.5-.6.3-1-.6-1.3-.9-.2-.2-.2-.4c0-.3.6-.8.7-1.1s0-.2,0-.4-.4-.7-.5-.8ZM287.4,23.3c-1,.3-1.7,1.4-1.5,2.4.5,1.9,3.3,2,4,.1s-.9-3-2.5-2.6Z" fill="#1a2c5b"/>
  <path d="M292.1,37.1s-.2,0-.2,0c-.3,0-.7.2-1,.2s-.4,0-.5-.2-.3-1.4-.3-1.6.1-.3.3-.3c.3,0,1.1-.1,1.3-.3s0-.1.1-.2c0-.3,0-.6.2-.9,0-.3-.5-.5-.7-.6-.3-.2-.8-.4-.5-.8s.6-1,.8-1.2.2-.2.4-.2.9.5,1.1.7.1,0,.2,0c.2,0,.4-.3.5-.3s.4-.2.5-.3,0-.2,0-.2c0-.4-.2-.8-.2-1.2s.3-.3.6-.4.6-.2.9-.2.3,0,.3,0c.2,0,.3.1.3.3.1.3.1.8.2,1.1s.3.2.6.3.6.2.8.1.6-.8.7-1,.3-.3.5-.2,1.1.7,1.3.9.2.2.2.4-.5.8-.7,1.1-.1.3,0,.4.4.5.5.7c.1.2.3.1.5.1.3,0,.7-.2,1-.2s.3.1.3.2c0,.5.2,1,.3,1.5s-.1.4-.3.4c-.3,0-.7.1-1,.2s-.2.2-.3.3-.2.7-.2.8,0,.2.1.2c.3.2.8.4,1,.7s.1.2,0,.4c-.3.4-.6,1-.9,1.4s-.2.2-.3.2c-.3,0-.8-.5-1.1-.7s-.2,0-.4,0-.8.5-.9.6,0,.1,0,.2c0,.3.3,1.1.2,1.3s-.4.2-.6.3c-.3,0-.7.2-1,.2s-.5.1-.6-.3-.1-.8-.2-1.1,0-.1,0-.1c-.1-.1-.5-.2-.7-.2s-.4-.1-.6,0-.5.7-.7.9-.3.5-.6.3-1-.6-1.3-.9-.2-.2-.2-.4c0-.3.6-.8.7-1.1s0-.2,0-.4-.4-.7-.5-.8ZM295.7,33.2c-1,.3-1.7,1.4-1.5,2.4.5,1.9,3.3,2,4,.1.5-1.5-.9-3-2.5-2.6Z" fill="#1a2c5b"/>
  <path d="M337,84c-5.1.4-10.4.6-17.4.6-13.2,0-19.6-4-19.6-12.7s4.1-9.8,10-13.9c-2.7-3.9-5.6-8.7-8-13.1v-.6c.1,0,6.8-3.5,6.8-3.5l.6.2c2.4,4.4,5.2,9,7.8,12.8,5-2.5,10.6-4.9,16.1-6.9l.6.2,3.3,7.2-.2.4c-4.8,1.6-11.5,4.5-15.6,6.2-3.2,1.4-4.5,2.2-6.6,3.5-4.3,2.5-6.2,4.8-6.2,7.4,0,3.7,4.7,4.5,11.2,4.5s10.3-.4,17-1.1l.4.3.2,7.9-.3.5Z" fill="#f9851c"/>
  <rect x="54.2" y="94.9" width="284.2" height="33.8" fill="#1a2c5b"/>
  <text transform="translate(101.2 123.6)" fill="#fff" font-family="CoFoSansPixel-Regular, &apos;CoFo Sans Pixel&apos;" font-size="33.9"><tspan x="0" y="0">D A T A B A S E</tspan></text>
</svg>