<?xml version="1.0" encoding="UTF-8"?>
<svg 
id="home_about_charaSvg"
className="home_about_svg"
xmlns="http://www.w3.org/2000/svg"
width="300"
height="300"
version="1.1"
viewBox="0 0 300 300"
>
  <g
  className={`home_about_block_svg ${
    isBlockVisible ? "isVisible" : ""
  }`}
  ref={homeAboutBlockRef}
  >
    <rect x="24.2" y="186.4" width="254.5" height="91.5" rx="16" ry="16" fill="#1a2c5b"/>
    <rect x="25.3" y="195.6" width="251.4" height="91.5" rx="15.9" ry="15.9" fill="none" stroke="#1a2c5b" strokeMiterlimit="10" strokeWidth="3.2"/>
  </g>
  <g
   className={`home_about_block_svg ${
    isBlockVisible ? "isVisible" : ""
  }`}
  ref={homeAboutBlockRef}
  >
    <g>
      <g>
        <g>
          <g>
            <path d="M193.2,126.1h-57.1s-39.6,79.6,28.6,79c68.1-.6,28.6-79,28.6-79h-.1Z" fill="#ddddd0"/>
            <path d="M191,152.1h-54s-37.4,53.3,27,52.9c64.4-.4,27-52.9,27-52.9Z" fill="#c1c1bc"/>
            <g>
              <path d="M107,88.1s-18.6-41.2,4.8-75.2c0,0,37.1,17.4,39.2,35,0,0-22.3,12-22.5,15.5s-21.5,24.6-21.5,24.6h0Z" fill="#f9851c"/>
              <path d="M109.6,64c-.2-.6-6.8-23.6,3.5-39.8,0,0,25,12,27,25.5,0,0-17.1,2.4-17.9,5.6-.8,3.2-12.6,8.6-12.6,8.6h0Z" fill="#fbfbec"/>
            </g>
            <g>
              <path d="M222.8,88.1s18.5-41.3-4.9-75.2c0,0-37.1,17.4-39.2,35.1,0,0,22.3,12,22.5,15.5s21.5,24.6,21.5,24.6h0Z" fill="#f9851c"/>
              <path d="M220.2,64c.2-.6,6.7-23.6-3.5-39.8,0,0-25,12-27,25.5,0,0,17.1,2.4,17.9,5.6.8,3.2,12.6,8.6,12.6,8.6h0Z" fill="#fbfbec"/>
            </g>
            <rect x="103.6" y="48.1" width="120.8" height="83.4" rx="28.5" ry="28.5" fill="#ddddd0"/>
            <rect x="115.1" y="57.3" width="101.6" height="65.1" rx="22.2" ry="22.2" fill="#daf4f7"/>
            <circle cx="139.3" cy="83.7" r="8.6" stroke="#000" strokeMiterlimit="10" strokeWidth="1.4"/>
            <circle cx="143.7" cy="82.6" r="3.6" fill="#fff" stroke="#000" strokeMiterlimit="10" strokeWidth="1.4"/>
            <circle cx="193.9" cy="83.2" r="8.6" stroke="#000" strokeMiterlimit="10" strokeWidth="1.4"/>
            <circle cx="198.6" cy="82.6" r="3.6" fill="#fff" stroke="#000" strokeMiterlimit="10" strokeWidth="1.4"/>
            <path d="M153.7,100.2c0,6.1,4.9,11,11,11s11-4.9,11-11" fill="none" stroke="#000" strokeLinecap="round" strokeMiterlimit="10" strokeWidth="1.4"/>
            <ellipse cx="197.3" cy="104.6" rx="7" ry="4.5" fill="#f9851c"/>
            <ellipse cx="136.1" cy="105.8" rx="7" ry="4.5" fill="#f9851c"/>
            <circle cx="164" cy="173.2" r="4.5" fill="#f9851c"/>
            <circle cx="187.8" cy="172.8" r="4.5" fill="#f9851c"/>
            <circle cx="140.1" cy="174" r="4.5" fill="#f9851c"/>
            <path d="M184,131.6h-38.9s1.7,15,17.5,15.5,21.4-15.5,21.4-15.5h0Z" fill="#c1c1bc"/>
            <polygon points="166 27.6 172.8 48.2 159.1 48.2 166 27.6" fill="#f9851c"/>
            <circle cx="166.3" cy="28.4" r="4.2" fill="#f9851c"/>
            <g>
              <path d="M203.5,157.6l-4.4-17s16.9.7,20.6,17.6l-9.3,4.6-7-5.2h0Z" fill="#c1c1bc"/>
              <path d="M209.8,161.1s2.7,9,16.5.7,8.7-14.3,8.7-14.3c0,0-3.6-7.7-16.6-.6-13,7.1-8.6,14.2-8.6,14.2h0Z" fill="#ddddd0"/>
            </g>
            <path d="M77.3,137.8s3.4,6.8,3.2,13.1c0,2.6-.5,9.6.3,17.8,1.1,11.9,4.9,25.8,17.8,28,21.8,3.8,33.4.2,31.2-2.7-2.2-2.9-4.7-15.5-4.7-15.5,0,0-6.2-4.9-10.1-11.7s-1.9-9.6-5.5-15.9h0s-14.4-16.9-32.2-13.1Z" fill="#f9851c"/>
            <path d="M109.2,150.6c-3.6-6.3-14.3-16.5-32.1-12.7,0,0,3.4,6.8,3.2,13.1s-.9,9.3.4,17.7" fill="#f2f0de"/>
            <g>
              <path d="M124.8,165.1l3.3-17.9s-16.8,1.3-20.2,18.3l9.4,4.4,7.4-4.8h0Z" fill="#c1c1bc"/>
              <path d="M112.1,164.3s9.3-1.3,7.5,14.7c-1.8,15.9-9.4,13.9-9.4,13.9,0,0-8.5,0-7.5-14.8s9.3-13.7,9.3-13.7h0Z" fill="#ddddd0"/>
            </g>
            <path d="M60.1,163.8" fill="red" stroke="#000" strokeMiterlimit="10" strokeWidth="1.4"/>
            <path d="M109.2,150.6c.5,1.6-1.5,3.3-4.3,4.2-1.1.4-1.8.9-2.3.6-.5-.3-.5.3-.4.5,1.3,3.1-2.7,7.4-8.8,9.7-6.1,2.2-10.4,5.4-12.7,2.9" fill="#f2f0de"/>
            <g>
              <path d="M186.9,201.4c-3.2,1.2-10.6,2.6-10.6,2.6v20.1s6.4-4.1,10.3-4.2c3.8,0,9,3.6,9,3.6v-27.2s-5.5,3.9-8.7,5.1Z" fill="#f2f0de"/>
              <g>
                <path d="M199.9,233.7c0-7.8-6.1-14.1-13.7-14.1s-13.7,6.3-13.7,14.1" fill="#c1c1bc"/>
                <path d="M170.2,234.2" fill="none" stroke="#000" strokeLinecap="round" strokeMiterlimit="10" strokeWidth="1.4"/>
                <path d="M197.5,234.2" fill="none" stroke="#000" strokeLinecap="round" strokeMiterlimit="10" strokeWidth="1.4"/>
              </g>
            </g>
            <g>
              <path d="M134.4,198.3s4.5,2.1,7.7,3.4c3.2,1.2,10.7,2.6,10.7,2.6v19s-6-3.7-9.8-3.8c-3.8,0-9,3.4-9,3.4l.4-24.6Z" fill="#f2f0de"/>
              <g>
                <path d="M129.4,233.3c0-7.8,6.1-14.1,13.7-14.1s13.7,6.3,13.7,14.1" fill="#c1c1bc"/>
                <path d="M155.2,233.3" fill="none" stroke="#000" strokeLinecap="round" strokeMiterlimit="10" strokeWidth="1.4"/>
                <path d="M127.8,233.3" fill="none" stroke="#000" strokeLinecap="round" strokeMiterlimit="10" strokeWidth="1.4"/>
              </g>
            </g>
          </g>
          <path d="M248.2,140.6l2.9,2.9s-10.7,12.6-17.4,4,7.8-17,7.8-17l2.3,3.4s-11.5,5.1-6.7,11.5,11.2-4.9,11.2-4.9h-.1Z" fill="#c1c1bc"/>
          <path d="M104,204.1l-4.4-.3s1.2-14.3,12.1-14.4c10.9,0,11.3,14.6,11.3,14.6h-4.2s.4-10.6-7.6-10.7c-8-.1-7.2,10.7-7.2,10.7h0Z" fill="#c1c1bc"/>
        </g>
        <rect x="177.8" y="207.4" width="16" height="9.9" rx="3.4" ry="3.4" fill="#ddddd0"/>
        <rect x="135.4" y="207.9" width="16" height="9.9" rx="3.4" ry="3.4" fill="#ddddd0"/>
      </g>
      <g>
        <path d="M245.7,129.6c.4-.8,1.1-1.2,1.7-.9l2.2,1.1,2.2,1.1c.5.3.7,1.1.3,1.9l-11.9,23.4c-.4.8-1.1,1.2-1.7.9l-4.5-2.3c-.5-.3-.7-1.1-.3-1.9l11.9-23.4h.1Z" fill="#f2f0de"/>
        <g>
          <circle cx="262.7" cy="103" r="30" fill="#c1c1bc"/>
          <circle cx="262.7" cy="103" r="23.3" fill="#fff"/>
        </g>
      </g>
    </g>
    <g isolation="isolate">
      <g isolation="isolate">
        <path d="M66.2,38.8v5.3h-29.3V14.5h11.2v24.3s18.1,0,18.1,0Z" fill="#1a2c5d"/>
      </g>
      <g isolation="isolate">
        <path d="M69.8,89.9c0,10.6-8.3,15.2-20.1,15.2s-20.1-4.5-20.1-15.2,8.3-15.2,20.1-15.2,20.1,4.5,20.1,15.2ZM58,89.9c0-7.5-3-10.2-8.3-10.2s-8.3,2.7-8.3,10.2,3,10.2,8.3,10.2,8.3-2.7,8.3-10.2Z" fill="#1a2c5d"/>
      </g>
      <g isolation="isolate">
        <path d="M69.8,150.5c0,10.6-8.3,15.2-20.1,15.2s-20.1-4.5-20.1-15.2,8.3-15.2,20.1-15.2,20.1,4.5,20.1,15.2ZM58,150.5c0-7.5-3-10.2-8.3-10.2s-8.3,2.7-8.3,10.2,3,10.2,8.3,10.2,8.3-2.7,8.3-10.2Z" fill="#1a2c5d"/>
      </g>
      <g isolation="isolate">
        <path d="M43,204.3c0,1.7-.2,3.1-.4,4.8h.2c1.5-1.6,3.3-3.3,5.1-4.8l10.1-8h13.6l-17.8,12.3,17.8,17.3h-13.5l-11.6-12.3-3.5,2.4v9.9h-11v-29.6h11v8h0Z" fill="#fff"/>
      </g>
    </g>
  </g>
</svg>