<?xml version="1.0" encoding="UTF-8"?>
<svg id="loadingLogo" data-name="loadingLogo" xmlns="http://www.w3.org/2000/svg" width="300" height="300" version="1.1" viewBox="0 0 300 300">
  <!-- Generator: Adobe Illustrator 29.1.0, SVG Export Plug-In . SVG Version: 2.1.0 Build 142)  -->
  <path d="M66.3,219.3c4.2,0,10.9,10.9,29,10.9s25.9-10.9,30.1-10.9,13.7,10.6,20.8,23.6c7.1,13,13.7,26.9,10.8,31.6s-120.5,2.9-123.4,0,3.4-13,11.7-30.4,16.8-24.8,21-24.8Z" fill="#32d4ae"/>
  <circle cx="95.3" cy="176.7" r="39.5" fill="#32d4ae"/>
  <g>
    <path d="M251.4,26.6h-115.1c-7.1,0-12.9,5.8-12.9,12.9v67.8c0,7.1,5.8,12.9,12.9,12.9,0,0,28.4,0,35.7-.1s-35.6,47.1-25.8,39.2,60-39.1,65.5-39.1h39.7c7.1,0,12.9-5.8,12.9-12.9V39.5c0-7.1-5.8-12.9-12.9-12.9Z" fill="none" stroke="#32d4ae" stroke-miterlimit="10" stroke-width="10"/>
    <g>
      <circle cx="147.3" cy="72.3" r="10.6" fill="#32d4ae"/>
      <circle cx="193.8" cy="72.3" r="10.6" fill="#32d4ae" opacity=".5"/>
      <circle cx="240.3" cy="72.3" r="10.6" fill="#32d4ae" opacity=".2"/>
    </g>
  </g>
</svg>