<?xml version="1.0" encoding="UTF-8"?>
<svg 
id="write_chara"
className="write_chara_svg"
xmlns="http://www.w3.org/2000/svg"
width="300"
height="300"
version="1.1"
viewBox="0 0 300 300"
>
   <g
            className={`home_about_write_block_svg ${
              isWriteBlockVisible ? "isVisible" : ""
            }`}
            ref={homeAboutWriteBlockRef}
          >
    <rect x="25" y="191.8" width="252.6" height="90.8" rx="15.9" ry="15.9" fill="#1a2c5b"/>
    <rect x="26.6" y="200.8" width="249.5" height="90.8" rx="15.8" ry="15.8" fill="none" stroke="#1a2c5b" strokeMiterlimit="10" strokeWidth="3.2"/>
  </g>
  <g
  className={`home_about_write_chara_svg ${
            isWriteCharaVisible ? "isVisible" : ""
          }`}
          ref={homeAboutWriteCharaRef}
  >
    <path d="M194.4,151.1c3.7-6.4,14.6-17.3,32.8-13.4,0,0-3.5,6.9-3.3,13.4,0,2.7.5,9.8-.3,18.2-1.1,12.2-5,26.3-18.1,28.6-22.2,3.8-34.1.2-31.9-2.8,2.2-3,4.8-15.9,4.8-15.9,0,0,6.3-5,10.3-11.9,4-6.9,2-9.8,5.7-16.2Z" fill="#f9851c"/>
    <path d="M227.2,137.6c-18.2-3.8-29.1,7-32.8,13.4h0s0,0,0,0c0,0,1.3,3.6,4.1,4.5,1.1.3,1.8.9,2.4.6.6-.3.6.3.4.5-1.3,3.2,2.8,7.6,9,9.8,6.2,2.2,10.9,5.8,13.2,3.2,1.3-8.6.4-14.9.3-18.5-.2-6.5,3.3-13.5,3.3-13.5Z" fill="#f2f0de"/>
  </g>
  <g>
    <g>
      <g>
        <g>
          <g>
            <path d="M167.6,130.8h-56.5s-39.2,78.8,28.3,78.1c67.4-.6,28.3-78.1,28.3-78.1,0,0-.1,0-.1,0Z" fill="#ddddd0"/>
            <path d="M165.5,156.6h-53.4s-37,52.7,26.7,52.3c63.8-.4,26.7-52.3,26.7-52.3Z" fill="#c1c1bc"/>
            <g>
              <path d="M82.4,93.2s-18.4-40.8,4.8-74.4c0,0,36.7,17.2,38.8,34.7,0,0-22,11.9-22.3,15.4s-21.3,24.4-21.3,24.4h0Z" fill="#f9851c"/>
              <path d="M84.9,69.3c-.2-.6-6.7-23.4,3.4-39.3,0,0,24.8,11.9,26.7,25.2,0,0-16.9,2.4-17.7,5.5-.8,3.2-12.5,8.6-12.5,8.6h0Z" fill="#fbfbec"/>
            </g>
            <g>
              <path d="M197,93.2s18.3-40.8-4.8-74.4c0,0-36.7,17.2-38.8,34.7,0,0,22.1,11.9,22.3,15.4s21.3,24.3,21.3,24.3Z" fill="#f9851c"/>
              <path d="M194.4,69.3c.2-.6,6.7-23.4-3.4-39.3,0,0-24.8,11.9-26.7,25.3,0,0,16.9,2.4,17.7,5.5.8,3.2,12.5,8.5,12.5,8.5h-.1Z" fill="#fbfbec"/>
            </g>
            <rect x="79" y="53.8" width="119.5" height="82.5" rx="28.3" ry="28.3" fill="#ddddd0"/>
            <rect x="86.6" y="62.8" width="100.5" height="64.4" rx="22.1" ry="22.1" fill="#daf4f7"/>
            <circle cx="112.7" cy="86.5" r="8.5" stroke="#000" strokeMiterlimit="10" strokeWidth="1.3"/>
            <circle cx="107.8" cy="86.5" r="3.6" fill="#fff" stroke="#000" strokeMiterlimit="10" strokeWidth="1.3"/>
            <circle cx="166.7" cy="86.1" r="8.5" stroke="#000" strokeMiterlimit="10" strokeWidth="1.3"/>
            <circle cx="162.1" cy="86.1" r="3.6" fill="#fff" stroke="#000" strokeMiterlimit="10" strokeWidth="1.3"/>
            <path d="M128.5,105.2c0,6,4.9,10.8,10.8,10.8s10.8-4.9,10.8-10.8" fill="none" stroke="#000" strokeLinecap="round" strokeMiterlimit="10" strokeWidth="1.3"/>
            <ellipse cx="169.2" cy="109.6" rx="6.9" ry="4.4" fill="#f9851c"/>
            <ellipse cx="108.6" cy="110.7" rx="6.9" ry="4.4" fill="#f9851c"/>
            <circle cx="138.7" cy="177.5" r="4.4" fill="#f9851c"/>
            <circle cx="162.3" cy="177" r="4.4" fill="#f9851c"/>
            <circle cx="115.1" cy="178.2" r="4.4" fill="#f9851c"/>
            <path d="M158.6,136.3h-38.5s1.7,14.9,17.3,15.4,21.2-15.4,21.2-15.4Z" fill="#c1c1bc"/>
            <polygon points="140.7 33.4 147.5 53.7 133.9 53.7 140.7 33.4" fill="#f9851c"/>
            <circle cx="141" cy="34.1" r="4.1" fill="#f9851c"/>
            <path d="M35.9,168.2" fill="red" stroke="#000" strokeMiterlimit="10" strokeWidth="1.3"/>
            <g>
              <path d="M166.9,202.8s-4.6,2.3-7.8,3.5-10.7,2.1-10.7,2.1l.5,19.1s5.8-3.3,9.6-3.4c3.8,0,8.9,3.4,8.9,3.4l-.5-24.7h0Z" fill="#f2f0de"/>
              <g>
                <path d="M171.9,237.9c0-7.7-6.1-13.9-13.5-13.9s-13.5,6.2-13.5,13.9" fill="#c1c1bc"/>
                <path d="M144.9,237.9" fill="none" stroke="#000" strokeLinecap="round" strokeMiterlimit="10" strokeWidth="1.3"/>
                <path d="M171.9,237.9" fill="none" stroke="#000" strokeLinecap="round" strokeMiterlimit="10" strokeWidth="1.3"/>
              </g>
            </g>
            <g>
              <path d="M107.5,200.8s4.9,3.6,8,4.8c3.2,1.2,10.6,2.6,10.6,2.6v18.4s-5.9-3.3-9.7-3.4c-3.8,0-8.9,3.4-8.9,3.4v-25.8Z" fill="#f2f0de"/>
              <g>
                <path d="M103,236.9c0-7.7,6.1-13.9,13.5-13.9s13.5,6.2,13.5,13.9" fill="#c1c1bc"/>
                <path d="M130,236.9" fill="none" stroke="#000" strokeLinecap="round" strokeMiterlimit="10" strokeWidth="1.3"/>
                <path d="M103,236.9" fill="none" stroke="#000" strokeLinecap="round" strokeMiterlimit="10" strokeWidth="1.3"/>
              </g>
            </g>
            <g>
              <path d="M178.4,163.5l-4.4-16.8s16.7.7,20.4,17.4l-9.2,4.6-6.9-5.1h0Z" fill="#c1c1bc"/>
              <path d="M184.7,167s2.7,8.9,16.3.7,8.6-14.2,8.6-14.2c0,0-3.6-7.6-16.4-.6-12.9,7-8.5,14.1-8.5,14.1h0Z" fill="#ddddd0"/>
            </g>
          </g>
          <rect x="149.2" y="212.2" width="16.7" height="9.8" rx="3.4" ry="3.4" transform="translate(-6.4 4.8) rotate(-1.7)" fill="#ddddd0"/>
          <rect x="108.7" y="211.6" width="16.2" height="9.8" rx="3.4" ry="3.4" fill="#ddddd0"/>
        </g>
        <g>
          <path d="M100.2,165.4l3.8-17.1s-16.2,1-19.5,17.7l9.3,4.4,6.5-5h-.1Z" fill="#c1c1bc"/>
          <path d="M93.9,170.1s-2.2,9-16.2,1.6c-14-7.5-9.3-13.7-9.3-13.7,0,0,3.2-7.8,16.4-1.5,13.2,6.3,9.2,13.6,9.2,13.6h0Z" fill="#ddddd0"/>
        </g>
      </g>
      <g>
        <path d="M40.6,160.3c0-.3,21.2-15.3,21.2-15.3l-26-36.9-23.3-11,1.7,25.7,26.4,37.4h0Z" fill="#c1c1bc"/>
        <polygon points="14.1 121.4 34.4 107.5 21.1 101.3 13.2 107.5 14.1 121.4" fill="#f2f0de"/>
        <path d="M65,149.7l-21.5,15,3.5,5.1c2.1,3,6.4,3.7,9.4,1.6l10.7-7.5c3-2.1,3.8-6.3,1.6-9.3l-3.7-4.9Z" fill="#f2f0de"/>
        <polygon points="40.6 160.3 43.5 164.7 65 149.7 61.8 145 40.6 160.3" fill="#f2f0de"/>
      </g>
      <path d="M63.7,146.7c4.7,0,10.5,4.6,7.2,13.4-3.3,8.8-18.8,3.3-18.8,3.3l1.8-3.2s10.6,4.8,13.2-1.6c2.6-6.4-5-11.9-3.4-11.9Z" fill="#c1c1bc"/>
      <path d="M222.3,150.8l2.4,3.6s-11.9,7.7-18.5-.8,4.6-17.7,4.6-17.7l2.5,3.3s-8.6,6.1-3.8,12.4c4.7,6.3,12.8-.8,12.8-.8Z" fill="#c1c1bc"/>
    </g>
    <g>
      <g>
        <path d="M251.7,24.4c-.2,2.2-1.8,8.4-2.5,10.6l-2.9,10.2h-15.7l-9.3-29.3h11.4l4.6,15c1,3.3,1.6,5.7,1.8,8.3h.6c.4-2.6,1.1-4.8,2.2-8.3l5-15h10.6l5.2,15c1.2,3.3,1.9,6.1,2.2,8.3h.6c.2-2.3.7-5,1.6-8.3l4.1-15h11.3l-9.3,29.3h-15l-3.4-10.4c-.7-2.1-2.4-8.2-2.6-10.5h-.6,0Z" fill="#1a2c5d"/>
      </g>
      <g>
        <path d="M258.8,92.3l-7-10.7h-4.5v10.7h-10.8v-29.3h15.8c9.7,0,16.5,2.7,16.5,8.6s-2.9,6.6-7.5,7.9l10.1,12.9h-12.6ZM247.3,76.6h3.9c4.3,0,6.9-1.2,6.9-4.3s-2.6-4.4-6.9-4.4h-3.9v8.7Z" fill="#1a2c5d"/>
      </g>
      <g>
        <path d="M257.6,139.3h-11.1v-29.3h11.1v29.3Z" fill="#1a2c5d"/>
      </g>
      <g>
        <path d="M270,162.4h-12.6v23.9h-10.8v-23.9h-12.6v-5.5h36.1v5.5h0Z" fill="#1a2c5d"/>
      </g>
      <g>
        <path d="M267.9,228.2v5.1h-28.8v-29.3h28.2v5.1h-17.4v7h15.6v4.9h-15.6v7.3h18Z" fill="#fff"/>
      </g>
    </g>
  </g>
</svg>