<?xml version="1.0" encoding="UTF-8"?>
<svg id="lookIcon" xmlns="http://www.w3.org/2000/svg" width="50" height="50" version="1.1" viewBox="0 0 50 50">
  <!-- Generator: Adobe Illustrator 29.1.0, SVG Export Plug-In . SVG Version: 2.1.0 Build 142)  -->
  <path d="M13.5,17.8c.2,0,13.2-7.9,13.2-7.9l13.7,22.9.4,15.1-13.4-7-13.9-23.1Z" fill="#ddddd0" stroke="#000" strokeLinecap="round" stroke-linejoin="round" stroke-width=".8"/>
  <polygon points="28.1 41.3 40.4 33.7 40.6 42.3 35.4 45.1 28.1 41.3" fill="#fff" stroke="#000" strokeMiterlimit="10" stroke-width=".8"/>
  <path d="M25.2,7.6l-12.9,8.4-2.5-3.9c-1.1-1.9-.5-4.3,1.4-5.4l6.6-4c1.9-1.1,4.3-.5,5.4,1.3l2.1,3.6Z" fill="#ddddd0" stroke="#000" strokeMiterlimit="10" stroke-width=".8"/>
  <polygon points="13.5 17.8 11.8 15.2 25 7.2 26.7 10 13.5 17.8" fill="#fff" stroke="#000" strokeMiterlimit="10" stroke-width=".8"/>
</svg>