<?xml version="1.0" encoding="UTF-8"?>
<svg id="_レイヤー_1" data-name="レイヤー 1" xmlns="http://www.w3.org/2000/svg" viewBox="0 0 271.1 162.1">
  <defs>
    <style>
      .cls-1 {
        fill: #1a2c5d;
      }

      .cls-2 {
        fill: #f9851c;
        stroke: #1a2c5d;
        strokeMiterlimit: 10;
        stroke-width: 4px;
      }
    </style>
  </defs>
  <path class="cls-2" d="M91.2,2C41.9,2,2,33.5,2,72.4s11.6,39.8,30,52.7l-11.7,33.9,54.1-17.4c5.5.8,11.1,1.3,16.8,1.3,49.3,0,89.2-31.5,89.2-70.4S140.4,2,91.2,2Z"/>
  <g>
    <path class="cls-1" d="M38,43.5c-.6,2-1.5,4-2.5,5.9v20h-2.6v-15.5c-.7,1.1-1.4,2-2.2,2.9-.3-.6-1.1-2.1-1.5-2.8,2.5-2.8,4.8-7,6.2-11.3l2.5.7ZM49.4,50.8c1.7,4.7,4.5,9.4,7.6,12-.7.5-1.6,1.4-2.1,2.2-2.8-2.7-5.3-7.3-7-12.1v9h4.3v2.5h-4.3v5h-2.7v-5h-4.4v-2.5h4.4v-8.8c-1.8,4.8-4.3,9.2-7.2,12-.4-.7-1.3-1.6-1.9-2.1,3.1-2.6,6-7.4,7.7-12.2h-6.4v-2.6h7.9v-5.5h2.7v5.5h8.4v2.6h-6.9Z"/>
    <path class="cls-1" d="M61.5,67.1c1-1.5,1.4-4,1.5-6.4l1.6.3c-.1,2.6-.4,5.3-1.6,6.9l-1.5-.8ZM83.2,61.4c1.1,2.7,3.2,4.8,5.8,5.9-.6.5-1.3,1.5-1.7,2.1-2.7-1.3-4.6-3.6-5.9-6.6-1,2.5-3,4.8-6.7,6.7-.3-.5-1-1.4-1.5-1.8-.1.4-.3.6-.4.8-.4.6-.9.8-1.6.9-.6,0-1.6,0-2.6,0,0-.6-.3-1.6-.6-2.1.9,0,1.7,0,2.1,0s.6,0,.8-.4c.3-.3.5-1.2.6-3.1l-1,.4c-.2-1.1-.8-2.6-1.4-3.8l1.2-.4c.5.9,1,2.1,1.3,3,0-1.1.2-2.4.2-4.1h-8.5v-15.3h10.5v2.3h-3.5v2.1h2.9v1.8c2.8-1.6,5.4-4.7,6.7-7.3h2.4c1.7,2.8,4.5,5.5,7,6.9-.5.6-1,1.6-1.4,2.3-.7-.4-1.4-1-2.1-1.6v1.7h-3.3v2h5.4v7.4h-4.5ZM66.3,61.1c.3,1.7.5,3.9.4,5.3l-1.4.2c0-1.5,0-3.6-.3-5.4h1.3ZM65.5,46v2.1h2.5v-2.1h-2.5ZM65.5,50.3v2.2h2.5v-2.2h-2.5ZM65.5,57h2.5v-2.3h-2.5v2.3ZM68.1,65.7c0-1.3-.5-3.2-1-4.7l1.2-.2c.5,1.5,1,3.4,1.1,4.7l-1.3.3ZM74.1,57s0,.7,0,1c-.2,5.4-.5,8.2-.9,9.7,3.6-1.7,5.3-3.9,6.1-6.2h-4.5v-7.4h5.2v-2h-3.3v-1.7c-.8.7-1.6,1.3-2.4,1.8-.3-.6-.8-1.5-1.2-2.1v.3h-2.9v2.2h2.9v2.1h-2.9v2.3h3.9ZM79.8,59.4c.1-.9.2-1.8.2-2.8v-.6h-2.9v3.3h2.8ZM85.2,49.9c-1.6-1.4-3.1-3.2-4.1-4.8-.9,1.6-2.2,3.3-3.8,4.8h7.9ZM82.4,56.1v.6c0,.9,0,1.8-.1,2.7h3.2v-3.3h-3Z"/>
    <path class="cls-1" d="M104.9,49.7h-10.9v-2.2h10.9v2.2ZM104,67.9h-6.3v1.2h-2.3v-9.8h8.6v8.6ZM103.9,53.6h-8.6v-2.1h8.6v2.1ZM95.4,55.4h8.6v2.1h-8.6v-2.1ZM103.9,45.8h-8.4v-2.1h8.4v2.1ZM97.7,61.5v4.2h4v-4.2h-4ZM114.4,59.1c0,1.7,1.1,6,6.8,8.2-.5.6-1.2,1.7-1.6,2.3-4.1-1.6-6.1-5.2-6.6-6.9-.5,1.8-2.7,5.2-7.3,6.9-.3-.6-1-1.7-1.6-2.2,6.3-2.2,7.5-6.5,7.5-8.3v-4.3h2.8v4.3ZM104.6,62.1c1.3-1.1,2.2-3.1,2.6-5.1l2.4.5c-.4,2.2-1.3,4.5-2.8,5.8l-2.2-1.2ZM119.1,55.8c-1.4-1.3-4-3.1-6.3-4.6-1.1,2.1-3,3.7-6.3,4.8-.3-.6-1-1.6-1.6-2.2,6-1.8,6.7-5.2,6.9-11.3h2.7c-.1,2.4-.3,4.5-.8,6.3,2.5,1.5,5.6,3.4,7.2,4.8l-1.8,2.1ZM109.7,44.9c-.3,2-1.1,4.1-2.4,5.3l-2.1-1c1.1-1,1.9-3,2.2-4.8l2.2.4ZM115.5,61.9c.9-1.3,2-3.6,2.6-5.1l2.7.9c-1,1.8-2.2,3.8-3.1,5l-2.1-.8ZM120.4,45.2c-.9,1.7-2,3.5-2.9,4.7l-2-.8c.8-1.3,1.8-3.3,2.3-4.7l2.6.8Z"/>
    <path class="cls-1" d="M132.6,47.3c-.5,2.4-1.4,7.9-1.4,11.1s0,2.1.2,3.1c.5-1.2,1.1-2.6,1.6-3.7l1.5,1.2c-.8,2.2-1.8,5.4-2.1,6.8,0,.4-.2,1-.1,1.3,0,.3,0,.7,0,1.1l-2.7.2c-.6-2.1-1.1-5.5-1.1-9.5s.9-9.4,1.3-11.7c.1-.7.2-1.6.3-2.4l3.3.3c-.2.5-.5,1.7-.6,2.2ZM139.6,61.9c0,1.3,1,2.4,4.6,2.4s4.8-.2,7.3-.8v3.1c-1.8.4-4.2.6-7.4.6-5,0-7.3-1.7-7.3-4.6s.1-2.2.5-3.6l2.6.2c-.3,1-.4,1.8-.4,2.6ZM150.6,47.1v3c-3.3.3-8.9.4-12.3,0v-3c3.3.5,9.2.4,12.3,0Z"/>
    <path class="cls-1" d="M49.8,92.9c2.4-.7,8.2-2.8,12.5-2.8s9,2.9,9,8-6.7,10.6-16.3,11.1l-1.3-3c7.8-.2,14.4-2.5,14.4-8.1s-2.1-5.2-5.9-5.2-11.8,3.1-14.5,4.2l-1.3-3.3c1.1-.2,2.3-.5,3.4-.9Z"/>
    <path class="cls-1" d="M83.4,91.9c0,1.8,0,4.3.2,6.6.4,4.6,1.6,7.7,3.6,7.7s2.8-3.2,3.4-5.9l2.3,2.7c-1.8,5-3.7,6.7-5.8,6.7s-5.7-2.8-6.5-10.5c-.3-2.6-.3-6.1-.3-7.9s0-2-.2-2.8h3.6c-.1.9-.3,2.4-.3,3.2ZM104,104.3l-3,1.2c-.5-5-2.2-11.5-5.1-15.1l2.9-1c2.7,3.4,4.9,10.1,5.2,14.9Z"/>
    <path class="cls-1" d="M114,89.4c2.1-.2,7.4-.7,12.8-1.1,3.1-.3,6.1-.4,8.1-.5v3c-1.6,0-4.2,0-5.7.4-3.9,1.2-6.5,5.3-6.5,8.8,0,5.3,5,7.1,9.8,7.3l-1.1,3.1c-5.7-.3-11.8-3.3-11.8-9.8s2.6-8,5-9.5c-3,.3-9.8,1-13,1.7l-.3-3.2c1.1,0,2.2,0,2.7-.1Z"/>
  </g>
</svg>