<?xml version="1.0" encoding="UTF-8"?>
<svg 
id="cry_chara_svg" 
className="cry_chara_svg"
xmlns="http://www.w3.org/2000/svg" width="300" height="300" version="1.1" viewBox="0 0 300 300">
  <g>
    <path d="M204.7,183.6c4.3-7.5,17-20.1,38.2-15.6,0,0-4,8-3.8,15.6,0,3.1.6,11.5-.3,21.2-1.3,14.2-5.8,30.7-21.1,33.3-25.9,4.5-39.8.2-37.2-3.2,2.6-3.5,5.6-18.5,5.6-18.5,0,0,7.4-5.9,12-13.9,4.6-8,2.3-11.4,6.6-18.9Z" fill="#f9851c"/>
    <path d="M242.9,168c-21.2-4.5-33.9,8.1-38.2,15.6h0s0,0,0,0c0,0,0,0,0,0h0c-.6,1.9,1.6,4.2,4.8,5.2,1.3.4,2.1,1,2.7.7.7-.3.6.3.5.6-1.5,3.7,3.2,8.8,10.5,11.4,7.3,2.6,12.7,6.2,15.3,3.2,1.5-10,.6-16.9.4-21.1-.2-7.6,3.8-15.6,3.8-15.6Z" fill="#f2f0de"/>
  </g>
  <g>
    <path d="M102.8,154.6h70.8s49,98.7-35.5,97.9c-84.5-.8-35.5-97.9-35.5-97.9h.2Z" fill="#ddddd0"/>
    <path d="M105.5,187.1h66.9s46.4,66.1-33.5,65.6c-80-.5-33.5-65.6-33.5-65.6h.2Z" fill="#c1c1bc"/>
    <path d="M209.6,107.7s23.1-51.1-6-93.2c0,0-45.9,21.6-48.5,43.4,0,0,27.6,15,27.9,19.2.3,4.4,26.6,30.5,26.6,30.5h0v.2Z" fill="#f9851c"/>
    <path d="M206.4,77.7c.3-.6,8.4-29.3-4.4-49.3,0,0-31.1,14.8-33.5,31.6,0,0,21.1,2.9,22.1,6.9,1,4,15.6,10.6,15.6,10.6h.2v.2Z" fill="#f2f0de"/>
    <path d="M66,107.7s-22.9-51.1,6.1-93.2c0,0,45.9,21.6,48.5,43.5,0,0-27.6,14.8-27.9,19.2s-26.8,30.5-26.8,30.5Z" fill="#f9851c"/>
    <path d="M69.2,77.7c-.3-.6-8.4-29.3,4.4-49.3,0,0,31,14.8,33.5,31.6,0,0-21.1,2.9-22.1,6.9s-15.6,10.6-15.6,10.6h-.2v.2Z" fill="#f2f0de"/>
    <rect x="64.1" y="58.2" width="149.8" height="103.3" rx="35.3" ry="35.3" fill="#ddddd0"/>
    <rect x="73.6" y="69.5" width="125.9" height="80.8" rx="27.6" ry="27.6" fill="#daf4f7"/>
    <path d="M174,97.7" fill="#fff" stroke="#000" strokeMiterlimit="10" strokeWidth="1.6"/>
    <path d="M165,97.7" fill="#fff" stroke="#000" strokeMiterlimit="10" strokeWidth="1.6"/>
    <ellipse cx="97.6" cy="128.2" rx="8.7" ry="5.5" fill="#f9851c"/>
    <ellipse cx="173.5" cy="129.7" rx="8.7" ry="5.5" fill="#f9851c"/>
    <circle cx="106.3" cy="213.2" r="5.5" fill="#f9851c"/>
    <circle cx="139" cy="213.2" r="5.5" fill="#f9851c"/>
    <circle cx="168.7" cy="214.1" r="5.5" fill="#f9851c"/>
    <path d="M114,161.6h48.2s-2.1,18.7-21.6,19.2c-19.5.6-26.6-19.2-26.6-19.2Z" fill="#c1c1bc"/>
    <path d="M136.4,32.8l-8.4,25.5h16.9l-8.5-25.5Z" fill="#f9851c"/>
    <circle cx="136.1" cy="33.6" r="5.2" fill="#f9851c"/>
    <path d="M113.4,249.3c4,1.5,12.9,2.7,12.9,2.7v23.7s-7.4-4.2-12.1-4.2-11.1,4.2-11.1,4.2l.5-30.3s6,2.4,9.8,3.9h0Z" fill="#f2f0de"/>
    <path d="M97.4,288.8c0-9.7,7.6-17.4,16.9-17.4s16.9,7.7,16.9,17.4" fill="#c1c1bc"/>
    <path d="M97.4,288.8h33.9" fill="#c1c1bc"/>
    <path d="M168.2,248.3c-4,1.5-13.2,3.2-13.2,3.2v24.7s2.4-4.2,11.8-5c9.4-.8,11,5.2,11,5.2v-33.5s-5.6,4-9.5,5.5h0Z" fill="#f2f0de"/>
    <path d="M183.5,288.8c0-9.7-7.6-17.4-16.9-17.4s-16.9,7.9-16.9,17.4" fill="#c1c1bc"/>
    <path d="M183.5,288.8h-33.9" fill="#c1c1bc"/>
  </g>
  <rect x="105" y="256.2" width="19.8" height="12.3" rx="4.2" ry="4.2" fill="#ddddd0"/>
  <rect x="156.6" y="256.2" width="19.8" height="12.3" rx="4.2" ry="4.2" fill="#ddddd0"/>
  <path d="M187.4,198.3l-5.2-21.9s20.8.8,26,21.6l-11.4,6-9.5-5.5h0l.2-.2Z" fill="#c1c1bc"/>
  <path d="M203,196.7s-11.6-1.1-8.5,18.5c3.1,19.7,12.3,16.8,12.3,16.8,0,0,10.5-.5,8.5-18.7-2.1-18.2-12.3-16.4-12.3-16.4h0v-.2Z" fill="#ddddd0"/>
  <path d="M215.3,248.3l5.5-.5s-2.3-17.6-15.6-17.1c-13.5.5-13.2,18.7-13.2,18.7h5.2c0-.2-1.1-13.4,8.7-13.9,9.8-.6,9.5,12.9,9.5,12.9h0v-.2Z" fill="#c1c1bc"/>
  <path d="M89.4,198.5l4.5-22.1s-20.8,1.3-25.5,22.2l11.4,5.6,9.4-5.8h.2Z" fill="#c1c1bc"/>
  <path d="M73.6,197.2s11.6-1.5,9,18.4c-2.6,19.7-11.9,16.9-11.9,16.9,0,0-10.6-.3-9-18.5,1.6-18.2,11.9-16.8,11.9-16.8Z" fill="#ddddd0"/>
  <path d="M62.6,249.1l-5.5-.5s1.8-17.7,15.3-17.6c13.5.2,13.7,18.4,13.7,18.4h-5.2s.8-13.2-9.2-13.5-9.2,13.1-9.2,13.1h0v.2Z" fill="#c1c1bc"/>
  <path d="M107.1,90.6c0,3.8-4.3,7.1-9.5,7.1s-9.5-3.1-9.5-7.1" fill="none" stroke="#000333" strokeLinecap="round" strokeMiterlimit="10" strokeWidth="1.2"/>
  <path d="M183.7,91.6c0,3.8-4.3,7.1-9.5,7.1s-9.5-3.1-9.5-7.1" fill="none" stroke="#000333" strokeLinecap="round" strokeMiterlimit="10" strokeWidth="1.2"/>
  <path d="M123.8,132.7c0-4.9,5.7-9.1,12.7-9.1s12.7,4,12.7,9.1" fill="none" stroke="#000333" strokeLinecap="round" strokeMiterlimit="10" strokeWidth="1.6"/>
  <path d="M100.7,110.2v-.3c-.2-.2-.2-.4-.3-.5l-4.3-10.7-4.2,10.5c-.2.4-.3.6-.4,1h0c0,.5-.1.9-.1,1.3,0,2.6,2.1,4.8,4.8,4.8s4.8-2.1,4.8-4.8,0-.8-.1-1.2Z" fill="#82c3ff"/>
  <path d="M178.8,110.6v-.3c-.2-.2-.2-.4-.3-.5l-4.3-10.7-4.2,10.5c-.2.4-.3.6-.4,1h0c0,.5-.1.9-.1,1.3,0,2.6,2.1,4.8,4.8,4.8s4.8-2.1,4.8-4.8,0-.8-.1-1.2Z" fill="#82c3ff"/>
</svg>