<?xml version="1.0" encoding="UTF-8"?>
<svg 
id="home_about_charaSvg"
className="home_about_svg"
xmlns="http://www.w3.org/2000/svg"
width="300"
height="300"
version="1.1"
viewBox="0 0 300 300">
  <rect x="29.5" y="180.1" width="254.8" height="91.6" rx="16" ry="16" fill="#1a2c5b"/>
  <rect x="31.2" y="189.2" width="251.6" height="91.6" rx="15.9" ry="15.9" fill="none" stroke="#1a2c5b" strokeMiterlimit="10" strokeWidth="3.2"/>
  <path d="M38.9,69.7c-3-2-7.1.8-4.7,3.4,1.5,1.3,4.1,3.7,5.5,5.1s0,0,0,.2c0,0-.6.4-.7.5-.9.8-1.4,2.1-1,3.3,0,0,.3.7.3.7-1.4.6-2.2,2.2-1.9,3.6s.2.6.3.7c-.2,0-.4.2-.6.4-1.4,1-1.6,3.1-.4,4.3l7.7,6c3.6,2.4,8.8,1.9,11.7-1.4,1-1.1,2.5-3.1,3.2-4.4,1.3-2.7,1-5.2,0-7.9-1.1-3.1-2.3-6.4-3.6-9.5s-.6-1.9-1.5-2.4c-2.1-1.1-3,.4-3,2.7s-1,2.2-.8,3.1l-12.3-9,1.5.5Z" fill="#fff"/>
  <g>
    <g>
      <rect x="89.8" y="124.5" width="33.6" height="10.5" rx="3.4" ry="3.4" transform="translate(92.9 -37.6) rotate(34.7)" fill="#f2f0de"/>
      <rect x="53.3" y="104.2" width="44.7" height="6.9" transform="translate(78 -23.9) rotate(36.1)" fill="#c1c1bc"/>
      <path d="M37.5,68.5c-3.4-2-6.9,2.5-4.1,5.3,1.7,1.4,3.7,2.5,5.4,4s.1.1.2.2c0,0-.6.4-.6.5-1,.9-1.4,2.3-1,3.6,0,.1.3.7.3.8-1.5.6-2.4,2.4-1.9,4s.3.6.3.8c-.2.2-.4.2-.6.4-1.5,1.2-1.6,3.4-.2,4.7l8.5,6.2c4,2.5,9.6,1.7,12.6-2,1.1-1.3,2.7-3.4,3.3-4.9,1.3-3.1.9-5.6-.3-8.6-1.4-3.3-2.8-6.9-4.3-10.1-.4-.9-.8-1.5-1.8-2-2.3-1.1-5,.7-4.8,3.3,0,1,.7,1.8.9,2.7l-12-8.8ZM34.2,71.5c0-1.4,1.3-2.1,2.4-1.4l14.6,10.6c.7.4,1.5-.2,1.3-1l-2-4.9c-.6-1.8,1.8-2.9,2.8-1.3,1.5,3.9,3.4,7.7,4.9,11.6.9,2.4.8,5.1-.7,7.3s-1.7,2.4-2.4,3.3c-2.5,3-7.1,3.7-10.4,1.6l-8.3-6.1c-1-1.2.4-2.8,1.7-2,1.1.7,2.2,1.7,3.3,2.4s1.3.2,1.4-.5-.1-.7-.4-1-.9-.7-1.3-.9c-.9-.7-2.7-1.7-3.4-2.5-1.1-1.3.6-3.3,2.2-2.2s2.2,1.8,3.3,2.5,2-.6,1.2-1.4l-5.1-3.8c-1.1-1.5.5-3.3,2.1-2.3,1.4.8,2.6,2.1,4,2.9.9.5,1.9-.7,1-1.5l-11.8-8.6c-.2-.2-.4-.7-.5-1Z" fill="#f9851c"/>
    </g>
    <g>
      <g>
        <g>
          <path d="M163.9,120.1h58.3s40.4,81.2-29.1,80.6c-69.6-.6-29.1-80.6-29.1-80.6Z" fill="#ddddd0"/>
          <path d="M166.1,146.7h55.1s38.2,54.4-27.6,54c-65.8-.4-27.6-54-27.6-54Z" fill="#c1c1bc"/>
          <g>
            <path d="M251.9,81.3s18.9-42.1-4.9-76.7c0,0-37.8,17.7-40,35.8,0,0,22.7,12.3,23,15.9.3,3.6,22,25.1,22,25.1Z" fill="#f9851c"/>
            <path d="M249.2,56.7c.2-.6,6.9-24.1-3.5-40.6,0,0-25.6,12.2-27.6,26,0,0,17.4,2.5,18.2,5.7.8,3.3,12.8,8.8,12.8,8.8Z" fill="#fbfbec"/>
          </g>
          <g>
            <path d="M133.6,81.3s-18.9-42.1,5-76.7c0,0,37.8,17.8,40,35.8,0,0-22.7,12.3-23,15.8-.3,3.6-22,25.1-22,25.1Z" fill="#f9851c"/>
            <path d="M136.3,56.7c-.2-.6-6.9-24.1,3.6-40.6,0,0,25.5,12.3,27.6,26.1,0,0-17.4,2.4-18.3,5.7-.8,3.3-12.9,8.8-12.9,8.8Z" fill="#fbfbec"/>
          </g>
          <rect x="132.1" y="40.6" width="123.3" height="85.1" rx="29.1" ry="29.1" fill="#ddddd0"/>
          <rect x="139.9" y="49.9" width="103.7" height="66.4" rx="22.7" ry="22.7" fill="#daf4f7"/>
          <circle cx="218.9" cy="76.8" r="8.8"/>
          <circle cx="214.5" cy="75.7" r="3.7" fill="#fff"/>
          <circle cx="163.2" cy="76.4" r="8.8"/>
          <circle cx="158.4" cy="75.7" r="3.7" fill="#fff"/>
          <path d="M204.3,93.7c0,6.2-5,11.2-11.2,11.2s-11.2-5-11.2-11.2" fill="none" stroke="#000" strokeMiterlimit="10" strokeWidth="1.4"/>
          <ellipse cx="159.7" cy="98.2" rx="7.1" ry="4.6" fill="#f9851c"/>
          <ellipse cx="222.2" cy="99.4" rx="7.1" ry="4.6" fill="#f9851c"/>
          <circle cx="193.7" cy="168.2" r="4.6" fill="#f9851c"/>
          <circle cx="169.4" cy="167.8" r="4.6" fill="#f9851c"/>
          <circle cx="218.1" cy="169" r="4.6" fill="#f9851c"/>
          <path d="M173.2,125.7h39.7s-1.8,15.3-17.8,15.8c-16.1.5-21.8-15.8-21.8-15.8Z" fill="#c1c1bc"/>
          <polygon points="191.7 19.6 184.7 40.6 198.7 40.6 191.7 19.6" fill="#f9851c"/>
          <circle cx="191.4" cy="20.4" r="4.3" fill="#f9851c"/>
          <g>
            <path d="M153.4,152.3l4.5-17.3s-17.2.7-21.1,17.9l9.5,4.7,7.1-5.3Z" fill="#c1c1bc"/>
            <path d="M146.9,155.8s-2.8,9.2-16.8.7c-14-8.4-8.9-14.6-8.9-14.6,0,0,3.7-7.9,17-.7,13.3,7.2,8.7,14.5,8.7,14.5Z" fill="#ddddd0"/>
          </g>
          <path d="M249.5,145.4c3.7-6.4,14.6-17.3,32.8-13.4,0,0-3.5,6.9-3.3,13.4,0,2.7.5,9.8-.3,18.2-1.1,12.2-5,26.3-18.1,28.6-22.2,3.8-34.1.2-31.9-2.8,2.2-3,4.8-15.9,4.8-15.9,0,0,6.3-5,10.3-11.9,4-6.9,2-9.8,5.7-16.2Z" fill="#f9851c"/>
          <g>
            <path d="M233.7,159.9l-3.4-18.3s17.1,1.4,20.6,18.7l-9.6,4.5-7.6-4.9Z" fill="#c1c1bc"/>
            <path d="M246.6,159.1s-9.5-1.3-7.7,15c1.8,16.3,9.5,14.2,9.5,14.2,0,0,8.7,0,7.7-15.1-1-15.1-9.5-14-9.5-14Z" fill="#ddddd0"/>
          </g>
          <path d="M299.8,158.6" fill="red"/>
          <path d="M282.3,132c-18.2-3.8-29.1,7-32.8,13.4h0s0,0,0,0c0,0,0,0,0,0h0c-.5,1.6,1.3,3.6,4.1,4.4,1.1.3,1.8.9,2.4.6.6-.3.6.3.4.5-1.3,3.2,2.8,7.6,9,9.8,6.2,2.2,10.9,5.3,13.1,2.8,1.3-8.6.5-14.5.4-18.1-.2-6.5,3.3-13.4,3.3-13.4Z" fill="#f2f0de"/>
          <g>
            <path d="M164.6,194.3s4.8,2.4,8,3.6c3.3,1.2,11,2.2,11,2.2l-.6,19.7s-5.9-3.4-9.9-3.5c-3.9,0-9.1,3.5-9.1,3.5l.5-25.5Z" fill="#f2f0de"/>
            <g>
              <path d="M159.5,230.5c0-7.9,6.2-14.4,13.9-14.4s13.9,6.4,13.9,14.4" fill="#c1c1bc"/>
              <line x1="159.5" y1="230.5" x2="187.4" y2="230.5" fill="#c1c1bc"/>
            </g>
          </g>
          <g>
            <path d="M226,192.2s-5,3.7-8.3,5c-3.3,1.2-10.9,2.7-10.9,2.7v19s6.1-3.4,10-3.5c3.9,0,9.1,3.5,9.1,3.5v-26.6Z" fill="#f2f0de"/>
            <g>
              <path d="M230.6,229.5c0-7.9-6.3-14.4-14-14.4-7.7,0-13.9,6.4-13.9,14.4" fill="#c1c1bc"/>
              <line x1="230.6" y1="229.5" x2="202.7" y2="229.5" fill="#c1c1bc"/>
            </g>
          </g>
        </g>
        <path d="M254.9,199.7l4.5-.3s-1.2-14.6-12.3-14.7c-11.1,0-11.5,14.9-11.5,14.9h4.3s-.4-10.8,7.7-10.9c8.1-.1,7.4,10.9,7.4,10.9Z" fill="#c1c1bc"/>
        <path d="M107.8,134.9l-2.9,3s10.9,12.9,17.8,4.1c6.8-8.8-8-17.3-8-17.3l-2.3,3.5s11.7,5.2,6.9,11.8c-4.9,6.5-11.4-5-11.4-5Z" fill="#c1c1bc"/>
      </g>
      <path d="M178.4,214.4l-9.4-.2c-1.7,0-3.3-1.6-3.2-3.5v-3.2c0-1.9,1.7-3.4,3.6-3.4l9.4.2c1.9,0,3.4,1.6,3.4,3.5v3.2c0,1.9-1.7,3.4-3.7,3.4Z" fill="#ddddd0"/>
      <rect x="208.3" y="203.6" width="16.3" height="10.1" rx="3.5" ry="3.5" fill="#ddddd0"/>
    </g>
  </g>
</svg>