<?xml version="1.0" encoding="UTF-8"?>
<svg xmlns="http://www.w3.org/2000/svg" width="50px" height="50px" version="1.1" viewBox="0 0 227.7 300">
  <!-- Generator: Adobe Illustrator 28.7.3, SVG Export Plug-In . SVG Version: 1.2.0 Build 164)  -->
  <g>
    <g id="guide_x5F_chara">
      <g id="_x0A_question_x5F_chara">
        <g>
          <path d="M182.6,185.2c4.3-7.3,16.7-19.9,37.7-15.4,0,0-4,8-3.8,15.4,0,3,.6,11.3-.3,21-1.3,14-5.7,30.3-20.9,33-25.6,4.5-39.3.2-36.8-3.2,2.5-3.3,5.6-18.3,5.6-18.3,0,0,7.3-5.7,11.9-13.7,4.6-8,2.2-11.3,6.5-18.6v-.2h.1Z" fill="#f9851c"/>
          <path d="M220.3,169.8c-20.9-4.5-33.4,8-37.7,15.4h0c-.6,1.9,1.6,4.1,4.8,5.1,1.3.5,2.1,1,2.7.6.6-.3.6.3.5.6-1.4,3.7,3.2,8.8,10.4,11.3s12.4,6.2,15.1,3.2c1.4-9.9.6-16.7.5-20.9-.2-7.5,3.8-15.4,3.8-15.4h-.1Z" fill="#f2f0de"/>
        </g>
        <path d="M81.9,156.6h69.9s48.4,97.5-35,96.7c-83.4-.8-35-96.7-35-96.7h.2,0Z" fill="#ddddd0"/>
        <path d="M84.5,188.6h66.1s45.9,65.3-33.1,64.8c-79-.5-33.1-64.8-33.1-64.8h.2-.1Z" fill="#c1c1bc"/>
        <path d="M156.8,163.4h-78.2" fill="#ddddd0"/>
        <circle cx="85.3" cy="214.4" r="5.4" fill="#f9851c"/>
        <circle cx="117.8" cy="214.4" r="5.4" fill="#f9851c"/>
        <circle cx="146.9" cy="215.3" r="5.4" fill="#f9851c"/>
        <path d="M93.1,163.4h47.6s-2.1,18.5-21.3,19c-19.3.6-26.3-19-26.3-19Z" fill="#c1c1bc"/>
        <path d="M92.4,250c4,1.4,12.7,2.7,12.7,2.7v23.4s-7.3-4.1-11.9-4.1-11,4.1-11,4.1l.5-29.9s5.9,2.4,9.7,3.8h0Z" fill="#f2f0de"/>
        <path d="M76.5,289c0-9.6,7.5-17.2,16.7-17.2s16.7,7.6,16.7,17.2" fill="#c1c1bc"/>
        <path d="M146.6,249.1c-4,1.4-13.1,3.2-13.1,3.2v24.4s2.4-4.1,11.6-4.9c9.2-.8,10.8,5.1,10.8,5.1v-33.1s-5.6,4-9.4,5.4h0Z" fill="#f2f0de"/>
        <path d="M161.7,289c0-9.6-7.5-17.2-16.7-17.2s-16.7,7.8-16.7,17.2" fill="#c1c1bc"/>
        <rect x="84" y="256.9" width="19.6" height="12.1" rx="4.1" ry="4.1" fill="#ddddd0"/>
        <rect x="135" y="256.9" width="19.6" height="12.1" rx="4.1" ry="4.1" fill="#ddddd0"/>
        <path d="M165.1,199.4l-5.3-22.6s21.5,2.3,25.8,23l-11.5,5.5-9-5.9Z" fill="#c1c1bc"/>
        <path d="M180.8,198.1s-11.5-1.1-8.4,18.3c3,19.4,12.1,16.6,12.1,16.6,0,0,10.4-.5,8.4-18.5-2.1-18-12.1-16.2-12.1-16.2h0v-.2h0Z" fill="#ddddd0"/>
        <path d="M193.1,249.1l5.4-.5s-2.2-17.4-15.4-16.9c-13.4.5-13.1,18.5-13.1,18.5h5.1c0-.2-1.1-13.2,8.6-13.7,9.7-.6,9.4,12.7,9.4,12.7h0v-.2h0Z" fill="#c1c1bc"/>
        <g>
          <path d="M83.1,168.8h.2l67.9-16.8" fill="#ddddd0"/>
          <path d="M174.6,98.4s10-54.5-27.8-87.9c0,0-38.9,31.6-36.3,53.1,0,0,30,7.8,31.3,11.8,1.3,4.1,32.7,22.9,32.7,22.9h0v.2h.1Z" fill="#f9851c"/>
          <path d="M164.4,70.4c.2-.7,1.1-30.1-15.9-46.3,0,0-26.3,21.6-24.7,38.2,0,0,20.9-2.2,22.8,1.4,1.9,3.6,17.5,6.5,17.5,6.5h.2c0,0,0,.2,0,.2Z" fill="#f2f0de"/>
          <path d="M36.7,132.5S2.6,88.9,20.5,41.7c0,0,49.2,9.8,56.8,30.2,0,0-22.9,20.8-22.2,25,.7,4.3-18.4,35.6-18.4,35.6Z" fill="#f9851c"/>
          <path d="M32.7,103c-.5-.5-15-26.2-7.5-48.3,0,0,33.2,6.9,39.6,22.4,0,0-19.6,7.8-19.5,11.9s-12.5,13.9-12.5,13.9h-.2v.2h0Z" fill="#f2f0de"/>
          <rect x="33.4" y="66.2" width="147.9" height="102.1" rx="34.9" ry="34.9" transform="translate(-25 29.2) rotate(-13.9)" fill="#ddddd0"/>
          <rect x="42.8" y="77.8" width="124.4" height="79.8" rx="27.2" ry="27.2" transform="translate(-25.2 28.7) rotate(-13.9)" fill="#daf4f7"/>
          <circle cx="134.7" cy="102.7" r="10.5" stroke="#000" strokeMiterlimit="10"/>
          <circle cx="133.6" cy="98.4" r="4.5" fill="#fff" stroke="#000" strokeMiterlimit="10"/>
          <circle cx="69.9" cy="118" r="10.5" stroke="#000" strokeMiterlimit="10"/>
          <circle cx="68.9" cy="113.9" r="4.5" fill="#fff" stroke="#000" strokeMiterlimit="10"/>
          <ellipse cx="72" cy="144.6" rx="8.6" ry="5.4" transform="translate(-32.6 21.5) rotate(-13.9)" fill="#f9851c"/>
          <ellipse cx="145" cy="127.9" rx="8.6" ry="5.4" transform="translate(-26.5 38.6) rotate(-13.9)" fill="#f9851c"/>
          <path d="M95.7,172.7l46.2-11.4" fill="#c1c1bc"/>
          <path d="M86.5,43.9l-2,26.4,16.2-4-14.2-22.4Z" fill="#f9851c"/>
          <circle cx="86.4" cy="44.7" r="5.1" fill="#f9851c"/>
        </g>
        <g>
          <path d="M114.7,146.9c-7.1,1.3-13.4-1-14.2-5.3" fill="none" stroke="#000" strokeLinecap="round" strokeMiterlimit="10"/>
          <path d="M126,136.7c.8,4.3-4.3,8.8-11.3,10.1" fill="none" stroke="#000" strokeLinecap="round" strokeMiterlimit="10"/>
        </g>
        <path d="M72,182.6s-20.5,1.2-25.3,21.9l11.3,5.6,10-5.7,4-21.8Z" fill="#c1c1bc"/>
        <path d="M57.3,211.3s-7.3,9-19-7c-11.6-15.8-3-20.3-3-20.3,0,0,7.8-7,19.1,7.1,11.3,14.1,2.9,20.1,2.9,20.1Z" fill="#ddddd0"/>
        <path d="M34.3,167.4l4.6-2.8s8.9,15.2-2,22.9-21.7-6.7-21.7-6.7l4.1-3s7,11.1,15.2,5.5c8.2-5.5-.3-15.8-.3-15.8h0v-.2c-.1,0,0,0,0,0Z" fill="#c1c1bc"/>
      </g>
    </g>
  </g>
</svg>