<?xml version="1.0" encoding="UTF-8"?>
<svg 
id="loading_chara" 
className="loading_chara"
data-name="loading_chara" xmlns="http://www.w3.org/2000/svg" width="300" height="300" version="1.1" viewBox="0 0 300 300">
  <g isolation="isolate">
    <g isolation="isolate">
      <path d="M111.9,275.1v2.2h-12.1v-12.2h4.6v10h7.4Z" fill="#1a2c5b"/>
      <path d="M129.7,271.2c0,4.4-3.4,6.2-8.3,6.2s-8.3-1.9-8.3-6.2,3.4-6.2,8.3-6.2,8.3,1.9,8.3,6.2ZM124.8,271.2c0-3.1-1.2-4.2-3.4-4.2s-3.4,1.1-3.4,4.2,1.2,4.2,3.4,4.2,3.4-1.1,3.4-4.2Z" fill="#1a2c5b"/>
      <path d="M147.7,277.3h-4.6l-1.1-2.9h-6l-1.1,2.9h-4.3l5-12.2h7.1l5,12.2ZM139.7,268.4c-.2-.5-.4-1.1-.5-1.7h-.1c-.1.6-.3,1.1-.6,1.7l-1.5,3.9h4.3l-1.5-3.9Z" fill="#1a2c5b"/>
      <path d="M156.5,265.1c5.4,0,8.8,1.9,8.8,5.9s-3.7,6.2-9,6.2h-6.3v-12.2h6.5ZM156.5,275.3c2.5,0,4.2-1.1,4.2-4.1s-1.7-4.1-4.6-4.1h-1.5v8.1h2Z" fill="#1a2c5b"/>
      <path d="M172.9,277.3h-4.6v-12.2h4.6v12.2Z" fill="#1a2c5b"/>
      <path d="M192.4,265.1v12.2h-6.5l-4.1-7.3c-.5-.8-.8-1.7-1.1-2.5h-.2c.3,2,.5,4.8.5,6.5v3.2h-4v-12.2h6.5l4.1,7.3c.5.8.8,1.7,1.1,2.5h.2c-.3-2-.5-4.1-.5-6.2v-3.6h4Z" fill="#1a2c5b"/>
      <path d="M211.5,270.6c0,.5,0,.9,0,1.3,0,3.5-2.7,5.5-7.7,5.5s-8.4-2.1-8.4-6.3,3.1-6.2,8.2-6.2,6.7,1.4,7.4,3.9l-4.6.7c-.2-1.7-1.1-2.5-2.8-2.5s-3.4,1.5-3.4,4.1,1.3,4.4,3.9,4.4,2.9-1,3-2.9h-3.6v-1.9h8Z" fill="#1a2c5b"/>
    </g>
  </g>
  <g>
    <path d="M131.5,168.8h43.9s30.4,61.2-22,60.7-22-60.7-22-60.7h.1Z" fill="#ddddd0" stroke="#000" strokeMiterlimit="10"/>
    <path d="M133.2,188.9h41.5s28.8,41-20.8,40.7-20.8-40.7-20.8-40.7h.1Z" fill="#ddddd0" stroke="#000" strokeLinecap="round" strokeLinejoin="round"/>
    <path d="M197.8,139.7s14.3-31.7-3.7-57.8c0,0-28.5,13.4-30.1,26.9,0,0,17.1,9.3,17.3,11.9.2,2.7,16.5,18.9,16.5,18.9h0Z" fill="#f9851c" stroke="#000" strokeMiterlimit="10"/>
    <path d="M195.8,121.1c.2-.4,5.2-18.2-2.7-30.6,0,0-19.3,9.2-20.8,19.6,0,0,13.1,1.8,13.7,4.3s9.7,6.6,9.7,6.6h.1Z" fill="#fbfbec" stroke="#000" strokeMiterlimit="10"/>
    <path d="M108.7,139.7s-14.2-31.7,3.8-57.8c0,0,28.5,13.4,30.1,27,0,0-17.1,9.2-17.3,11.9s-16.6,18.9-16.6,18.9Z" fill="#f9851c" stroke="#000" strokeMiterlimit="10"/>
    <path d="M110.7,121.1c-.2-.4-5.2-18.2,2.7-30.6,0,0,19.2,9.2,20.8,19.6,0,0-13.1,1.8-13.7,4.3s-9.7,6.6-9.7,6.6h-.1Z" fill="#fbfbec" stroke="#000" strokeMiterlimit="10"/>
    <rect x="107.5" y="109" width="92.9" height="64.1" rx="21.9" ry="21.9" fill="#f2f0de" stroke="#000" strokeMiterlimit="10"/>
    <rect x="113.4" y="116" width="78.1" height="50.1" rx="17.1" ry="17.1" fill="#daf4f7" stroke="#000" strokeMiterlimit="10"/>
    <circle cx="172.9" cy="136.3" r="6.6" stroke="#000" strokeMiterlimit="10"/>
    <circle cx="172.9" cy="133.5" r="2.8" fill="#fff" stroke="#000" strokeMiterlimit="10"/>
    <circle cx="131" cy="135.9" r="6.6" stroke="#000" strokeMiterlimit="10"/>
    <circle cx="131" cy="133.2" r="2.8" fill="#fff" stroke="#000" strokeMiterlimit="10"/>
    <path d="M161.9,149c0,4.7-3.8,8.4-8.4,8.4s-8.4-3.8-8.4-8.4" fill="none" stroke="#000" strokeLinecap="round" strokeMiterlimit="10"/>
    <ellipse cx="128.3" cy="152.4" rx="5.4" ry="3.4" fill="#f9851c" stroke="#000" strokeMiterlimit="10"/>
    <ellipse cx="175.4" cy="153.3" rx="5.4" ry="3.4" fill="#f9851c" stroke="#000" strokeMiterlimit="10"/>
    <circle cx="133.7" cy="205.1" r="3.4" fill="#f9851c" stroke="#000" strokeMiterlimit="10"/>
    <circle cx="154" cy="205.1" r="3.4" fill="#f9851c" stroke="#000" strokeMiterlimit="10"/>
    <circle cx="172.4" cy="205.7" r="3.4" fill="#f9851c" stroke="#000" strokeMiterlimit="10"/>
    <path d="M138.5,173.1h29.9s-1.3,11.6-13.4,11.9c-12.1.4-16.5-11.9-16.5-11.9Z" fill="#ddddd0" stroke="#000" strokeMiterlimit="10"/>
    <path d="M152.4,93.2l-5.2,15.8h10.5l-5.3-15.8Z" fill="#f9851c" stroke="#000" strokeMiterlimit="10"/>
    <circle cx="152.2" cy="93.7" r="3.2" fill="#f9851c" stroke="#000" strokeMiterlimit="10"/>
    <path d="M196,188c2.8-4.8,11-13,24.7-10.1,0,0-2.6,5.2-2.5,10.1,0,2,.4,7.4-.2,13.7-.8,9.2-3.7,19.8-13.7,21.5-16.8,2.9-25.7.1-24-2.1s3.6-12,3.6-12c0,0,4.8-3.8,7.8-9s1.5-7.4,4.3-12.2h0Z" fill="#f9851c" stroke="#000" strokeMiterlimit="10"/>
    <path d="M196.1,188c2.8-4.8,11-13,24.7-10.1,0,0-2.6,5.2-2.5,10.1,0,2.7.7,7.2-.3,13.6" fill="#fff" stroke="#000" strokeMiterlimit="10"/>
    <path d="M196.4,187.6c-.4,1.2,1,2.7,3.1,3.4.9.3,1.4.7,1.8.4s.4.2.3.4c-1,2.4,2,5.7,6.7,7.4s8,4.2,9.8,2.2" fill="#fff" stroke="#000" strokeMiterlimit="10"/>
    <path d="M138.1,227.5c2.5.9,8,1.7,8,1.7v14.7c0,0-4.6-2.6-7.5-2.6s-6.9,2.6-6.9,2.6l.3-18.8s3.7,1.5,6.1,2.4Z" fill="#f2f0de" stroke="#000" strokeMiterlimit="10"/>
    <path d="M138.3,227.5c2.5.9,8,1.7,8,1.7v14.7c0,0-4.6-2.6-7.5-2.6s-6.8,2.6-6.8,2.6v-18.7c.1,0,3.9,1.3,6.3,2.2Z" fill="#f2f0de" stroke="#000" strokeMiterlimit="10"/>
    <path d="M128.2,252c0-6,4.7-10.8,10.5-10.8s10.5,4.8,10.5,10.8" fill="#f2f0de" stroke="#000" strokeMiterlimit="10"/>
    <path d="M128.2,252h21" fill="none" stroke="#000" strokeLinecap="round" strokeMiterlimit="10"/>
    <path d="M172.1,226.9c-2.5.9-8.2,2-8.2,2v15.3s1.5-2.6,7.3-3.1,6.8,3.2,6.8,3.2v-20.8s-3.5,2.5-5.9,3.4Z" fill="#f2f0de" stroke="#000" strokeMiterlimit="10"/>
    <path d="M181.6,252c0-6-4.7-10.8-10.5-10.8s-10.5,4.9-10.5,10.8" fill="#f2f0de" stroke="#000" strokeMiterlimit="10"/>
    <path d="M181.6,252h-21" fill="none" stroke="#000" strokeLinecap="round" strokeMiterlimit="10"/>
  </g>
  <g>
    <g>
      <path d="M145.7,220.5c.3,1.3,1.1,2.1,2.9,2.1s1.7-.4,1.7-1.1-.7-1.2-3.3-1.8c-3-.8-4.6-1.8-4.6-3.6s2.2-3.6,5.6-3.6,5.5,1.2,5.9,3.5l-3.8.6c-.1-1.4-.9-2.2-2.3-2.2s-1.7.5-1.7,1.2.8,1.2,3.2,1.8c3.5.8,5,1.7,5,3.7s-2.2,3.6-6,3.6-6.1-1.3-6.6-3.7l3.9-.3Z"/>
      <path d="M168.1,214.8h-4.5v9.6h-3.8v-9.6h-4.5v-2.2h12.7v2.2Z"/>
    </g>
  </g>
  <rect x="132.9" y="231.8" width="12.3" height="7.6" rx="2.6" ry="2.6" fill="#ddddd0" stroke="#000" strokeLinecap="round" strokeLinejoin="round"/>
  <rect x="164.9" y="231.8" width="12.3" height="7.6" rx="2.6" ry="2.6" fill="#ddddd0" stroke="#000" strokeLinecap="round" strokeLinejoin="round"/>
  <path d="M184,195.9l-3.2-13.6s12.9.5,16.1,13.4l-7.1,3.7-5.9-3.4h0Z" fill="#ddddd0" stroke="#000" strokeMiterlimit="10"/>
  <path d="M193.7,194.9s-7.2-.7-5.3,11.5,7.6,10.4,7.6,10.4c0,0,6.5-.3,5.3-11.6-1.3-11.3-7.6-10.2-7.6-10.2h0Z" fill="#ddddd0" stroke="#000" strokeMiterlimit="10"/>
  <path d="M201.3,226.9l3.4-.3s-1.4-10.9-9.7-10.6c-8.4.3-8.2,11.6-8.2,11.6h3.2c0-.1-.7-8.3,5.4-8.6,6.1-.4,5.9,8,5.9,8h0Z" fill="#ddddd0" stroke="#000" strokeMiterlimit="10"/>
  <path d="M123.2,196l2.8-13.7s-12.9.8-15.8,13.8l7.1,3.5,5.8-3.6h0Z" fill="#ddddd0" stroke="#000" strokeMiterlimit="10"/>
  <path d="M113.4,195.2s7.2-.9,5.6,11.4c-1.6,12.2-7.4,10.5-7.4,10.5,0,0-6.6-.2-5.6-11.5s7.4-10.4,7.4-10.4Z" fill="#ddddd0" stroke="#000" strokeMiterlimit="10"/>
  <path d="M106.6,227.4l-3.4-.3s1.1-11,9.5-10.9,8.5,11.4,8.5,11.4h-3.2s.5-8.2-5.7-8.4-5.7,8.1-5.7,8.1h0Z" fill="#ddddd0" stroke="#000" strokeMiterlimit="10"/>
  <path d="M213.1,13.8h-121.3c-4.5,0-8.2,3.7-8.2,8.2v39.5c0,4.5,3.7,8.2,8.2,8.2h54.3l6.3,10.9,6.3-10.9h54.3c4.5,0,8.2-3.7,8.2-8.2V22c0-4.5-3.7-8.2-8.2-8.2h0Z" fill="#1a2c5b"/>
  <circle cx="124.5" cy="42.6" r="4.6" fill="#fff"/>
  <circle cx="153.7" cy="42.6" r="4.6" fill="#fff"/>
  <circle cx="182.9" cy="42.6" r="4.6" fill="#fff"/>
</svg>