<?xml version="1.0" encoding="UTF-8"?>
<svg id="lookChara" xmlns="http://www.w3.org/2000/svg" width="300" height="300" version="1.1" viewBox="0 0 300 300">
  <!-- Generator: Adobe Illustrator 29.1.0, SVG Export Plug-In . SVG Version: 2.1.0 Build 142)  -->
  <g>
    <rect x="19.2" y="184.8" width="254.5" height="91.5" rx="16" ry="16" fill="#1a2c5b"/>
    <rect x="20.6" y="194" width="251.4" height="91.5" rx="15.9" ry="15.9" fill="none" stroke="#1a2c5b" strokeMiterlimit="10" stroke-width="3.2"/>
  </g>
  <g>
    <g>
      <g>
        <g>
          <g>
            <path d="M188.5,124.5h-57.1s-39.6,79.6,28.6,79c68.1-.6,28.6-79,28.6-79h-.1Z" fill="#ddddd0" stroke="#000" strokeMiterlimit="10" stroke-width="1.4"/>
            <path d="M186.3,150.5h-54s-37.4,53.3,27,52.9c64.4-.4,27-52.9,27-52.9Z" fill="#ddddd0" stroke="#000" strokeLinecap="round" stroke-linejoin="round" stroke-width="1.4"/>
            <g>
              <path d="M102.3,86.5s-18.6-41.2,4.8-75.2c0,0,37.1,17.4,39.2,35,0,0-22.3,12-22.5,15.5s-21.5,24.6-21.5,24.6h0Z" fill="#f9851c" stroke="#000" strokeMiterlimit="10" stroke-width="1.4"/>
              <path d="M104.9,62.4c-.2-.6-6.8-23.6,3.5-39.8,0,0,25,12,27,25.5,0,0-17.1,2.4-17.9,5.6-.8,3.2-12.6,8.6-12.6,8.6h0Z" fill="#fbfbec" stroke="#000" strokeMiterlimit="10" stroke-width="1.4"/>
            </g>
            <g>
              <path d="M218.1,86.5s18.5-41.3-4.9-75.2c0,0-37.1,17.4-39.2,35.1,0,0,22.3,12,22.5,15.5s21.5,24.6,21.5,24.6h0Z" fill="#f9851c" stroke="#000" strokeMiterlimit="10" stroke-width="1.4"/>
              <path d="M215.5,62.4c.2-.6,6.7-23.6-3.5-39.8,0,0-25,12-27,25.5,0,0,17.1,2.4,17.9,5.6.8,3.2,12.6,8.6,12.6,8.6h0Z" fill="#fbfbec" stroke="#000" strokeMiterlimit="10" stroke-width="1.4"/>
            </g>
            <rect x="98.9" y="46.5" width="120.8" height="83.4" rx="28.5" ry="28.5" fill="#f2f0de" stroke="#000" strokeMiterlimit="10" stroke-width="1.4"/>
            <rect x="110.4" y="55.7" width="101.6" height="65.1" rx="22.2" ry="22.2" fill="#daf4f7" stroke="#000" strokeMiterlimit="10" stroke-width="1.4"/>
            <circle cx="134.6" cy="82.1" r="8.6" stroke="#000" strokeMiterlimit="10" stroke-width="1.4"/>
            <circle cx="139" cy="81" r="3.6" fill="#fff" stroke="#000" strokeMiterlimit="10" stroke-width="1.4"/>
            <circle cx="189.2" cy="81.6" r="8.6" stroke="#000" strokeMiterlimit="10" stroke-width="1.4"/>
            <circle cx="193.9" cy="81" r="3.6" fill="#fff" stroke="#000" strokeMiterlimit="10" stroke-width="1.4"/>
            <path d="M149,98.6c0,6.1,4.9,11,11,11s11-4.9,11-11" fill="none" stroke="#000" strokeLinecap="round" strokeMiterlimit="10" stroke-width="1.4"/>
            <ellipse cx="192.6" cy="103" rx="7" ry="4.5" fill="#f9851c" stroke="#000" strokeMiterlimit="10" stroke-width="1.4"/>
            <ellipse cx="131.4" cy="104.2" rx="7" ry="4.5" fill="#f9851c" stroke="#000" strokeMiterlimit="10" stroke-width="1.4"/>
            <circle cx="159.3" cy="171.6" r="4.5" fill="#f9851c" stroke="#000" strokeMiterlimit="10" stroke-width="1.4"/>
            <circle cx="183.1" cy="171.2" r="4.5" fill="#f9851c" stroke="#000" strokeMiterlimit="10" stroke-width="1.4"/>
            <circle cx="135.4" cy="172.4" r="4.5" fill="#f9851c" stroke="#000" strokeMiterlimit="10" stroke-width="1.4"/>
            <path d="M179.3,130h-38.9s1.7,15,17.5,15.5,21.4-15.5,21.4-15.5h0Z" fill="#ddddd0" stroke="#000" strokeMiterlimit="10" stroke-width="1.4"/>
            <polygon points="161.3 26 168.1 46.6 154.4 46.6 161.3 26" fill="#f9851c" stroke="#000" strokeMiterlimit="10" stroke-width="1.4"/>
            <circle cx="161.6" cy="26.8" r="4.2" fill="#f9851c" stroke="#000" strokeMiterlimit="10" stroke-width="1.4"/>
            <g>
              <path d="M198.8,156l-4.4-17s16.9.7,20.6,17.6l-9.3,4.6-7-5.2h0Z" fill="#ddddd0" stroke="#000" strokeMiterlimit="10" stroke-width="1.4"/>
              <path d="M205.1,159.5s2.7,9,16.5.7,8.7-14.3,8.7-14.3c0,0-3.6-7.7-16.6-.6-13,7.1-8.6,14.2-8.6,14.2h0Z" fill="#ddddd0" stroke="#000" strokeMiterlimit="10" stroke-width="1.4"/>
            </g>
            <path d="M104.7,149.3c-3.6-6.3-14.3-16.9-32.1-13.1,0,0,3.4,6.8,3.2,13.1,0,2.6-.5,9.6.3,17.8,1.1,11.9,4.9,25.8,17.8,28,21.8,3.8,33.4.2,31.2-2.7-2.2-2.9-4.7-15.5-4.7-15.5,0,0-6.2-4.9-10.1-11.7s-1.9-9.6-5.5-15.9h0Z" fill="#f9851c" stroke="#000" strokeMiterlimit="10" stroke-width="1.4"/>
            <path d="M104.5,149.4c-3.6-6.3-14.3-16.9-32.1-13.1,0,0,3.4,6.8,3.2,13.1s-.9,9.3.4,17.7" fill="#fff" stroke="#000" strokeMiterlimit="10" stroke-width="1.4"/>
            <g>
              <path d="M120.1,163.5l3.3-17.9s-16.8,1.3-20.2,18.3l9.4,4.4,7.4-4.8h0Z" fill="#ddddd0" stroke="#000" strokeMiterlimit="10" stroke-width="1.4"/>
              <path d="M107.4,162.7s9.3-1.3,7.5,14.7c-1.8,15.9-9.4,13.9-9.4,13.9,0,0-8.5,0-7.5-14.8s9.3-13.7,9.3-13.7h0Z" fill="#ddddd0" stroke="#000" strokeMiterlimit="10" stroke-width="1.4"/>
            </g>
            <path d="M55.4,162.2" fill="red" stroke="#000" strokeMiterlimit="10" stroke-width="1.4"/>
            <path d="M104.2,148.8c.5,1.6-1.2,3.5-4,4.4-1.1.4-1.8.9-2.3.6-.5-.3-.5.3-.4.5,1.3,3.1-2.7,7.4-8.8,9.7-6.1,2.2-10.4,5.4-12.7,2.9" fill="#fff" stroke="#000" strokeMiterlimit="10" stroke-width="1.4"/>
            <g>
              <path d="M187.8,197.2s-4.7,2.3-7.9,3.5-10.8,2.1-10.8,2.1l.6,19.3s5.8-3.3,9.7-3.4c3.8,0,9,3.4,9,3.4l-.5-25h-.1Z" fill="#f2f0de" stroke="#000" strokeMiterlimit="10" stroke-width="1.4"/>
              <g>
                <path d="M192.8,232.6c0-7.8-6.1-14.1-13.7-14.1s-13.7,6.3-13.7,14.1" fill="#f2f0de" stroke="#000" strokeMiterlimit="10" stroke-width="1.4"/>
                <line x1="192.8" y1="232.6" x2="165.5" y2="232.6" fill="none" stroke="#000" strokeLinecap="round" strokeMiterlimit="10" stroke-width="1.4"/>
              </g>
            </g>
            <g>
              <path d="M127.7,195.2s4.9,3.6,8.1,4.9c3.2,1.2,10.7,2.6,10.7,2.6v18.6s-6-3.3-9.8-3.4c-3.8,0-9,3.4-9,3.4v-26.1Z" fill="#f2f0de" stroke="#000" strokeMiterlimit="10" stroke-width="1.4"/>
              <g>
                <path d="M123.1,231.7c0-7.8,6.1-14.1,13.7-14.1s13.7,6.3,13.7,14.1" fill="#f2f0de" stroke="#000" strokeMiterlimit="10" stroke-width="1.4"/>
                <line x1="123.1" y1="231.7" x2="150.5" y2="231.7" fill="none" stroke="#000" strokeLinecap="round" strokeMiterlimit="10" stroke-width="1.4"/>
              </g>
            </g>
          </g>
          <path d="M243.5,139l2.9,2.9s-10.7,12.6-17.4,4,7.8-17,7.8-17l2.3,3.4s-11.5,5.1-6.7,11.5,11.2-4.9,11.2-4.9h-.1Z" fill="#ddddd0" stroke="#000" strokeMiterlimit="10" stroke-width="1.4"/>
          <path d="M99.3,202.5l-4.4-.3s1.2-14.3,12.1-14.4c10.9,0,11.3,14.6,11.3,14.6h-4.2s.4-10.6-7.6-10.7c-8-.1-7.2,10.7-7.2,10.7h0Z" fill="#ddddd0" stroke="#000" strokeMiterlimit="10" stroke-width="1.4"/>
        </g>
        <g isolation="isolate">
          <g isolation="isolate">
            <g isolation="isolate">
              <path d="M145.9,192c.4,1.8,1.5,2.8,3.9,2.8s2.3-.5,2.3-1.5-1-1.6-4.5-2.5c-4-1-6.1-2.4-6.1-4.8s3-4.8,7.4-4.8,7.3,1.6,8,4.6l-5.1.8c-.2-1.9-1.2-2.9-3.1-2.9s-2.2.6-2.2,1.6,1.1,1.6,4.2,2.4c4.7,1.1,6.7,2.3,6.7,4.9s-3,4.8-8,4.8-8.2-1.7-8.8-5l5.2-.5Z"/>
              <path d="M175.9,184.3h-6v12.9h-5.1v-12.9h-6v-2.9h17.1v2.9Z"/>
            </g>
          </g>
        </g>
        <rect x="170.7" y="206.3" width="16" height="9.9" rx="3.4" ry="3.4" fill="#ddddd0" stroke="#000" strokeLinecap="round" stroke-linejoin="round" stroke-width="1.4"/>
        <rect x="129.1" y="206.3" width="16" height="9.9" rx="3.4" ry="3.4" fill="#ddddd0" stroke="#000" strokeLinecap="round" stroke-linejoin="round" stroke-width="1.4"/>
      </g>
      <g>
        <path d="M241,128c.4-.8,1.1-1.2,1.7-.9l2.2,1.1,2.2,1.1c.5.3.7,1.1.3,1.9l-11.9,23.4c-.4.8-1.1,1.2-1.7.9l-4.5-2.3c-.5-.3-.7-1.1-.3-1.9l11.9-23.4h.1Z" fill="#f2f0de" stroke="#000" strokeMiterlimit="10" stroke-width="1.4"/>
        <g>
          <circle cx="258" cy="101.4" r="30" fill="#f2f0de" stroke="#000" strokeMiterlimit="10" stroke-width="1.4"/>
          <circle cx="258" cy="101.4" r="23.3" fill="#fff" stroke="#000" strokeMiterlimit="10" stroke-width="1.4"/>
        </g>
      </g>
    </g>
    <g isolation="isolate">
      <g isolation="isolate">
        <path d="M61.5,37.2v5.3h-29.3V12.9h11.2v24.3s18.1,0,18.1,0Z" fill="#1a2c5d"/>
      </g>
      <g isolation="isolate">
        <path d="M65.1,88.3c0,10.6-8.3,15.2-20.1,15.2s-20.1-4.5-20.1-15.2,8.3-15.2,20.1-15.2,20.1,4.5,20.1,15.2ZM53.3,88.3c0-7.5-3-10.2-8.3-10.2s-8.3,2.7-8.3,10.2,3,10.2,8.3,10.2,8.3-2.7,8.3-10.2Z" fill="#1a2c5d"/>
      </g>
      <g isolation="isolate">
        <path d="M65.1,148.9c0,10.6-8.3,15.2-20.1,15.2s-20.1-4.5-20.1-15.2,8.3-15.2,20.1-15.2,20.1,4.5,20.1,15.2ZM53.3,148.9c0-7.5-3-10.2-8.3-10.2s-8.3,2.7-8.3,10.2,3,10.2,8.3,10.2,8.3-2.7,8.3-10.2Z" fill="#1a2c5d"/>
      </g>
      <g isolation="isolate">
        <path d="M38.3,202.7c0,1.7-.2,3.1-.4,4.8h.2c1.5-1.6,3.3-3.3,5.1-4.8l10.1-8h13.6l-17.8,12.3,17.8,17.3h-13.5l-11.6-12.3-3.5,2.4v9.9h-11v-29.6h11v8h0Z" fill="#fff"/>
      </g>
    </g>
  </g>
</svg>