<?xml version="1.0" encoding="UTF-8"?>
<svg
className="memo_icon_svg"
xmlns="http://www.w3.org/2000/svg" width="200" height="200" version="1.1" viewBox="0 0 1000 1000">
  <g>
    <g>
      <g id="yEJBk1">
        <g>
          <path d="M-316.8,1797.1h-213.3c-10.1-92-20.3-183.7-30.5-276.7h274.2c-10.2,92.5-20.3,184.1-30.4,276.7Z" fill="#1a2c5b"/>
          <path d="M-402.9,1292.2c8.2-21.1,17.2-42,24.2-63.5,4.4-13.4,11.9-18.4,25.1-16.2,35.7,6,71.6,11.1,106.9,18.6,15.7,3.3,26.4,1.7,36.9-11.3,16.1-20,33.9-38.6,51.4-57.3,14.4-15.5,31.4-17.6,45.5-6.6,14.3,11.2,16.1,27.8,4,45.4-22.5,32.9-45.7,65.4-68.2,98.4-11,16.2-25.4,21.8-44.3,17.5-25.5-5.9-51.1-11.6-79.6-18.1-2.2,32.7-4.2,62.9-6.3,94.5h-291.3c3.6-13.7,6.8-27.1,10.6-40.4,10.2-35.6,20.6-71.1,31.2-106.6,7.5-24.9,18.8-33.2,45-34q36.8-1.2,49.8,32.8c6,15.7,12,31.4,21.6,46.5,1.6-12.3,3.2-24.5,4.9-38h24c1.3,12.5,2.6,25,3.9,37.4,1.5.3,3,.7,4.4,1Z" fill="#1a2c5b"/>
          <path d="M-602.8,1414.8H-244.1c0,15.1,1,29.2-.2,43-3.2,35.4-12.7,43.6-47.9,43.6-89.1,0-178.2,0-267.3,0-29.6,0-41.5-11.1-43.2-41.6-.8-14.2-.1-28.4-.1-45.1Z" fill="#1a2c5b"/>
          <path d="M-423.5,1190.3c-41.3.1-75.4-32.9-76.2-73.9-.9-41.2,34.1-76.4,76-76.4,42,0,74.8,32.2,75.4,74.1.6,43-32,76.2-75.2,76.3Z" fill="#1a2c5b"/>
          <path d="M-555.9,1881.5c8.4-20.1,15.7-39.2,24.8-57.5,2-3.9,10.5-6.5,16-6.5,61.4-.4,122.7-.5,184.1.1,5.7,0,14.1,4.3,16.5,9,8.7,17,15.3,35,23.7,54.8h-265Z" fill="#1a2c5b"/>
          <path d="M-400.3,1220.7c-7.7,5.7-15.4,15.8-23.1,15.8-7.9,0-15.7-10-23.5-15.7,1.1-2.2,2.2-4.3,3.3-6.5h38.7c1.5,2.1,3,4.2,4.6,6.4Z" fill="#1a2c5b"/>
        </g>
      </g>
      <g>
        <rect x="-1080" y="254.7" width="668.5" height="441.5" rx="51.3" ry="51.3" fill="none" stroke="#1a2c5b" strokeMiterlimit="10" strokeWidth="30"/>
        <path d="M-1027.7,254.7H-463.8c28.9,0,52.3,23.4,52.3,52.3v14.5h-668.5v-14.5c0-28.9,23.4-52.3,52.3-52.3Z" fill="#1a2c5b"/>
        <path d="M-1027.7,629.4H-463.8c28.9,0,52.3,23.4,52.3,52.3v14.5h-668.5v-14.5c0-28.9,23.4-52.3,52.3-52.3Z" transform="translate(-1491.5 1325.7) rotate(180)" fill="#1a2c5b"/>
        <g>
          <rect x="-947" y="532.4" width="46.7" height="113.1" fill="#1a2c5b"/>
          <rect x="-823.5" y="474.1" width="46.7" height="170" fill="#1a2c5b"/>
          <rect x="-704.6" y="415.6" width="46.7" height="223.6" fill="#1a2c5b"/>
          <rect x="-576.4" y="381" width="46.7" height="263.2" fill="#1a2c5b"/>
        </g>
        <g>
          <path d="M-951.6,938.4h0c14.8,10.2,36.8,8.7,49.3-3.5l167.5-163.8c12.4-12.2,10.5-30.3-4.3-40.5h0c-14.8-10.2-36.8-8.7-49.3,3.5l-167.5,163.8c-12.4,12.2-10.5,30.3,4.3,40.5Z" fill="#1a2c5b"/>
          <rect x="-773.3" y="645.5" width="69.9" height="302.6" rx="316.7" ry="316.7" fill="#1a2c5b"/>
          <path d="M-518.8,935.1h0c14.3-10.7,15.4-28.9,2.4-40.6l-175-158.4c-13-11.8-35.1-12.6-49.4-2h0c-14.3,10.7-15.4,28.9-2.4,40.6l175,158.4c13,11.8,35.1,12.6,49.4,2Z" fill="#1a2c5b"/>
        </g>
        <g>
          <line x1="-957.9" y1="462" x2="-793.5" y2="369.6" fill="none" stroke="#1a2c5b" strokeMiterlimit="10" strokeWidth="10"/>
          <line x1="-846" y1="358" x2="-788.2" y2="368.3" fill="none" stroke="#1a2c5b" strokeMiterlimit="10" strokeWidth="10"/>
          <line x1="-801.8" y1="421.8" x2="-792.4" y2="362.6" fill="none" stroke="#1a2c5b" strokeMiterlimit="10" strokeWidth="10"/>
        </g>
      </g>
      <g id="AO54G7">
        <g>
          <path d="M65.5,1567.9v-304.6c1.9-51.1,44.6-73.1,96.2-72.9,161,.6,322,.2,483.1.3,61.6,0,97.8,36.6,97.8,98.3,0,85.2-.1,170.4,0,255.6,0,58.1-36.8,95.7-94.4,95.8-81.4.2-162.9.6-244.3-.1-15.2-.1-25.6,4.6-35.9,15.3-31.7,32.9-64.2,65.2-96.9,97.1-16.7,16.4-38.1,14-46.8-5.1-3.2-7-3.3-15.8-3.4-23.8-.4-27.3-.1-54.5-.1-83.2-13.5,0-24.1.3-34.6,0-18.7-.8-33.4-.6-55.9-3.6-36.3-.4-64.7-31-64.7-69Z" fill="#1a2c5b"/>
          <path d="M934.5,1721.7c0,68.7-68.7,71.3-127.5,66.6,0,22.1-.4,42.5.1,62.8.4,14.6-1.2,28.2-16.2,34.8-15.5,6.8-27.3-.4-38.2-11.7-24-24.7-49.1-48.4-72.8-73.4-8.6-9-17.5-12-29.6-11.9-64.5.5-129.1.4-193.6.1-39.8-.2-72.8-15.9-72.4-50.6.1-10.6.5-19.5.5-32,0-43,53.9-39,97.6-36.1,61.8,4.1,124,1.2,186,1,84.9-.3,142-58.1,141.8-143.4,0-38.7,1-60.5,0-116s124.2-4.8,124.2,61.5v248.2Z" fill="#1a2c5b"/>
        </g>
      </g>
      <g>
        <path d="M-844.4,33.7c-15,0-139.3-47.8-207.3-69.2-29.2-9.2-60.4-12-89.6-21.2-13.2-4.2-30.9-14.9-33.8-26-5-19-6-38.8,20.8-53.4,73.3-40.1,72.6-123.1-1.3-163.3-31.3-17-28.1-51.1-18.1-61.8,10.1-10.7,28.5-9.4,41.1-5.6,86.8,26.6,173.1,55,259,84.4,11.3,3.9,27.8,16.2,28,24.9,8.1,97.1,16.3,291.2,1.3,291.2Z" fill="#1a2c5b"/>
        <path d="M-585.6-392.6c0,61.4-220.1,80.6-220.1,80.6-11.8-.4-26.2.9-36.9-.5-73.3-9.7-220.4-24.5-220.4-80.5s51.5-65.3,108.1-85.8c6.9-4.8,33.8-4.2,43.2,1.1,58.8,33.3,116.2,32.3,175.3.2,10.7-5.8,30.9-7.2,40-.9,36.3,24.9,110.8,24.5,110.8,85.9Z" fill="#1a2c5b"/>
        <circle cx="-824.3" cy="-633.8" r="156.9" fill="#1a2c5b"/>
        <path d="M-802.6,37.2c15,0,139.3-47.8,207.3-69.2,29.2-9.2,60.4-12,89.6-21.2,13.2-4.2,30.9-14.9,33.8-26,5-19,6-38.8-20.8-53.4-73.3-40.1-72.6-123.1,1.3-163.3,31.3-17,28.1-51.1,18.1-61.8-10.1-10.7-28.5-9.4-41.1-5.6-86.8,26.6-173.1,55-259,84.4-11.3,3.9-27.8,16.2-28,24.9-8.1,97.1-16.3,291.2-1.3,291.2Z" fill="#1a2c5b"/>
        <ellipse cx="-1180.8" cy="-217.9" rx="60.3" ry="73" fill="#1a2c5b"/>
        <ellipse cx="-466.2" cy="-213.3" rx="60.3" ry="70" fill="#1a2c5b"/>
      </g>
      <path d="M471.3-316.4c-4.4,8.9-9,17.7-13.2,26.7-6.2,13.4-12.2,26.9-19.3,42.8h-17c-114.5,0-114.5,29.2,0,29.3,5.4,0,10.9,0,18.7,0-1.5,21-2.9,40.1-4.5,60.9-6.2.3-11.5.7-16.8.7-113.4.1-226.8.2-340.2.2-2.8,0-5.6,0-8.3,0-10.9,0-21.3,2.5-20.7,15.8.5,12.1,10.3,14.1,20.7,14.1,51.1,0,102.3,0,153.4,0,63.9,0,127.9,0,191.8.2,8.7,0,16.2-.9,21.4,10.3,5.1,10.8,15.5,7.2,24.2,1,21.1-15.1,42.4-29.9,65.9-46.4,0,26.9,1.8,51.2-.6,75-1.8,19.1-17.8,28.7-40.8,28.8-62.3.2-124.5,0-186.8,0-86.2,0-172.3,0-258.5,0-35.5,0-47.8-12.5-47.8-48.4,0-176.2,0-352.5,0-528.7,0-35.7,12.3-48.2,47.9-48.2,146.8,0,293.5,0,440.3,0,34.4,0,47.4,12.9,47.4,47.3,0,68.4.3,136.8-.3,205.1,0,10-3.1,20.9-7.9,29.7-15.7,28.6-32.9,56.5-49.6,84.7,1.3-18.6-2.3-23.2-20.7-23.2-126.2-.2-252.4,0-378.7,0-10.7,0-21.6,1.6-21.6,15,0,13.4,10.8,14.8,21.5,14.8,126.2,0,252.4.1,378.7-.3,7.1,0,14.1-4.6,21.2-7.1ZM260.8-613.3c-62.7,0-125.5,0-188.2,0-11.3,0-22.9.9-22.8,15.3.1,13.1,11.1,14.7,21.8,14.7,126,0,252,0,378,0,10.7,0,21.7-1.3,21.9-14.5.2-14.4-11.3-15.4-22.7-15.4-62.7,0-125.5,0-188.2,0ZM261.1-492.3c54.5,0,109,0,163.4,0,7.8,0,15.6,0,23.3,0,10.9.2,23.4.4,23.7-14.1.3-16-13.1-15-24.3-15-1.7,0-3.3,0-5,0-93.4-.2-186.7-.4-280.1-.5-31.1,0-62.3.3-93.4.3-10,0-18.6,3.1-18.9,14.2-.3,12.3,8.8,15.3,19.5,15.1,3.9,0,7.8,0,11.7,0,60,0,120.1,0,180.1,0ZM261.3-402c54.5,0,109,0,163.4,0,7.8,0,15.6,0,23.3,0,10.9.2,23.4.4,23.7-14.1.3-16-13.1-15-24.3-15-1.7,0-3.3,0-5,0-93.4-.2-186.7-.4-280.1-.5-31.1,0-62.3.3-93.4.3-10,0-18.6,3.1-18.9,14.2-.3,12.3,8.8,15.3,19.5,15.1,3.9,0,7.8,0,11.7,0,60,0,120.1,0,180.1,0ZM192.1-218c37.5,0,74.9,0,112.4,0,5.4,0,10.7,0,16.1,0,7.5.2,16.1.4,16.3-14.1.2-16-9-15-16.7-15-1.1,0-2.3,0-3.4,0-64.2-.2-128.5-.4-192.7-.5-21.4,0-42.8.3-64.2.3-6.9,0-12.8,3.1-13,14.2-.2,12.3,6.1,15.3,13.4,15.1,2.7,0,5.4,0,8,0,41.3,0,82.6,0,123.9,0Z"/>
      <g>
        <path d="M616.2,120.4H168.2c-40.5,0-73.4,32.9-73.4,73.4v612.4c0,40.5,32.9,73.4,73.4,73.4h448c40.5,0,73.4-32.9,73.4-73.4V193.8c0-40.5-32.9-73.4-73.4-73.4ZM130.5,201.7c0-13.2,10.7-24,24-24h470c13.2,0,24,10.7,24,24v9.9c0,13.2-10.7,24-24,24H154.5c-13.2,0-24-10.7-24-24v-9.9ZM649.9,430v9.9c0,13.2-10.7,24-24,24H155.8c-13.2,0-24-10.7-24-24v-9.9c0-13.2,10.7-24,24-24h470c13.2,0,24,10.7,24,24ZM130.5,315.8c0-13.2,10.7-24,24-24h470c13.2,0,24,10.7,24,24v9.9c0,13.2-10.7,24-24,24H154.5c-13.2,0-24-10.7-24-24v-9.9ZM131.9,544.2c0-13.2,10.7-24,24-24h470c13.2,0,24,10.7,24,24v9.9c0,13.2-10.7,24-24,24H155.8c-13.2,0-24-10.7-24-24v-9.9ZM133.2,658.3c0-13.2,10.7-24,24-24h470c13.2,0,24,10.7,24,24v9.9c0,13.2-10.7,24-24,24H157.2c-13.2,0-24-10.7-24-24v-9.9ZM656.7,782.4c0,13.2-10.7,24-24,24H162.7c-13.2,0-24-10.7-24-24v-9.9c0-13.2,10.7-24,24-24h470c13.2,0,24,10.7,24,24v9.9Z" fill="#1a2c5b"/>
        <g>
          <path d="M826,770.6c-19-2.2-37.5-4.4-56.4-6.7s-24.8-14.9-23.1-29.4c17.2-143.5,34.3-286,51.5-430,1.7-14.5,14.9-24.8,29.4-23.1,18.9,2.3,37.5,4.5,56.4,6.8,14.5,1.7,24.8,14.9,23.1,29.4-17.2,143.4-34.2,285.5-51.5,429.9-1.7,14.5-14.9,24.8-29.3,23.1Z" fill="#1a2c5b"/>
          <path d="M890,267.1c-22.6-2.7-44.7-5.4-67.3-8.1-11.4-1.4-19.6-11.7-18.2-23.1s1.1-9.6,1.7-14.4c1.4-11.4,11.7-19.5,23.1-18.2,22.6,2.7,44.6,5.3,67.3,8,11.4,1.4,19.5,11.7,18.2,23.1-.6,4.8-1.1,9.6-1.7,14.5-1.3,11.4-11.7,19.6-23.1,18.3Z" fill="#1a2c5b"/>
          <path d="M778.3,871.8c-9.3-30.8-17.4-57.6-26.1-86.5-.8-2.5,1.3-5,4-4.6,25.9,3.5,49.7,6.7,75.9,10.3,2.6.4,4,3.3,2.5,5.6-16.7,25.6-32.2,49.3-49.8,76.3-1.7,2.6-5.6,2-6.5-.9Z" fill="#1a2c5b"/>
        </g>
      </g>
    </g>
  </g>
</svg>