<?xml version="1.0" encoding="UTF-8"?>
<svg xmlns="http://www.w3.org/2000/svg" width="352.8mm" height="352.8mm" version="1.1" viewBox="0 0 1000 1000">
  <!-- Generator: Adobe Illustrator 28.7.4, SVG Export Plug-In . SVG Version: 1.2.0 Build 166)  -->
  <g>
    <g id="_レイヤー_1" data-name="レイヤー_1">
      <g id="yEJBk1">
        <g>
          <path d="M577.7,836.4h-213.3c-10.1-92-20.3-183.7-30.5-276.7h274.2c-10.2,92.5-20.3,184.1-30.4,276.7Z" fill="#1a2c5b"/>
          <path d="M491.6,331.4c8.2-21.1,17.2-42,24.2-63.5,4.4-13.4,11.9-18.4,25.1-16.2,35.7,6,71.6,11.1,106.9,18.6,15.7,3.3,26.4,1.7,36.9-11.3,16.1-20,33.9-38.6,51.4-57.3,14.4-15.5,31.4-17.6,45.5-6.6,14.3,11.2,16.1,27.8,4,45.4-22.5,32.9-45.7,65.4-68.2,98.4-11,16.2-25.4,21.8-44.3,17.5-25.5-5.9-51.1-11.6-79.6-18.1-2.2,32.7-4.2,62.9-6.3,94.5h-291.3c3.6-13.7,6.8-27.1,10.6-40.4,10.2-35.6,20.6-71.1,31.2-106.6,7.5-24.9,18.8-33.2,45-34q36.8-1.2,49.8,32.8c6,15.7,12,31.4,21.6,46.5,1.6-12.3,3.2-24.5,4.9-38h24c1.3,12.5,2.6,25,3.9,37.4,1.5.3,3,.7,4.4,1Z" fill="#1a2c5b"/>
          <path d="M291.8,454.1h358.7c0,15.1,1,29.2-.2,43-3.2,35.4-12.7,43.6-47.9,43.6-89.1,0-178.2,0-267.3,0-29.6,0-41.5-11.1-43.2-41.6-.8-14.2-.1-28.4-.1-45.1Z" fill="#1a2c5b"/>
          <path d="M471,229.6c-41.3.1-75.4-32.9-76.2-73.9-.9-41.2,34.1-76.4,76-76.4,42,0,74.8,32.2,75.4,74.1.6,43-32,76.2-75.2,76.3Z" fill="#1a2c5b"/>
          <path d="M338.6,920.8c8.4-20.1,15.7-39.2,24.8-57.5,2-3.9,10.5-6.5,16-6.5,61.4-.4,122.7-.5,184.1.1,5.7,0,14.1,4.3,16.5,9,8.7,17,15.3,35,23.7,54.8h-265Z" fill="#1a2c5b"/>
          <path d="M494.2,260c-7.7,5.7-15.4,15.8-23.1,15.8-7.9,0-15.7-10-23.5-15.7,1.1-2.2,2.2-4.3,3.3-6.5h38.7c1.5,2.1,3,4.2,4.6,6.4Z" fill="#1a2c5b"/>
        </g>
      </g>
    </g>
  </g>
</svg>