<?xml version="1.0" encoding="UTF-8"?>
<svg 
xmlns="http://www.w3.org/2000/svg"
id="Question_icon"
className="Question_icon"
width="50" height="50" version="1.1" viewBox="0 0 50 50">
  <g>
    <g >
      <g id="RALyQ5">
        <g>
          <path d="M25.1,35.2c-1,0-2,0-3,0-.6,0-.9-.3-1-.8-.1-2.5-.2-5,.9-7.4,1-2.1,2.6-3.6,4.5-5,1.2-.9,2.5-1.7,3.6-2.8,1.3-1.2,2-2.7,2.2-4.4.2-2.3-.7-4.1-2.7-5.3-2.3-1.4-4.9-1.7-7.4-.7-2.7,1-4,3.1-4.5,5.8-.2,1-.5,1.2-1.5,1.1-1.8-.3-3.6-.6-5.4-.8-1.1-.2-1.3-.4-1.1-1.5.7-5,3.4-8.6,8-10.5,5.8-2.4,11.6-2.3,17.2.7,3.6,2,5.8,5.1,6.1,9.3.3,5.1-1.7,9.2-5.9,12.1-1.1.7-2.2,1.5-3.3,2.3-1.8,1.3-2.8,3.1-2.7,5.4,0,.5,0,1,0,1.5,0,.7-.3,1.1-1.1,1.1-1,0-2,0-3,0Z" fill="#1a2c5d"/>
          <path d="M30.2,43.3c.1,2.6-2,4.8-4.6,5-2.6.1-4.9-1.9-5-4.6-.2-2.7,1.9-5,4.6-5.1,2.7-.1,4.9,1.9,5.1,4.7Z" fill="#1a2c5d"/>
        </g>
      </g>
    </g>
  </g>
</svg>