<?xml version="1.0" encoding="UTF-8"?>
<svg 
className="slide_svg"
xmlns="http://www.w3.org/2000/svg" width="200" height="200" version="1.1" viewBox="0 0 1000 1000">
        <g>
          <path d="M2386,613.7h-213.3c-10.1-92-20.3-183.7-30.5-276.7h274.2c-10.2,92.5-20.3,184.1-30.4,276.7Z" fill="#1a2c5b"/>
          <path d="M2299.9,108.7c8.2-21.1,17.2-42,24.2-63.5,4.4-13.4,11.9-18.4,25.1-16.2,35.7,6,71.6,11.1,106.9,18.6,15.7,3.3,26.4,1.7,36.9-11.3,16.1-20,33.9-38.6,51.4-57.3,14.4-15.5,31.4-17.6,45.5-6.6,14.3,11.2,16.1,27.8,4,45.4-22.5,32.9-45.7,65.4-68.2,98.4-11,16.2-25.4,21.8-44.3,17.5-25.5-5.9-51.1-11.6-79.6-18.1-2.2,32.7-4.2,62.9-6.3,94.5h-291.3c3.6-13.7,6.8-27.1,10.6-40.4,10.2-35.6,20.6-71.1,31.2-106.6,7.5-24.9,18.8-33.2,45-34q36.8-1.2,49.8,32.8c6,15.7,12,31.4,21.6,46.5,1.6-12.3,3.2-24.5,4.9-38h24c1.3,12.5,2.6,25,3.9,37.4,1.5.3,3,.7,4.4,1Z" fill="#1a2c5b"/>
          <path d="M2100.1,231.3h358.7c0,15.1,1,29.2-.2,43-3.2,35.4-12.7,43.6-47.9,43.6-89.1,0-178.2,0-267.3,0-29.6,0-41.5-11.1-43.2-41.6-.8-14.2-.1-28.4-.1-45.1Z" fill="#1a2c5b"/>
          <path d="M2279.4,6.9c-41.3.1-75.4-32.9-76.2-73.9-.9-41.2,34.1-76.4,76-76.4,42,0,74.8,32.2,75.4,74.1.6,43-32,76.2-75.2,76.3Z" fill="#1a2c5b"/>
          <path d="M2146.9,698c8.4-20.1,15.7-39.2,24.8-57.5,2-3.9,10.5-6.5,16-6.5,61.4-.4,122.7-.5,184.1.1,5.7,0,14.1,4.3,16.5,9,8.7,17,15.3,35,23.7,54.8h-265Z" fill="#1a2c5b"/>
          <path d="M2302.5,37.3c-7.7,5.7-15.4,15.8-23.1,15.8-7.9,0-15.7-10-23.5-15.7,1.1-2.2,2.2-4.3,3.3-6.5h38.7c1.5,2.1,3,4.2,4.6,6.4Z" fill="#1a2c5b"/>
        </g>
      </g>
      <g>
        <rect x="184.8" y="109.2" width="668.5" height="441.5" rx="51.3" ry="51.3" fill="none" stroke="#1a2c5b" strokeMiterlimit="10" strokeWidth="30"/>
        <path d="M237,109.2h563.9c28.9,0,52.3,23.4,52.3,52.3v14.5H184.8v-14.5c0-28.9,23.4-52.3,52.3-52.3Z" fill="#1a2c5b"/>
        <path d="M237,483.9h563.9c28.9,0,52.3,23.4,52.3,52.3v14.5H184.8v-14.5c0-28.9,23.4-52.3,52.3-52.3Z" transform="translate(1038 1034.7) rotate(180)" fill="#1a2c5b"/>
        <g>
          <rect x="317.8" y="386.9" width="46.7" height="113.1" fill="#1a2c5b"/>
          <rect x="441.2" y="328.6" width="46.7" height="170" fill="#1a2c5b"/>
          <rect x="560.1" y="270" width="46.7" height="223.6" fill="#1a2c5b"/>
          <rect x="688.4" y="235.5" width="46.7" height="263.2" fill="#1a2c5b"/>
        </g>
        <g>
          <path d="M313.2,792.9h0c14.8,10.2,36.8,8.7,49.3-3.5l167.5-163.8c12.4-12.2,10.5-30.3-4.3-40.5h0c-14.8-10.2-36.8-8.7-49.3,3.5l-167.5,163.8c-12.4,12.2-10.5,30.3,4.3,40.5Z" fill="#1a2c5b"/>
          <rect x="491.5" y="500" width="69.9" height="302.6" rx="35" ry="35" fill="#1a2c5b"/>
          <path d="M745.9,789.5h0c14.3-10.7,15.4-28.9,2.4-40.6l-175-158.4c-13-11.8-35.1-12.6-49.4-2h0c-14.3,10.7-15.4,28.9-2.4,40.6l175,158.4c13,11.8,35.1,12.6,49.4,2Z" fill="#1a2c5b"/>
        </g>
        <g>
          <line x1="306.8" y1="316.5" x2="471.3" y2="224.1" fill="none" stroke="#1a2c5b" strokeMiterlimit="10" strokeWidth="10"/>
          <line x1="418.8" y1="212.5" x2="476.5" y2="222.8" fill="none" stroke="#1a2c5b" strokeMiterlimit="10" strokeWidth="10"/>
          <line x1="463" y1="276.2" x2="472.4" y2="217.1" fill="none" stroke="#1a2c5b" strokeMiterlimit="10" strokeWidth="10"/>
        </g>
</svg>