<?xml version="1.0" encoding="UTF-8"?>
<svg 
xmlns="http://www.w3.org/2000/svg" 
className="stop_chara_svg"
width="300" height="300" version="1.1" viewBox="0 0 300 300">
  <g>
    <g id="stop_x5F_chara">
      <g>
        <path d="M197.3,184.8c4.5-7.6,17.4-20.7,39.3-16.1,0,0-4.1,8.3-4,16.1,0,3.2.7,11.8-.3,21.9-1.3,14.6-6,31.5-21.7,34.4-26.7,4.6-41,.2-38.3-3.3,2.7-3.5,5.8-19.1,5.8-19.1,0,0,7.6-6,12.4-14.3,4.8-8.3,2.3-11.8,6.8-19.4v-.2Z" fill="#f9851c"/>
        <path d="M236.6,168.7c-21.7-4.6-34.8,8.3-39.3,16.1h0c-.7,2,1.7,4.3,5,5.3,1.3.5,2.2,1,2.8.7.7-.3.7.3.5.7-1.5,3.8,3.3,9.1,10.8,11.8,7.5,2.7,12.9,6.5,15.8,3.3,1.5-10.3.7-17.4.5-21.7-.2-7.8,4-16.1,4-16.1h0Z" fill="#f2f0de"/>
      </g>
      <g>
        <path d="M92.4,154.9h72.9s50.4,101.6-36.5,100.7c-87-.8-36.5-100.7-36.5-100.7h.2,0Z" fill="#ddddd0"/>
        <path d="M95.1,188.2h68.9s47.8,68-34.5,67.5c-82.3-.5-34.5-67.5-34.5-67.5h.2Z" fill="#c1c1bc"/>
        <path d="M202.4,106.6s23.7-52.6-6.1-95.9c0,0-47.3,22.2-49.9,44.6,0,0,28.4,15.4,28.7,19.7.3,4.5,27.4,31.4,27.4,31.4h0v.2Z" fill="#f9851c"/>
        <path d="M199.1,75.7c.3-.7,8.6-30.2-4.5-50.8,0,0-32,15.3-34.5,32.5,0,0,21.7,3,22.7,7.1,1,4.1,16.1,11,16.1,11h.2v.2Z" fill="#f2f0de"/>
        <path d="M54.4,106.6s-23.6-52.6,6.3-95.9c0,0,47.3,22.2,49.9,44.8,0,0-28.4,15.3-28.7,19.7-.3,4.5-27.5,31.4-27.5,31.4Z" fill="#f9851c"/>
        <path d="M57.7,75.7c-.3-.7-8.6-30.2,4.5-50.8,0,0,31.9,15.3,34.5,32.5,0,0-21.7,3-22.7,7.1s-16.1,11-16.1,11h-.2v.2Z" fill="#f2f0de"/>
        <rect x="52.6" y="55.7" width="154.2" height="106.4" rx="36.3" ry="36.3" fill="#ddddd0"/>
        <rect x="62.4" y="67.3" width="129.6" height="83.1" rx="28.4" ry="28.4" fill="#daf4f7"/>
        <circle cx="161" cy="101" r="11" stroke="#000" strokeMiterlimit="10"/>
        <circle cx="161" cy="96.3" r="4.6" fill="#fff" stroke="#000" strokeMiterlimit="10"/>
        <circle cx="91.6" cy="100.3" r="11" stroke="#000" strokeMiterlimit="10"/>
        <circle cx="91.6" cy="95.8" r="4.6" fill="#fff" stroke="#000" strokeMiterlimit="10"/>
        <text/>
        <ellipse cx="165.1" cy="129.2" rx="9" ry="5.6" fill="#f9851c"/>
        <circle cx="95.9" cy="215.1" r="5.6" fill="#f9851c"/>
        <circle cx="129.8" cy="215.1" r="5.6" fill="#f9851c"/>
        <circle cx="160.1" cy="216.1" r="5.6" fill="#f9851c"/>
        <path d="M104,162h49.6s-2.2,19.2-22.2,19.7c-20.1.7-27.4-19.7-27.4-19.7Z" fill="#c1c1bc"/>
        <path d="M126.9,29.4l-8.6,26.2h17.4l-8.8-26.2Z" fill="#f9851c"/>
        <circle cx="126.6" cy="30.3" r="5.3" fill="#f9851c"/>
        <path d="M103.4,252.3c4.1,1.5,13.3,2.8,13.3,2.8v24.4s-7.6-4.3-12.4-4.3-11.5,4.3-11.5,4.3l.5-31.2s6.1,2.5,10.1,4h0Z" fill="#f2f0de"/>
        <path d="M87.3,292.4c0-10,7.8-17.9,17.4-17.9s17.4,8,17.4,17.9" fill="#c1c1bc"/>
        <path d="M86.8,293h34.8" fill="#c1c1bc"/>
        <path d="M159.8,251.3c-4.1,1.5-13.6,3.3-13.6,3.3v25.4s2.5-4.3,12.1-5.1c9.6-.8,11.3,5.3,11.3,5.3v-34.5s-5.8,4.1-9.8,5.6h0Z" fill="#f2f0de"/>
        <path d="M176,292.4c0-10-7.8-17.9-17.4-17.9s-17.4,8.1-17.4,17.9" fill="#c1c1bc"/>
        <path d="M175.6,293h-34.8" fill="#c1c1bc"/>
        <ellipse cx="90.3" cy="129.2" rx="9" ry="5.6" fill="#f9851c"/>
      </g>
      <rect x="94.6" y="259.4" width="20.4" height="12.6" rx="4.3" ry="4.3" fill="#ddddd0"/>
      <rect x="147.7" y="259.4" width="20.4" height="12.6" rx="4.3" ry="4.3" fill="#ddddd0"/>
      <path d="M179.5,199.9l-5.3-22.6s21.4.8,26.7,22.2l-11.8,6.1-9.8-5.6h0l.2-.2Z" fill="#c1c1bc"/>
      <path d="M195.5,198.2s-11.9-1.2-8.8,19.1c3.2,20.2,12.6,17.3,12.6,17.3,0,0,10.8-.5,8.8-19.2-2.2-18.8-12.6-16.9-12.6-16.9h0v-.2Z" fill="#ddddd0"/>
      <path d="M208.3,251.3l5.6-.5s-2.3-18.1-16.1-17.6c-13.9.5-13.6,19.2-13.6,19.2h5.3c0-.2-1.2-13.8,9-14.3,10.1-.7,9.8,13.3,9.8,13.3h0v-.2Z" fill="#c1c1bc"/>
      <path d="M78.5,200l4.6-22.7s-21.4,1.3-26.2,22.9l11.8,5.8,9.6-6h.2Z" fill="#c1c1bc"/>
      <path d="M62.4,198.7s11.9-1.5,9.3,18.9c-2.7,20.2-12.3,17.4-12.3,17.4,0,0-11-.3-9.3-19.1s12.3-17.3,12.3-17.3Z" fill="#ddddd0"/>
      <path d="M50.9,252.1l-5.6-.5s1.8-18.3,15.8-18.1c13.9.2,14.1,18.9,14.1,18.9h-5.3s.8-13.6-9.5-13.9c-10.3-.3-9.5,13.4-9.5,13.4h0v.2Z" fill="#c1c1bc"/>
      <path d="M233,87.8s12.3-16.4,30.8-22.4c25.4-9.1,31.7,15.8,12.7,22.2-19,6.3-28.2-8.7-43.5.3Z" fill="#bbe8ea"/>
      <path d="M232.5,108s18.7-8.4,37.8-4.7c26.6,4.3,20.1,29.2.4,25.5-19.7-3.7-20.5-21.3-38.2-20.8Z" fill="#bbe8ea"/>
      <path d="M142.5,139.5c-2.6,4.8-6.1-3.6-13.7-3.6s-11.5,9.4-13.7,3.6c0-3.8,6.1-6.9,13.7-6.9s13.7,3.1,13.7,6.9Z" fill="#f9bde0" stroke="#666" strokeMiterlimit="10"/>
    </g>
  </g>
</svg>