<?xml version="1.0" encoding="UTF-8"?>
<svg xmlns="http://www.w3.org/2000/svg" width="100" height="100" version="1.1" viewBox="0 0 1000 1000">
  <g>
    <g 
    id="tel_svg" 
    className="tel_svg"
    data-name="tel_svg">
      <g>
        <path d="M652.3,852.6c-65.1-2-128.9-27-181.3-77.6-55.5-53.7-109.4-109.1-164-163.8-31.7-31.7-64-62.9-95-95.3-45.1-47.4-69.1-104.7-75.8-169.4-4.1-39.8.4-78.5,17.4-115,14.6-31.2,35.5-57.6,63.7-77.5,24.8-17.5,55.1-18.1,78.2-2.4,5.3,3.6,10.4,8.1,14.5,13.1,27.3,32.3,54.5,64.7,81.6,97.2,7.8,9.3,13.8,19.6,15.5,31.9,2.2,15.4-2.7,29-12.4,40.4-8.4,10-18.4,18.6-27.2,28.2-7,7.6-14.1,15.3-19.6,23.9-7.7,12.1-7.5,25.4-1.5,38.5,5.4,12,14,21.7,23.1,30.9,46.7,46.7,93.5,93.4,140.2,140.1,8.2,8.2,16.3,16.7,24.8,24.7,5.3,5,11.1,9.7,17.2,13.7,20.6,13.4,40.9,12.3,59.4-4,10.2-8.9,18.9-19.5,28.7-28.8,6.7-6.3,13.6-12.7,21.4-17.5,16.4-10.1,33.6-10.1,50.5-.6,4.8,2.7,9.4,6.1,13.6,9.7,30.5,26,61,52,91.2,78.3,6.8,5.9,13.4,12.5,18.7,19.8,16.8,23.1,15.3,57.6-4.4,81.6-21.7,26.5-48.3,47.2-79.8,61.3-29,13-59.5,18.7-98.9,18.9Z" fill="#1a2c5b"/>
        <path d="M515.3,137.1c139.5,9.7,239.4,77.9,299.9,203.8,15.8,32.9,24,68.2,29.4,104.2,1.4,9.5,1.7,19.1-1.4,28.5-4,12.3-14.5,17.8-26.8,14.1-7.1-2.1-11.5-7.1-13.1-14-1.5-6.2-2.4-12.5-2.8-18.9-2.9-45.2-16.4-87.1-39.8-125.6-44.5-73.6-107.8-122.4-192.1-142.7-17.7-4.3-35.8-6.4-54.1-6.2-3.7,0-7.4-.1-11-.7-11.9-1.9-19.5-10.3-19-20.8.4-11,9.5-20.5,20.7-21.6,3.3-.3,6.7,0,10,0Z" fill="#1a2c5b"/>
        <path d="M515.6,208c123.3,7,225.8,93.8,252.2,212.5,2.9,13,4.2,26.4,5.6,39.7.5,4.8-.2,9.9-1.3,14.7-1.8,8.1-7.6,12.8-15.4,13.6-10.8,1.1-19-2.1-22.1-10.3-2.4-6.1-3.7-12.9-4.2-19.5-8.4-97-81-181.1-175.7-202.1-15.3-3.4-31.3-3.6-46.9-5.6-4.5-.6-9.3-1.5-13.2-3.7-13.7-7.8-14.1-25.4-1.2-34.5,7.3-5.1,15.4-5.6,22.2-4.9Z" fill="#1a2c5b"/>
        <path d="M513,279c52.5,2.6,96.8,23.6,133.5,60.7,32.2,32.6,51.8,71.6,56.4,117.6.5,5.2.7,10.6-.3,15.7-1.8,9.2-9.4,15-19.2,15.8-8.3.6-17.1-4.4-20-12.7-2-5.5-3-11.4-3.7-17.2-7.1-52.2-34.3-90.8-79.8-116.6-21.8-12.4-45.5-19.1-70.7-19.9-6.3-.2-12.3-1.4-17.4-5.7-10.5-8.9-9.9-23.8,1.4-32.1,5.9-4.4,12.6-5.9,19.9-5.4Z" fill="#1a2c5b"/>
      </g>
    </g>
  </g>
</svg>