<?xml version="1.0" encoding="UTF-8"?>
<svg id="topTitleLogo" data-name="topTitleLogo" xmlns="http://www.w3.org/2000/svg" width="500" height="500" version="1.1" viewBox="0 0 500 500">
  <g id="db" opacity="0">
    <g>
      <path d="M207.1,466.2c-26.2-1.6-103-13.2-121.1-31.7-1.4-1.5-6.1-7.1-6.1-8.3v-89.3c3.5-.2,1.8,4.5,4,7.3,27.6,34.4,173.6,36.7,216.6,33.8,27.2-1.9,105.3-12.7,122.2-33.8,2.2-2.7.5-7.5,4-7.3v89.3c0,1.2-4.7,6.8-6.1,8.3-18.1,18.6-95,30.1-121.1,31.7-27.2,1.7-65.2,1.7-92.3,0Z" fill="#fff" stroke="#040000" strokeMiterLimit="10" strokeWidth="4"/>
      <path d="M79.8,222c3.4.3,2.2,5,4.9,8.4,17.6,21.5,107.3,31.5,135.5,32.7,39.3,1.7,176.1-1.9,201.4-32.7,2.8-3.4,1.5-8.1,4.9-8.4v89.3c0,2.5-7,9.1-9.6,10.9-54.2,38.5-276,39.4-328.9-.8-2.1-1.6-8.3-8.3-8.3-10.1v-89.3Z" fill="#000" stroke="#040000" strokeMiterlimit="10" strokeWidth="4"/>
      <path d="M79.8,107.1c3.5.2,2.7,5.3,5.2,8.1,19.7,21.7,109.6,31.7,139.3,33,40.2,1.8,167.8-3.4,195.9-32,3.3-3.4,2.7-8.2,6.3-9.1v89.3c0,2.8-11.9,12.1-15,13.8-61.8,34.7-251.2,34-314.1,1.4-3.7-1.9-17.7-11.5-17.7-15.2v-89.3Z" fill="#fff" stroke="#040000" strokeMiterlimit="10" strokeWidth="4"/>
      <path d="M210.8,33.8c48-2.7,103.6-1.4,150.6,8.3,20,4.1,95.3,22.8,52.8,51.5-51.8,35.1-274.6,36.6-324.1-1.9-11.6-9-14.6-16.8-3.1-27.8,21-20.1,94.6-28.4,123.8-30.1Z" fill="#fff" stroke="#040000" strokeMiterlimit="10" strokeWidth="4"/>
    </g>
  </g>
  <g>
    <g>
      <g>
        <polygon points="170.3 163.6 170.3 154.2 171 153.4 184.8 153.4 185.5 154.1 185.5 163.6 170.3 163.6" fill="#f9851c"/>
        <path d="M186.4,165.8h19.5l13.7-.2.7.6v10.7l-.7.7-13.7-.3h-1.5c-1,3.5-2.1,7-3.5,10.4h10.5l14.2-.2.7.6v10.9l-.7.7-14.2-.3h-64.9l-14.2.3-.7-.8v-10.9l.8-.5,14.1.2h9.9c-.8-3.5-1.9-7-3.2-10.4h-1l-13.6.3-.7-.8v-10.7l.8-.5,13.5.2h34.3ZM160.2,252.1h-14.3l.5-23.4v-12.6l-.3-11.7.6-.7,13.9.3h36.8l13.9-.3.7.7-.3,11.7v13l.5,22.6h-14.7l-37.3.4ZM197.5,215.1h-37.3v8.5h37.3v-8.5ZM160.2,223.7v19.7h37.3l-37.3-19.7ZM169.3,180.7q1.2,3.4,2.2,7h14.4c1.3-3.4,1.6-3.3,2.5-6.8h-19.1Z" fill="#f9851c"/>
      </g>
      <g>
        <path d="M3.4,201.7l21.4,4.5v-2.4h9.2v2.2l21.5-4.5s1.9-9.1-2.5-9.7c-4.6-.6-42.4-.5-46.6,0-4.3.5-3,9.8-3,9.8Z" fill="#1a2c5b"/>
        <path d="M55.3,204.2l-10.6,2.4-10.5,2v6.2h-9.4v-6.1l-20.9-4.6s0,13.2,0,17.6c0,4.4,3,5.2,3,5.2,0,0,39.6,0,44,0s1.6-.2,1.8-.3c1-.5,2.6-1.8,2.7-4.9,0-4.4,0-17.6,0-17.6Z" fill="#1a2c5b"/>
        <path d="M36.7,182.7h-15.3c-1.2,0-2.2,1-2.2,2.3v1.1h0v3.5c0,.4.3.6.6.6h2.1c.3,0,.6-.3.6-.6v-3.4h13.1v3.4c0,.4.3.7.6.7h2.1c.3,0,.6-.3.6-.7v-3.4h0v-1.2c0-1.3-1-2.3-2.2-2.3Z" fill="#1a2c5b"/>
      </g>
      <g>
        <g>
          <g>
            <path d="M276,172.6h13.4c0,0,.8.8.8.8-.5,11.8-.9,19.8-1.4,29.6-.4,8.2-.9,18.9-.9,26.3s3.2,9.9,8.9,9.9c10.9,0,23.2-8.5,31.3-23.2l8.2,11c.9,1,1,1.8.3,3-9.4,14.9-24.3,23.6-38.8,23.6s-24.1-6.7-24.1-22.8.7-22,.9-30.6c.3-7.4.8-15.7.8-26.8l.7-.7Z" fill="#f9851c"/>
            <path d="M348.8,225.9l11.8-3.9.8.4c1.6,9.9,6.7,11.4,22.6,11.4s20.4-.9,30.5-2.4l.9.7,1.3,14.2-.6.9c-11.1,1.2-22.6,1.5-33.1,1.5-28.3,0-33.5-11.5-34.6-22.1l.5-.7ZM359.9,179.9c5.7.6,11.3.9,16.9.9,9.1,0,19.3-.9,29.3-2.4l.7.6.4,13.4-.8.7c-9,1.6-19.1,2.4-29.7,2.4s-11.5-.3-17.2-.9l-.8-.7.5-13.5.7-.5Z" fill="#1a2c5b"/>
          </g>
          <path d="M257.6,250.3c-3.5.3-7.3.5-12.1.5-9.2,0-13.7-3-13.7-9.4s2.9-7.3,7-10.3c-1.9-2.9-3.9-6.5-5.6-9.7v-.4c0,0,4.7-2.6,4.7-2.6h.4c1.7,3.4,3.6,6.8,5.5,9.7,3.5-1.9,7.4-3.6,11.3-5.2l.4.2,2.3,5.4-.2.3c-3.4,1.2-8,3.4-10.9,4.6-2.2,1-3.1,1.6-4.6,2.6-3,1.8-4.4,3.6-4.4,5.5,0,2.7,3.3,3.4,7.8,3.4s7.2-.3,11.9-.8l.3.2.2,5.8-.2.4Z" fill="#1a2c5b"/>
        </g>
        <text/>
        <path d="M58.2,191.8l3.1-5.4c6.3-9.6,11.1-20.8,14.1-32.7l1.1-.4,13.5,4,.2,1.1c-1.4,4.5-2.9,8.8-4.6,13h27.8l14.4-.3.9.7v12.2l-.9.7-14.4-.3h-33.9c-2,3.7-4.4,7.2-6.8,10.6l8.3.2h16.7l9.7-.5,6.8,6.2c.7.6,1.2,1.5,1.2,2.2s-.3,1.2-.7,1.5c-4.8,3.8-10.8,8.1-22,17-9,7.5-13.7,11.5-13.7,13.6s1.7,3.4,13.8,3.4,17.4-1,19.2-2.4c2-1.6,2.9-4.2,3.3-12.1l12.6,5.4c1.2.5,1.3.9,1.2,2.1-.5,9-1.9,12.8-5.7,15.5-4.8,3.5-9.1,4.9-33.3,4.9s-27.6-3.7-27.6-14,2.2-9.8,8.7-16c4.4-4.2,9.4-8.2,16.3-13.8h-6.7l-12.2.3-.7-.7v-10.4l-9.6-5.7Z" fill="#1a2c5b"/>
      </g>
    </g>
    <g>
      <rect x="3" y="266.2" width="493.9" height="58.7" fill="#1a2c5b"/>
      <text transform="translate(82.4 314.4)" fill="#fff" fontFamily="CoFoSansPixel-Regular, &apos;CoFo Sans Pixel&apos;" fontSize="58.9"><tspan x="0" y="0">D A T A B A S E</tspan></text>
    </g>
    <path d="M400,164.6c0,0-.3-.1-.4-.1-.6,0-1.2.3-1.8.4s-.6,0-.8-.3-.5-2.3-.5-2.7.2-.5.5-.6c.5-.2,1.9-.2,2.2-.5s.2-.3.2-.4c.1-.5.1-1,.3-1.5,0-.5-.8-.8-1.2-1.1-.5-.3-1.3-.7-.9-1.4s1.1-1.7,1.4-2.1.3-.3.6-.3,1.5.9,1.9,1.2.2.1.4.1c.3,0,.7-.4.9-.6s.6-.4.8-.5.2-.3.1-.4c0-.7-.4-1.4-.4-2.1s.5-.6.9-.7,1.1-.3,1.6-.4.5,0,.6,0c.3,0,.5.2.5.5.2.6.2,1.3.4,1.9s.5.4,1,.5,1.1.4,1.4.2,1-1.3,1.2-1.7.5-.5.9-.3,1.9,1.2,2.2,1.5.3.3.3.6-.9,1.4-1.2,1.8-.2.4,0,.8.6.8.8,1.3c.2.3.6.2.9.2.5,0,1.2-.3,1.7-.3s.5.2.6.4c.1.8.4,1.7.5,2.6s-.2.6-.6.7c-.6.2-1.2.2-1.8.4s-.4.3-.5.5-.3,1.2-.3,1.4,0,.3.2.4c.4.4,1.3.7,1.8,1.2s.2.4.2.7c-.6.7-1,1.7-1.6,2.4-.2.2-.3.3-.6.3-.5,0-1.4-.9-1.9-1.2s-.4-.1-.6,0-1.4.9-1.5,1-.1.2-.1.4c0,.6.5,1.9.4,2.3s-.6.4-1,.5c-.6.1-1.1.3-1.7.3s-.8.2-1-.4-.2-1.3-.4-1.9,0-.2-.1-.2c-.2-.2-.9-.3-1.2-.3s-.8-.3-1-.2-.9,1.2-1.1,1.5-.5.8-1.1.5-1.7-1.1-2.2-1.5c-.2-.2-.4-.3-.3-.7,0-.5,1-1.4,1.2-1.9s.1-.4,0-.7-.7-1.2-.9-1.3ZM406.1,157.8c-1.8.5-3,2.4-2.5,4.2.8,3.3,5.7,3.5,6.8.3s-1.6-5.2-4.3-4.4Z" fill="#1a2c5b"/>
    <path d="M414.2,181.9c0,0-.3-.1-.4-.1-.6,0-1.2.3-1.8.4s-.6,0-.8-.3-.5-2.3-.5-2.7.2-.5.5-.6c.5-.2,1.9-.2,2.2-.5s.2-.3.2-.4c.1-.5.1-1,.3-1.5,0-.5-.8-.8-1.2-1.1-.5-.3-1.3-.7-.9-1.4s1.1-1.7,1.4-2.1.3-.3.6-.3c.3,0,1.5.9,1.9,1.2s.2.1.4.1c.3,0,.7-.4.9-.6s.6-.4.8-.5.2-.3.1-.4c0-.7-.4-1.4-.4-2.1s.5-.6.9-.7c.5-.1,1.1-.3,1.6-.4s.5,0,.6,0c.3,0,.5.2.5.5.2.6.2,1.3.4,1.9s.5.4,1,.5,1.1.4,1.4.2,1-1.3,1.2-1.7.5-.5.9-.3c.4.1,1.9,1.2,2.2,1.5s.3.3.3.6-.9,1.4-1.2,1.8-.2.4,0,.8.6.8.8,1.3c.2.3.6.2.9.2.5,0,1.2-.3,1.7-.3s.5.2.6.4c.1.8.4,1.7.5,2.6s-.2.6-.6.7c-.6.2-1.2.2-1.8.4s-.4.3-.5.5-.3,1.2-.3,1.4,0,.3.2.4c.4.4,1.3.7,1.8,1.2s.2.4.2.7c-.6.7-1,1.7-1.6,2.4s-.3.3-.6.3c-.5,0-1.4-.9-1.9-1.2s-.4-.1-.6,0-1.4.9-1.5,1-.1.2-.1.4c0,.6.5,1.9.4,2.3s-.6.4-1,.5c-.6.1-1.1.3-1.7.3s-.8.2-1-.4-.2-1.3-.4-1.9,0-.2-.1-.2c-.2-.2-.9-.3-1.2-.3s-.8-.3-1-.2-.9,1.2-1.1,1.5-.5.8-1.1.5-1.7-1.1-2.2-1.5-.4-.3-.3-.7c0-.5,1-1.4,1.2-1.9s.1-.4,0-.7-.7-1.2-.9-1.3ZM420.4,175c-1.8.5-3,2.4-2.5,4.2.8,3.3,5.7,3.5,6.8.3.9-2.6-1.6-5.2-4.3-4.4Z" fill="#1a2c5b"/>
    <path d="M495.2,249.6c-8.7.7-17.9,1-29.9,1-22.8,0-33.7-6.9-33.7-21.8s7.1-16.9,17.2-24c-4.6-6.6-9.7-15-13.8-22.6l.2-.9,11.5-6,.9.3c4.2,7.6,8.9,15.5,13.5,22.1,8.6-4.4,18.3-8.4,27.8-11.9l.9.4,5.6,12.4-.4.8c-8.2,2.7-19.8,7.8-26.8,10.7-5.5,2.4-7.7,3.8-11.3,6-7.4,4.3-10.7,8.2-10.7,12.7,0,6.4,8.1,7.8,19.2,7.8s17.6-.7,29.2-1.9l.8.6.4,13.6-.6.9Z" fill="#f9851c"/>
  </g>
</svg>