<?xml version="1.0" encoding="UTF-8"?>
<svg xmlns="http://www.w3.org/2000/svg" width="100" height="100" version="1.1" viewBox="0 0 100 100">
  <g>
    <g id="transaction_x5F_svg">
      <g>
        <path d="M77.5,57c0-.3,0-.5,0-.7,0-5.5,0-11,0-16.6,0-.5-.1-.7-.6-.8-1.2-.3-2.4-.6-3.6-.9-1.2-.3-2.2-.7-3.2-1.5-2.2-1.6-4.5-3.1-6.7-4.7-1.1-.8-2.2-1.5-3.3-2.3-1.7-1.2-2.1-3.3-.9-4.9,1.1-1.6,3.2-1.9,4.9-.8,3.1,2.1,6.1,4.2,9.1,6.3,1,.7,2,1.2,3.2,1.5.7.1,1.4.6,2,.5.5-.2.9-1,1.3-1.5,3.3-4,8.9-3.7,11.9.6.9,1.3,1.4,2.7,1.4,4.3.3,8.4.4,16.8.3,25.2,0,2.4-1.7,4-4.1,4-5,0-9.9,0-14.9,0-.2,0-.5,0-.8,0,0,.3,0,.6,0,.9,0,5.6,0,11.2,0,16.8,0,2-1.2,3.6-3,4.1-2.6.7-5-1.2-5-4,0-5,0-10,0-15s0-4.3,0-6.4c0-2.4,1.7-4.1,4.1-4.1,2.4,0,4.8,0,7.2,0,.2,0,.5,0,.8,0Z" fill="#1a2c5b"/>
        <path d="M22.5,43.3v13.7c.2,0,.5,0,.7,0,2.4,0,4.8,0,7.2,0,2.5,0,4.2,1.6,4.2,4.2,0,7.1,0,14.3,0,21.4,0,2.2-1.5,3.8-3.6,4.1-2,.2-3.8-1.1-4.3-3.1-.1-.4-.1-.9-.1-1.3,0-5.5,0-11,0-16.6,0-.3,0-.6,0-.9h-.9c-4.9,0-9.8,0-14.6,0-2.3,0-4.4-1.6-4.4-4.3.2-8.4.2-16.9.4-25.3,0-2.5,1.3-4.4,3.2-5.9,3-2.4,7-2,9.7.9,1.3,1.4,2.1,3.1,2.4,4.9,0,.5.3.8.8.9.3,0,.7.2,1,.4,2.6,1.4,5.4,1.4,8.2,1.4,2.7,0,5.4.1,8.2.2,1.8,0,3.1,1.3,3.3,3.1.2,1.7-.9,3.3-2.6,3.7-.4.1-.9.1-1.3.1-3.6,0-7.2-.3-10.9-.2-2,0-3.9-.3-5.7-1.2-.2-.1-.4-.2-.8-.3Z" fill="#1a2c5b"/>
        <path d="M53.1,86.6h-3.5v-36.6h-15.3v-4.8h34.2v4.7h-15.3v36.7Z" fill="#1a2c5b"/>
        <path d="M14.7,26.9c-3.8,0-6.8-3-6.8-6.8,0-3.8,3-6.8,6.8-6.8,3.7,0,6.8,3.1,6.8,6.8,0,3.8-3,6.8-6.8,6.8Z" fill="#1a2c5b"/>
        <path d="M92.1,20.1c0,3.8-3,6.8-6.8,6.8-3.8,0-6.8-3-6.8-6.8,0-3.8,3-6.8,6.8-6.8,3.8,0,6.8,3,6.8,6.8Z" fill="#1a2c5b"/>
      </g>
    </g>
  </g>
</svg>