<?xml version="1.0" encoding="UTF-8"?>
<svg 
id="up_hand_chara"
className="up_hand_chara"
xmlns="http://www.w3.org/2000/svg" width="100" height="100" version="1.1" viewBox="0 0 300 300">
  <g>
    <path d="M204.7,183.6c4.3-7.5,17-20.1,38.2-15.6,0,0-4,8-3.8,15.6,0,3.1.6,11.5-.3,21.2-1.3,14.2-5.8,30.7-21.1,33.3-25.9,4.5-39.8.2-37.2-3.2,2.6-3.5,5.6-18.5,5.6-18.5,0,0,7.4-5.9,12-13.9,4.6-8,2.3-11.4,6.6-18.9Z" fill="#f9851c"/>
    <path d="M242.9,168c-21.2-4.5-33.9,8.1-38.2,15.6h0s0,0,0,0c0,0,0,0,0,0h0c-.6,1.9,1.6,4.2,4.8,5.2,1.3.4,2.1,1,2.7.7.7-.3.6.3.5.6-1.5,3.7,3.2,8.8,10.5,11.4,7.3,2.6,12.7,6.2,15.3,3.2,1.5-10,.6-16.9.4-21.1-.2-7.6,3.8-15.6,3.8-15.6Z" fill="#f2f0de"/>
  </g>
  <g>
    <path d="M102.8,154.6h70.8s49,98.7-35.5,97.9c-84.5-.8-35.5-97.9-35.5-97.9h.2Z" fill="#ddddd0"/>
    <path d="M105.5,187.1h66.9s46.4,66.1-33.5,65.6c-80-.5-33.5-65.6-33.5-65.6h.2Z" fill="#c1c1bc"/>
    <path d="M209.6,107.7s23.1-51.1-6-93.2c0,0-45.9,21.6-48.5,43.4,0,0,27.6,15,27.9,19.2.3,4.4,26.6,30.5,26.6,30.5h0v.2Z" fill="#f9851c"/>
    <path d="M206.4,77.7c.3-.6,8.4-29.3-4.4-49.3,0,0-31.1,14.8-33.5,31.6,0,0,21.1,2.9,22.1,6.9,1,4,15.6,10.6,15.6,10.6h.2v.2Z" fill="#f2f0de"/>
    <path d="M66,107.7s-22.9-51.1,6.1-93.2c0,0,45.9,21.6,48.5,43.5,0,0-27.6,14.8-27.9,19.2s-26.8,30.5-26.8,30.5Z" fill="#f9851c"/>
    <path d="M69.2,77.7c-.3-.6-8.4-29.3,4.4-49.3,0,0,31,14.8,33.5,31.6,0,0-21.1,2.9-22.1,6.9s-15.6,10.6-15.6,10.6h-.2v.2Z" fill="#f2f0de"/>
    <rect x="64.1" y="58.2" width="149.8" height="103.3" rx="35.3" ry="35.3" fill="#ddddd0"/>
    <rect x="73.6" y="69.5" width="125.9" height="80.8" rx="27.6" ry="27.6" fill="#daf4f7"/>
    <path d="M174,97.7" fill="#fff" stroke="#000" strokeMiterlimit="10" strokeWidth="1.6"/>
    <path d="M165,97.7" fill="#fff" stroke="#000" strokeMiterlimit="10" strokeWidth="1.6"/>
    <circle cx="106.3" cy="213.2" r="5.5" fill="#f9851c"/>
    <circle cx="139" cy="213.2" r="5.5" fill="#f9851c"/>
    <circle cx="168.7" cy="214.1" r="5.5" fill="#f9851c"/>
    <path d="M114,161.6h48.2s-2.1,18.7-21.6,19.2c-19.5.6-26.6-19.2-26.6-19.2Z" fill="#c1c1bc"/>
    <path d="M136.4,32.8l-8.4,25.5h16.9l-8.5-25.5Z" fill="#f9851c"/>
    <circle cx="136.1" cy="33.6" r="5.2" fill="#f9851c"/>
    <path d="M113.4,249.3c4,1.5,12.9,2.7,12.9,2.7v23.7s-7.4-4.2-12.1-4.2-11.1,4.2-11.1,4.2l.5-30.3s6,2.4,9.8,3.9h0Z" fill="#f2f0de"/>
    <path d="M97.4,288.8c0-9.7,7.6-17.4,16.9-17.4s16.9,7.7,16.9,17.4" fill="#c1c1bc"/>
    <path d="M97.4,288.8h33.9" fill="#c1c1bc"/>
    <path d="M168.2,248.3c-4,1.5-13.2,3.2-13.2,3.2v24.7s2.4-4.2,11.8-5c9.4-.8,11,5.2,11,5.2v-33.5s-5.6,4-9.5,5.5h0Z" fill="#f2f0de"/>
    <path d="M183.5,288.8c0-9.7-7.6-17.4-16.9-17.4s-16.9,7.9-16.9,17.4" fill="#c1c1bc"/>
    <path d="M183.5,288.8h-33.9" fill="#c1c1bc"/>
  </g>
  <rect x="105" y="256.2" width="19.8" height="12.3" rx="4.2" ry="4.2" fill="#ddddd0"/>
  <rect x="156.6" y="256.2" width="19.8" height="12.3" rx="4.2" ry="4.2" fill="#ddddd0"/>
  <path d="M187.4,198.3l-5.2-21.9s20.8.8,26,21.6l-11.4,6-9.5-5.5h0l.2-.2Z" fill="#c1c1bc"/>
  <path d="M203,196.7s-11.6-1.1-8.5,18.5c3.1,19.7,12.3,16.8,12.3,16.8,0,0,10.5-.5,8.5-18.7-2.1-18.2-12.3-16.4-12.3-16.4h0v-.2Z" fill="#ddddd0"/>
  <path d="M215.3,248.3l5.5-.5s-2.3-17.6-15.6-17.1c-13.5.5-13.2,18.7-13.2,18.7h5.2c0-.2-1.1-13.4,8.7-13.9,9.8-.6,9.5,12.9,9.5,12.9h0v-.2Z" fill="#c1c1bc"/>
  <path d="M89.4,198.5l4.5-22.1s-20.8,1.3-25.5,22.2l11.4,5.6,9.4-5.8h.2Z" fill="#c1c1bc"/>
  <path d="M81.1,204.4s-6.3,9.9-19.9-4.8c-13.5-14.6-5.4-20-5.4-20,0,0,7-8,20,4.9s5.3,19.9,5.3,19.9Z" fill="#ddddd0"/>
  <path d="M51.6,159.9l4.4-3.3s10.6,14.3.5,23.3c-10.1,9-22.5-4.4-22.5-4.4l3.8-3.5s8.3,10.3,15.9,3.8-2-15.8-2-15.8h-.1Z" fill="#c1c1bc"/>
  <g>
    <circle cx="172.2" cy="98.7" r="11.3"/>
    <path d="M166.5,92.6c2.6,0,4.7,2.1,4.7,4.7s-2.1,4.7-4.7,4.7-4.7-2.1-4.7-4.7,2.1-4.7,4.7-4.7" fill="#fff"/>
    <circle cx="100.2" cy="98.2" r="11.3"/>
    <path d="M94,92.6c2.6,0,4.7,2.1,4.7,4.7s-2.1,4.7-4.7,4.7-4.7-2.1-4.7-4.7,2.1-4.7,4.7-4.7" fill="#fff"/>
    <path d="M153.3,120.5c0,8-6.5,14.4-14.4,14.4s-14.4-6.5-14.4-14.4" fill="none" stroke="#000" strokeLinecap="round" strokeMiterlimit="10" strokeWidth="1.8"/>
    <ellipse cx="95.8" cy="126.4" rx="9.2" ry="5.9" fill="#f9851c"/>
    <ellipse cx="176.5" cy="127.9" rx="9.2" ry="5.9" fill="#f9851c"/>
  </g>
</svg>