<?xml version="1.0" encoding="UTF-8"?>
<svg id="write_x5F_chara" xmlns="http://www.w3.org/2000/svg" width="300" height="300" version="1.1" viewBox="0 0 300 300">
  <!-- Generator: Adobe Illustrator 29.1.0, SVG Export Plug-In . SVG Version: 2.1.0 Build 142)  -->
  <g>
    <rect x="24.9" y="191.7" width="252.6" height="90.8" rx="15.9" ry="15.9" fill="#1a2c5b"/>
    <rect x="26.5" y="200.7" width="249.5" height="90.8" rx="15.8" ry="15.8" fill="none" stroke="#1a2c5b" strokeMiterlimit="10" stroke-width="3.2"/>
  </g>
  <g>
    <g>
      <g>
        <g>
          <g>
            <g>
              <path d="M194.7,143.9c3.2-6.4,13.3-17.4,31.1-14.6,0,0-3,6.9-2.5,13.2.2,2.6,1,9.5.6,17.6-.5,11.8-3.5,25.7-16.2,28.5-21.3,4.8-33,1.9-31-1.1s3.9-15.6,3.9-15.6c0,0,5.9-5.2,9.4-12,3.5-6.9,1.4-9.6,4.7-16h0Z" fill="#f9851c" stroke="#000" strokeMiterlimit="10" stroke-width="1.3"/>
              <path d="M195.2,143.4c-.5,1.6,1.4,3.4,4.2,4.2,1.1.3,1.8.8,2.3.5s.5.2.5.5c-1.1,3.1,3,7.2,9.1,9.1,6.1,1.9,10.6,4.8,12.7,2.3" fill="#fff" stroke="#000" strokeMiterlimit="10" stroke-width="1.3"/>
              <path d="M195.1,144.3c3.2-6.4,13.3-17.4,31.1-14.6,0,0-3,6.9-2.5,13.2.3,3.5,1.3,9.2.5,17.5" fill="#fff" stroke="#000" strokeMiterlimit="10" stroke-width="1.3"/>
            </g>
            <g>
              <path d="M168.7,126.5h-56.5s-39.2,78.8,28.3,78.1c67.4-.6,28.3-78.1,28.3-78.1h-.1Z" fill="#ddddd0" stroke="#000" strokeMiterlimit="10" stroke-width="1.3"/>
              <path d="M166.6,152.3h-53.4s-37,52.7,26.7,52.3c63.8-.4,26.7-52.3,26.7-52.3Z" fill="#ddddd0" stroke="#000" strokeLinecap="round" stroke-linejoin="round" stroke-width="1.3"/>
              <g>
                <path d="M83.5,88.9s-18.4-40.8,4.8-74.4c0,0,36.7,17.2,38.8,34.7,0,0-22,11.9-22.3,15.4s-21.3,24.4-21.3,24.4h0Z" fill="#f9851c" stroke="#000" strokeMiterlimit="10" stroke-width="1.3"/>
                <path d="M86,65c-.2-.6-6.7-23.4,3.4-39.3,0,0,24.8,11.9,26.7,25.2,0,0-16.9,2.4-17.7,5.5-.8,3.2-12.5,8.6-12.5,8.6h0Z" fill="#fbfbec" stroke="#000" strokeMiterlimit="10" stroke-width="1.3"/>
              </g>
              <g>
                <path d="M198.1,88.9s18.3-40.8-4.8-74.4c0,0-36.7,17.2-38.8,34.7,0,0,22.1,11.9,22.3,15.4s21.3,24.3,21.3,24.3Z" fill="#f9851c" stroke="#000" strokeMiterlimit="10" stroke-width="1.3"/>
                <path d="M195.5,65c.2-.6,6.7-23.4-3.4-39.3,0,0-24.8,11.9-26.7,25.3,0,0,16.9,2.4,17.7,5.5.8,3.2,12.5,8.5,12.5,8.5h-.1Z" fill="#fbfbec" stroke="#000" strokeMiterlimit="10" stroke-width="1.3"/>
              </g>
              <rect x="80.1" y="49.5" width="119.5" height="82.5" rx="28.3" ry="28.3" fill="#f2f0de" stroke="#000" strokeMiterlimit="10" stroke-width="1.3"/>
              <rect x="91.6" y="58.5" width="100.5" height="64.4" rx="22.1" ry="22.1" fill="#daf4f7" stroke="#000" strokeMiterlimit="10" stroke-width="1.3"/>
              <circle cx="113.8" cy="82.2" r="8.5" stroke="#000" strokeMiterlimit="10" stroke-width="1.3"/>
              <circle cx="108.9" cy="82.2" r="3.6" fill="#fff" stroke="#000" strokeMiterlimit="10" stroke-width="1.3"/>
              <circle cx="167.8" cy="81.8" r="8.5" stroke="#000" strokeMiterlimit="10" stroke-width="1.3"/>
              <circle cx="163.2" cy="81.8" r="3.6" fill="#fff" stroke="#000" strokeMiterlimit="10" stroke-width="1.3"/>
              <path d="M129.6,100.9c0,6,4.9,10.8,10.8,10.8s10.8-4.9,10.8-10.8" fill="none" stroke="#000" strokeLinecap="round" strokeMiterlimit="10" stroke-width="1.3"/>
              <ellipse cx="170.3" cy="105.3" rx="6.9" ry="4.4" fill="#f9851c" stroke="#000" strokeMiterlimit="10" stroke-width="1.3"/>
              <ellipse cx="109.7" cy="106.4" rx="6.9" ry="4.4" fill="#f9851c" stroke="#000" strokeMiterlimit="10" stroke-width="1.3"/>
              <circle cx="139.8" cy="173.2" r="4.4" fill="#f9851c" stroke="#000" strokeMiterlimit="10" stroke-width="1.3"/>
              <circle cx="163.4" cy="172.7" r="4.4" fill="#f9851c" stroke="#000" strokeMiterlimit="10" stroke-width="1.3"/>
              <circle cx="116.2" cy="173.9" r="4.4" fill="#f9851c" stroke="#000" strokeMiterlimit="10" stroke-width="1.3"/>
              <path d="M159.7,132h-38.5s1.7,14.9,17.3,15.4,21.2-15.4,21.2-15.4Z" fill="#ddddd0" stroke="#000" strokeMiterlimit="10" stroke-width="1.3"/>
              <polygon points="141.8 29.1 148.6 49.4 135 49.4 141.8 29.1" fill="#f9851c" stroke="#000" strokeMiterlimit="10" stroke-width="1.3"/>
              <circle cx="142.1" cy="29.8" r="4.1" fill="#f9851c" stroke="#000" strokeMiterlimit="10" stroke-width="1.3"/>
              <path d="M37,163.9" fill="red" stroke="#000" strokeMiterlimit="10" stroke-width="1.3"/>
              <g>
                <path d="M168,198.5s-4.6,2.3-7.8,3.5-10.7,2.1-10.7,2.1l.5,19.1s5.8-3.3,9.6-3.4c3.8,0,8.9,3.4,8.9,3.4l-.5-24.7h0Z" fill="#f2f0de" stroke="#000" strokeMiterlimit="10" stroke-width="1.3"/>
                <g>
                  <path d="M173,233.6c0-7.7-6.1-13.9-13.5-13.9s-13.5,6.2-13.5,13.9" fill="#f2f0de" stroke="#000" strokeMiterlimit="10" stroke-width="1.3"/>
                  <line x1="173" y1="233.6" x2="146" y2="233.6" fill="none" stroke="#000" strokeLinecap="round" strokeMiterlimit="10" stroke-width="1.3"/>
                </g>
              </g>
              <g>
                <path d="M108.6,196.5s4.9,3.6,8,4.8c3.2,1.2,10.6,2.6,10.6,2.6v18.4s-5.9-3.3-9.7-3.4c-3.8,0-8.9,3.4-8.9,3.4v-25.8Z" fill="#f2f0de" stroke="#000" strokeMiterlimit="10" stroke-width="1.3"/>
                <g>
                  <path d="M104.1,232.6c0-7.7,6.1-13.9,13.5-13.9s13.5,6.2,13.5,13.9" fill="#f2f0de" stroke="#000" strokeMiterlimit="10" stroke-width="1.3"/>
                  <line x1="104.1" y1="232.6" x2="131.1" y2="232.6" fill="none" stroke="#000" strokeLinecap="round" strokeMiterlimit="10" stroke-width="1.3"/>
                </g>
              </g>
              <g>
                <path d="M179.5,159.2l-4.4-16.8s16.7.7,20.4,17.4l-9.2,4.6-6.9-5.1h0Z" fill="#ddddd0" stroke="#000" strokeMiterlimit="10" stroke-width="1.3"/>
                <path d="M185.8,162.7s2.7,8.9,16.3.7,8.6-14.2,8.6-14.2c0,0-3.6-7.6-16.4-.6-12.9,7-8.5,14.1-8.5,14.1h0Z" fill="#ddddd0" stroke="#000" strokeMiterlimit="10" stroke-width="1.3"/>
              </g>
            </g>
          </g>
          <g isolation="isolate">
            <g isolation="isolate">
              <path d="M127.2,192.1c.4,1.8,1.5,2.7,3.8,2.7s2.3-.5,2.3-1.5-1-1.6-4.4-2.4c-4-1-6.1-2.4-6.1-4.8s2.9-4.7,7.4-4.7,7.3,1.6,7.9,4.6l-5,.7c-.2-1.9-1.2-2.9-3.1-2.9s-2.2.6-2.2,1.6,1,1.6,4.2,2.4c4.7,1.1,6.7,2.3,6.7,4.9s-3,4.8-7.9,4.8-8.1-1.7-8.7-5l5.2-.5Z"/>
              <path d="M157,184.5h-5.9v12.8h-5.1v-12.8h-5.9v-2.9h17v2.9Z"/>
            </g>
          </g>
          <rect x="150.3" y="207.9" width="16.7" height="9.8" rx="3.4" ry="3.4" transform="translate(-6.2 4.8) rotate(-1.7)" fill="#ddddd0" stroke="#000" strokeLinecap="round" stroke-linejoin="round" stroke-width="1.4"/>
          <rect x="109.8" y="207.3" width="16.2" height="9.8" rx="3.4" ry="3.4" fill="#ddddd0" stroke="#000" strokeLinecap="round" stroke-linejoin="round" stroke-width="1.4"/>
        </g>
        <g>
          <path d="M101.3,161.1l3.8-17.1s-16.2,1-19.5,17.7l9.3,4.4,6.5-5h-.1Z" fill="#ddddd0" stroke="#000" strokeMiterlimit="10" stroke-width="1.3"/>
          <path d="M95,165.8s-2.2,9-16.2,1.6c-14-7.5-9.3-13.7-9.3-13.7,0,0,3.2-7.8,16.4-1.5,13.2,6.3,9.2,13.6,9.2,13.6h0Z" fill="#ddddd0" stroke="#000" strokeMiterlimit="10" stroke-width="1.3"/>
        </g>
      </g>
      <g>
        <path d="M41.7,156c0-.3,21.4-15.1,21.4-15.1l-26.2-37.1-23.3-11,1.7,25.7,26.4,37.4h0Z" fill="#ddddd0" stroke="#000" strokeLinecap="round" stroke-linejoin="round" stroke-width="1.3"/>
        <polygon points="15.2 117.1 35.5 103.2 22.2 97 14.3 103.2 15.2 117.1" fill="#fff" stroke="#000" strokeMiterlimit="10" stroke-width="1.3"/>
        <path d="M65.7,144.7l-22,14.2,4.4,6.6c2.1,3,6.4,3.7,9.4,1.6l10.7-7.5c3-2.1,3.8-6.3,1.6-9.3l-4.2-5.7h0Z" fill="#ddddd0" stroke="#000" strokeMiterlimit="10" stroke-width="1.3"/>
        <polygon points="41.7 156 44.6 160.4 66.1 145.4 62.9 140.7 41.7 156" fill="#fff" stroke="#000" strokeMiterlimit="10" stroke-width="1.3"/>
      </g>
      <path d="M64.8,142.4c4.7,0,10.5,4.6,7.2,13.4-3.3,8.8-18.8,3.3-18.8,3.3l1.8-3.2s10.6,4.8,13.2-1.6c2.6-6.4-5-11.9-3.4-11.9Z" fill="#ddddd0" stroke="#000" strokeMiterlimit="10" stroke-width="1.3"/>
      <path d="M223.4,146.5l2.4,3.6s-11.9,7.7-18.5-.8,4.6-17.7,4.6-17.7l2.5,3.3s-8.6,6.1-3.8,12.4c4.7,6.3,12.8-.8,12.8-.8Z" fill="#ddddd0" stroke="#000" strokeMiterlimit="10" stroke-width="1.3"/>
    </g>
    <g isolation="isolate">
      <g isolation="isolate">
        <path d="M252.8,20.1c-.2,2.2-1.8,8.4-2.5,10.6l-2.9,10.2h-15.7l-9.3-29.3h11.4l4.6,15c1,3.3,1.6,5.7,1.8,8.3h.6c.4-2.6,1.1-4.8,2.2-8.3l5-15h10.6l5.2,15c1.2,3.3,1.9,6.1,2.2,8.3h.6c.2-2.3.7-5,1.6-8.3l4.1-15h11.3l-9.3,29.3h-15l-3.4-10.4c-.7-2.1-2.4-8.2-2.6-10.5h-.6Z" fill="#1a2c5d"/>
      </g>
      <g isolation="isolate">
        <path d="M259.9,88l-7-10.7h-4.5v10.7h-10.8v-29.3h15.8c9.7,0,16.5,2.7,16.5,8.6s-2.9,6.6-7.5,7.9l10.1,12.9h-12.6ZM248.4,72.3h3.9c4.3,0,6.9-1.2,6.9-4.3s-2.6-4.4-6.9-4.4h-3.9v8.7Z" fill="#1a2c5d"/>
      </g>
      <g isolation="isolate">
        <path d="M258.7,135h-11.1v-29.3h11.1v29.3Z" fill="#1a2c5d"/>
      </g>
      <g isolation="isolate">
        <path d="M271.1,158.1h-12.6v23.9h-10.8v-23.9h-12.6v-5.5h36.1v5.5Z" fill="#1a2c5d"/>
      </g>
      <g isolation="isolate">
        <path d="M269,223.9v5.1h-28.8v-29.3h28.2v5.1h-17.4v7h15.6v4.9h-15.6v7.3h17.9Z" fill="#fff"/>
      </g>
    </g>
  </g>
</svg>