<?xml version="1.0" encoding="UTF-8"?>
<svg id="mainLogo"
    className="mainLogo" xmlns="http://www.w3.org/2000/svg" width="580" height="175" version="1.1" viewBox="0 0 580 175">
  <g>
    <g>
      <polygon points="211.7 13.8 211.7 4.5 212.4 3.7 226.1 3.7 226.8 4.4 226.8 13.8 211.7 13.8" fill="#f9851c"/>
      <path d="M227.7,16h19.4l13.6-.2.7.6v10.6l-.7.7-13.6-.3h-1.5c-1,3.5-2.1,6.9-3.5,10.3h10.4l14.1-.2.7.6v10.8l-.7.7-14.1-.3h-64.5l-14.1.3-.7-.8v-10.8l.8-.5,14,.2h9.8c-.8-3.5-1.9-6.9-3.2-10.3h-1l-13.5.3-.7-.8v-10.6l.8-.5,13.4.2h34.1ZM201.6,101.8h-14.2l.5-23.2v-12.5l-.3-11.6.6-.7,13.8.3h36.5l13.8-.3.7.7-.3,11.6v12.9l.5,22.4h-14.6s-37,.4-37,.4ZM238.7,65.1h-37v8.5h37v-8.5ZM201.6,73.6v19.6h37l-37-19.6ZM210.6,30.8c.8,2.3,1.5,4.6,2.2,6.9h14.3c1.3-3.4,1.6-3.3,2.5-6.8h-19Z" fill="#f9851c"/>
    </g>
    <g className="bagPath">
      <path d="M45.8,51.7l21.3,4.5v-2.4h9.1v2.2l21.4-4.4s1.9-9.1-2.5-9.6c-4.5-.6-42.1-.5-46.3,0-4.2.5-3,9.8-3,9.8h0Z" fill="#1a2c5b"/>
      <path d="M97.3,54.2l-10.6,2.3-10.4,2v6.2h-9.3v-6l-20.8-4.5v17.5c0,4.4,3,5.2,3,5.2h43.7c4.3,0,1.6-.2,1.8-.3,1-.5,2.6-1.8,2.7-4.9v-17.5h0Z" fill="#1a2c5b"/>
      <path d="M78.9,32.8h-15.2c-1.2,0-2.2,1-2.2,2.3v1.1h0v3.5c0,.4.3.6.6.6h2.1c.3,0,.6-.3.6-.6v-3.4h13v3.4c0,.4.3.6.6.6h2.1c.3,0,.6-.3.6-.6v-3.4h0v-1.2c0-1.3-1-2.3-2.2-2.3Z" fill="#1a2c5b"/>
    </g>
    <g>
      <g>
        <g>
          <path d="M316.8,22.8h13.3l.8.8c-.5,11.7-.9,19.7-1.4,29.4-.4,8.2-.9,18.8-.9,26.1s3.2,9.8,8.9,9.8c10.8,0,23.1-8.5,31.1-23.1l8.2,10.9c.8,1,1,1.8.3,3-9.3,14.8-24.1,23.5-38.5,23.5s-23.9-6.7-23.9-22.6.7-21.9.9-30.4c.3-7.4.8-15.6.8-26.7l.7-.7h-.3Z" fill="#f9851c"/>
          <path d="M389.1,75.7l11.7-3.9.8.4c1.6,9.8,6.7,11.3,22.4,11.3s20.3-.8,30.3-2.4l.8.7,1.3,14.1-.6.8c-11,1.2-22.4,1.5-32.9,1.5-28.2,0-33.3-11.4-34.4-22l.5-.7v.2ZM400.1,30c5.7.6,11.2.8,16.8.8,9,0,19.2-.9,29.1-2.4l.7.6.4,13.3-.8.7c-9,1.6-18.9,2.4-29.5,2.4s-11.4-.3-17.1-.8l-.8-.7.5-13.4.7-.5h0Z" fill="#1a2c5b"/>
        </g>
        <path d="M298.3,100c-3.5.3-7.2.4-12.1.4-9.2,0-13.6-3-13.6-9.4s2.9-7.2,6.9-10.3c-1.9-2.8-3.9-6.4-5.6-9.7v-.4l4.7-2.6h.4c1.7,3.4,3.6,6.8,5.4,9.6,3.5-1.9,7.4-3.6,11.2-5.1l.4.2,2.3,5.3-.2.3c-3.3,1.2-8,3.4-10.8,4.6-2.2,1-3.1,1.6-4.6,2.6-3,1.8-4.3,3.5-4.3,5.4,0,2.7,3.3,3.3,7.8,3.3s7.1-.3,11.8-.8l.3.2.2,5.8-.2.4v.2Z" fill="#1a2c5b"/>
      </g>
      <path d="M100.2,41.9l3.1-5.4c6.3-9.5,11-20.6,14-32.5l1.1-.4,13.4,4,.2,1.1c-1.4,4.4-2.9,8.8-4.6,12.9h27.6l14.3-.3.8.7v12.2l-.8.7-14.3-.3h-33.7c-2,3.7-4.4,7.2-6.8,10.6l8.3.2h16.6l9.7-.5,6.8,6.1c.7.6,1.2,1.5,1.2,2.2s-.3,1.2-.7,1.5c-4.8,3.8-10.7,8-21.9,16.9-8.9,7.4-13.6,11.4-13.6,13.5s1.7,3.4,13.7,3.4,17.3-1,19.1-2.4c2-1.6,2.9-4.1,3.3-12.1l12.5,5.4c1.2.5,1.3.8,1.2,2.1-.5,9-1.9,12.7-5.6,15.4-4.8,3.5-9,4.9-33.1,4.9s-27.4-3.7-27.4-14,2.2-9.7,8.6-15.9c4.4-4.1,9.3-8.1,16.2-13.8h-6.7l-12.1.3-.7-.7v-10.4l-9.6-5.6v.2Z" fill="#1a2c5b"/>
    </g>
  </g>
  <g>
    <rect x="44.6" y="116" width="490.9" height="58.3" fill="#1a2c5b"/>
    <g>
      <path d="M72.5,122.5c12.7,0,20.6,7,20.6,22.3s-8.7,23.4-21.2,23.4h-14.7v-45.7h15.3ZM72.5,160.6c5.8,0,9.8-4.1,9.8-15.2s-4-15.2-10.9-15.2h-3.6v30.5h4.7Z" fill="#fff"/>
      <path d="M158.8,168.2h-10.8l-2.6-10.7h-14l-2.6,10.7h-10l11.7-45.7h16.7l11.7,45.7h0ZM139.9,134.8c-.5-2.1-1-4.2-1.3-6.3h-.3c-.4,2.1-.8,4.2-1.3,6.3l-3.6,14.5h10s-3.5-14.5-3.5-14.5Z" fill="#fff"/>
      <path d="M218.4,131h-12.3v37.2h-10.5v-37.2h-12.3v-8.5h35.2v8.5h0Z" fill="#fff"/>
      <path d="M282.9,168.2h-10.8l-2.6-10.7h-14l-2.6,10.7h-10l11.7-45.7h16.7l11.7,45.7h0ZM264.1,134.8c-.5-2.1-1-4.2-1.3-6.3h-.3c-.4,2.1-.8,4.2-1.3,6.3l-3.6,14.5h10l-3.5-14.5h0Z" fill="#fff"/>
      <path d="M332.8,144.6c5.7.4,11,3,11,10.2s-6.9,13.4-16.7,13.4h-16.2v-45.7h15.2c9.3,0,15.5,3.3,15.5,11.7s-3.5,8.9-8.9,10.1v.3h.1ZM321.3,130.1v11.4h3.9c3.3,0,6.1-1.7,6.1-5.7s-2.6-5.6-6.1-5.6h-3.9ZM326.9,160.3c3.9,0,6.5-1.5,6.5-5.7s-2.6-5.5-6.4-5.5h-5.7v11.2h5.7-.1Z" fill="#fff"/>
      <path d="M409.1,168.2h-10.8l-2.6-10.7h-14l-2.6,10.7h-10l11.7-45.7h16.7l11.7,45.7h-.1ZM390.1,134.8c-.5-2.1-1-4.2-1.3-6.3h-.3c-.4,2.1-.8,4.2-1.3,6.3l-3.6,14.5h10l-3.5-14.5h0Z" fill="#fff"/>
      <path d="M444.8,153.1c.8,5.2,3.1,8,8,8s4.8-1.4,4.8-4.3-2-4.6-9.2-7.1c-8.3-2.9-12.6-7-12.6-13.9s6.1-13.8,15.4-13.8,15.1,4.7,16.4,13.4l-10.4,2.2c-.4-5.5-2.6-8.4-6.4-8.4s-4.6,1.9-4.6,4.7,2.2,4.7,8.7,6.9c9.7,3.1,13.8,6.7,13.8,14.2s-6.2,13.9-16.5,13.9-16.9-4.9-18.1-14.4l10.8-1.3h0Z" fill="#fff"/>
      <path d="M525.8,160.3v7.9h-28v-45.7h27.5v7.9h-16.9v10.8h15.2v7.6h-15.2v11.4h17.5-.1Z" fill="#fff"/>
    </g>
  </g>
  <path 
   className="gearPath_1"
  d="M439.9,14.9s-.3-.1-.4-.1c-.6,0-1.2.3-1.8.4s-.6,0-.8-.3-.5-2.3-.5-2.7.2-.5.4-.6c.5-.2,1.8-.2,2.2-.5s.2-.3.2-.4c.1-.5.1-1,.3-1.5,0-.5-.8-.8-1.2-1-.5-.3-1.3-.7-.9-1.4s1.1-1.7,1.4-2.1.3-.3.6-.3,1.5.9,1.9,1.1.2,0,.4,0c.3,0,.7-.4.9-.6s.6-.3.8-.5.2-.3.1-.4c0-.7-.4-1.4-.4-2.1s.5-.6.9-.7,1.1-.3,1.6-.4.5,0,.6,0c.3,0,.5.2.5.5.2.6.2,1.3.4,1.9s.5.4,1,.5,1.1.4,1.4.2.9-1.3,1.2-1.7.5-.4.9-.3c.4,0,1.9,1.2,2.2,1.5s.3.3.3.6-.9,1.4-1.2,1.8-.2.4,0,.7.6.8.8,1.3c.2.3.6.2.9.2.5,0,1.2-.3,1.7-.3s.5.2.6.4c.1.8.4,1.7.5,2.5s-.2.6-.6.7c-.6.2-1.2.2-1.8.4s-.4.3-.5.5-.3,1.2-.3,1.4,0,.3.2.4c.4.4,1.3.7,1.8,1.2s.2.4.2.7c-.6.7-1,1.7-1.6,2.4-.2.2-.3.3-.6.3-.5,0-1.4-.9-1.9-1.2s-.4-.1-.6,0-1.4.9-1.5,1-.1.2-.1.4c0,.6.5,1.8.4,2.3s-.6.4-1,.5c-.6.1-1.1.3-1.7.3s-.8.2-1-.4-.2-1.3-.4-1.9,0-.2-.1-.2c-.2-.2-.9-.3-1.2-.3s-.8-.2-1-.2-.9,1.2-1.1,1.5-.5.8-1.1.5-1.7-1.1-2.2-1.5c-.2-.2-.4-.3-.3-.7,0-.4,1-1.4,1.2-1.9s.1-.4,0-.7-.7-1.2-.9-1.3h.2ZM446.1,8c-1.8.5-2.9,2.4-2.5,4.2.8,3.3,5.7,3.5,6.8.2s-1.6-5.2-4.3-4.4Z" fill="#1a2c5b"/>
  <path 
  className="gearPath_2"
  d="M454.1,32s-.3-.1-.4-.1c-.6,0-1.2.3-1.8.4s-.6,0-.8-.3-.5-2.3-.5-2.7.2-.5.4-.6c.5-.2,1.8-.2,2.2-.5s.2-.3.2-.4c.1-.5.1-1,.3-1.5,0-.5-.8-.8-1.2-1-.5-.3-1.3-.7-.9-1.4s1.1-1.7,1.4-2.1.3-.3.6-.3,1.5.9,1.9,1.1.2.1.4.1c.3,0,.7-.4.9-.6s.6-.3.8-.5.2-.3.1-.4c0-.7-.4-1.4-.4-2.1s.5-.6.9-.7c.5-.1,1.1-.3,1.6-.4s.5,0,.6,0c.3,0,.5.2.5.5.2.6.2,1.3.4,1.9s.5.4,1,.5,1.1.4,1.4.2.9-1.3,1.2-1.7.5-.4.9-.3,1.9,1.2,2.2,1.5.3.3.3.6-.9,1.4-1.2,1.8-.2.4,0,.7.6.8.8,1.3c.2.3.6.2.9.2.5,0,1.2-.3,1.7-.3s.5.2.6.4c.1.8.4,1.7.5,2.5s-.2.6-.6.7c-.6.2-1.2.2-1.8.4s-.4.3-.5.5-.3,1.2-.3,1.4,0,.3.2.4c.4.4,1.3.7,1.8,1.2s.2.4.2.7c-.6.7-1,1.7-1.6,2.4s-.3.3-.6.3c-.5,0-1.4-.9-1.9-1.2s-.4,0-.6,0-1.4.9-1.5,1-.1.2-.1.4c0,.6.5,1.8.4,2.3s-.6.4-1,.5c-.6,0-1.1.3-1.7.3s-.8.2-1-.4-.2-1.3-.4-1.9,0-.2-.1-.2c-.2-.2-.9-.3-1.2-.3s-.8-.2-1-.2-.9,1.2-1.1,1.5-.5.8-1.1.5-1.7-1.1-2.2-1.5-.4-.3-.3-.7c0-.4,1-1.4,1.2-1.9s.1-.4,0-.7-.7-1.2-.9-1.3h.2ZM460.3,25.2c-1.8.5-2.9,2.4-2.5,4.2.8,3.3,5.7,3.5,6.8.2.9-2.6-1.6-5.2-4.3-4.4Z" fill="#1a2c5b"/>
  <path d="M534.6,99.3c-8.7.7-17.8,1-29.7,1-22.6,0-33.5-6.9-33.5-21.7s7.1-16.8,17.1-23.8c-4.6-6.6-9.6-14.9-13.8-22.4l.2-.9,11.4-5.9.9.3c4.1,7.5,8.9,15.5,13.4,22,8.6-4.3,18.2-8.4,27.6-11.9l.9.4,5.6,12.3-.4.8c-8.2,2.7-19.7,7.8-26.6,10.6-5.5,2.3-7.7,3.8-11.2,5.9-7.4,4.2-10.6,8.2-10.6,12.6,0,6.3,8,7.7,19.1,7.7s17.5-.7,29-1.9l.8.6.4,13.5-.6.8h0Z" fill="#f9851c"/>
</svg>